<svg width="544" height="566" viewBox="0 0 544 566" fill="none" xmlns="http://www.w3.org/2000/svg">
<mask id="path-1-inside-1_1_511" fill="white">
<path d="M535 268C535 232.806 528.081 197.956 514.638 165.441C501.195 132.926 481.491 103.381 456.651 78.4954C431.811 53.6093 402.322 33.8685 369.868 20.4003C337.413 6.93202 302.629 -1.53839e-06 267.5 0C232.371 1.53839e-06 197.587 6.93203 165.132 20.4003C132.678 33.8686 103.189 53.6093 78.3489 78.4954C53.5093 103.382 33.8053 132.926 20.3622 165.441C6.91909 197.956 -3.07104e-06 232.806 0 268L267.5 268H535Z"/>
</mask>
<path d="M535 268C535 232.806 528.081 197.956 514.638 165.441C501.195 132.926 481.491 103.381 456.651 78.4954C431.811 53.6093 402.322 33.8685 369.868 20.4003C337.413 6.93202 302.629 -1.53839e-06 267.5 0C232.371 1.53839e-06 197.587 6.93203 165.132 20.4003C132.678 33.8686 103.189 53.6093 78.3489 78.4954C53.5093 103.382 33.8053 132.926 20.3622 165.441C6.91909 197.956 -3.07104e-06 232.806 0 268L267.5 268H535Z" stroke="#4E00B1" stroke-opacity="0.22" mask="url(#path-1-inside-1_1_511)"/>
<mask id="path-2-inside-2_1_511" fill="white">
<path d="M535 298C535 333.194 528.081 368.044 514.638 400.559C501.195 433.074 481.491 462.619 456.651 487.505C431.811 512.391 402.322 532.131 369.868 545.6C337.413 559.068 302.629 566 267.5 566C232.371 566 197.587 559.068 165.132 545.6C132.678 532.131 103.189 512.391 78.3489 487.505C53.5093 462.618 33.8053 433.074 20.3622 400.559C6.91909 368.044 -3.07104e-06 333.194 0 298L267.5 298H535Z"/>
</mask>
<path d="M535 298C535 333.194 528.081 368.044 514.638 400.559C501.195 433.074 481.491 462.619 456.651 487.505C431.811 512.391 402.322 532.131 369.868 545.6C337.413 559.068 302.629 566 267.5 566C232.371 566 197.587 559.068 165.132 545.6C132.678 532.131 103.189 512.391 78.3489 487.505C53.5093 462.618 33.8053 433.074 20.3622 400.559C6.91909 368.044 -3.07104e-06 333.194 0 298L267.5 298H535Z" stroke="#4E00B1" stroke-opacity="0.22" mask="url(#path-2-inside-2_1_511)"/>
<ellipse cx="267.5" cy="268" rx="238.5" ry="239" fill="white"/>
<g filter="url(#filter0_d_1_511)">
<g filter="url(#filter1_d_1_511)">
<rect x="79" y="164" width="377" height="207.958" rx="20" fill="#4E00B1"/>
<path d="M413.782 346.609L410.002 336.394H411.651L414.716 345.004L417.795 336.394H419.43L415.65 346.609H413.782ZM421.543 337.999C421.251 337.999 421.008 337.912 420.813 337.736C420.628 337.552 420.536 337.323 420.536 337.051C420.536 336.778 420.628 336.554 420.813 336.379C421.008 336.194 421.251 336.102 421.543 336.102C421.835 336.102 422.073 336.194 422.258 336.379C422.452 336.554 422.55 336.778 422.55 337.051C422.55 337.323 422.452 337.552 422.258 337.736C422.073 337.912 421.835 337.999 421.543 337.999ZM420.769 346.609V339.371H422.316V346.609H420.769ZM427.236 346.784C426.322 346.784 425.568 346.561 424.974 346.113C424.381 345.666 424.04 345.072 423.953 344.333H425.514C425.592 344.664 425.777 344.951 426.069 345.194C426.36 345.427 426.745 345.544 427.222 345.544C427.688 345.544 428.029 345.447 428.243 345.252C428.457 345.058 428.564 344.834 428.564 344.581C428.564 344.211 428.413 343.963 428.112 343.837C427.82 343.7 427.411 343.579 426.886 343.472C426.477 343.384 426.069 343.267 425.66 343.122C425.261 342.976 424.925 342.771 424.653 342.509C424.39 342.236 424.259 341.871 424.259 341.414C424.259 340.782 424.502 340.256 424.989 339.838C425.475 339.41 426.156 339.196 427.032 339.196C427.839 339.196 428.491 339.39 428.987 339.78C429.493 340.169 429.79 340.718 429.878 341.429H428.389C428.34 341.117 428.194 340.874 427.951 340.699C427.718 340.524 427.401 340.436 427.003 340.436C426.613 340.436 426.312 340.519 426.098 340.684C425.884 340.84 425.777 341.044 425.777 341.297C425.777 341.55 425.923 341.75 426.215 341.896C426.516 342.042 426.91 342.173 427.397 342.29C427.883 342.397 428.331 342.523 428.739 342.669C429.158 342.805 429.493 343.01 429.746 343.282C429.999 343.554 430.126 343.953 430.126 344.479C430.135 345.14 429.878 345.69 429.352 346.128C428.837 346.566 428.131 346.784 427.236 346.784ZM434.254 346.784C433.641 346.784 433.136 346.682 432.737 346.478C432.338 346.274 432.041 346.006 431.846 345.675C431.652 345.335 431.555 344.965 431.555 344.566C431.555 343.866 431.827 343.311 432.372 342.903C432.917 342.494 433.695 342.29 434.707 342.29H436.604V342.158C436.604 341.594 436.448 341.171 436.137 340.889C435.835 340.607 435.441 340.465 434.955 340.465C434.527 340.465 434.152 340.573 433.831 340.787C433.52 340.991 433.33 341.297 433.262 341.706H431.715C431.764 341.181 431.939 340.733 432.241 340.363C432.552 339.984 432.941 339.697 433.408 339.502C433.885 339.298 434.405 339.196 434.969 339.196C435.981 339.196 436.765 339.463 437.319 339.998C437.874 340.524 438.151 341.244 438.151 342.158V346.609H436.808L436.677 345.369C436.473 345.768 436.176 346.103 435.787 346.376C435.398 346.648 434.887 346.784 434.254 346.784ZM434.561 345.529C434.979 345.529 435.329 345.432 435.612 345.238C435.903 345.033 436.127 344.766 436.283 344.435C436.448 344.104 436.55 343.739 436.589 343.34H434.867C434.254 343.34 433.817 343.447 433.554 343.661C433.301 343.876 433.174 344.143 433.174 344.464C433.174 344.795 433.296 345.058 433.539 345.252C433.792 345.437 434.133 345.529 434.561 345.529Z" fill="white"/>
<path d="M104.291 342.737H106.084V347.579H104.291V342.737ZM104.532 342.309V327.674L105.816 327.379V342.362L104.532 342.309ZM104.291 322.644H106.084V327.058L104.291 327.326V322.644ZM110.204 330.429C110.079 330.305 109.847 330.135 109.509 329.921C109.187 329.707 108.786 329.502 108.305 329.306C107.841 329.109 107.332 328.94 106.78 328.797C106.227 328.637 105.665 328.557 105.094 328.557C104.095 328.557 103.337 328.744 102.82 329.118C102.32 329.493 102.071 330.019 102.071 330.697C102.071 331.214 102.231 331.624 102.552 331.928C102.873 332.231 103.355 332.49 103.997 332.704C104.639 332.918 105.442 333.149 106.405 333.399C107.654 333.702 108.733 334.077 109.642 334.523C110.57 334.951 111.274 335.522 111.756 336.235C112.255 336.931 112.505 337.858 112.505 339.018C112.505 340.034 112.318 340.908 111.943 341.64C111.569 342.353 111.051 342.933 110.391 343.379C109.731 343.825 108.973 344.155 108.117 344.369C107.279 344.565 106.396 344.663 105.469 344.663C104.523 344.663 103.569 344.565 102.606 344.369C101.66 344.172 100.751 343.896 99.8768 343.539C99.0206 343.165 98.2269 342.719 97.4956 342.202L99.1276 339.018C99.2882 339.178 99.5736 339.392 99.9838 339.66C100.394 339.91 100.885 340.168 101.455 340.436C102.044 340.685 102.686 340.899 103.382 341.078C104.095 341.256 104.809 341.345 105.522 341.345C106.521 341.345 107.279 341.176 107.796 340.837C108.313 340.498 108.572 340.017 108.572 339.392C108.572 338.821 108.367 338.376 107.957 338.055C107.547 337.733 106.967 337.457 106.218 337.225C105.486 336.975 104.63 336.708 103.649 336.422C102.436 336.084 101.429 335.709 100.626 335.299C99.8233 334.871 99.2257 334.336 98.8333 333.693C98.4409 333.051 98.2447 332.249 98.2447 331.286C98.2447 329.983 98.5569 328.895 99.1812 328.021C99.8054 327.13 100.644 326.461 101.696 326.015C102.748 325.551 103.917 325.319 105.201 325.319C106.093 325.319 106.931 325.417 107.716 325.614C108.519 325.81 109.268 326.068 109.963 326.389C110.659 326.71 111.283 327.058 111.836 327.433L110.204 330.429ZM120.914 344.636C119.897 344.636 118.97 344.511 118.131 344.262C117.311 343.994 116.588 343.62 115.964 343.138C115.358 342.639 114.876 342.05 114.519 341.372L116.446 338.937C116.624 339.33 116.91 339.713 117.302 340.088C117.694 340.462 118.185 340.766 118.773 340.998C119.362 341.229 120.031 341.345 120.78 341.345C121.511 341.345 122.145 341.238 122.68 341.024C123.215 340.81 123.625 340.516 123.91 340.141C124.214 339.749 124.365 339.276 124.365 338.723C124.365 338.135 124.178 337.635 123.803 337.225C123.447 336.815 122.912 336.503 122.198 336.289C121.485 336.075 120.611 335.968 119.576 335.968H118.693V333.292H119.63C120.914 333.292 121.939 333.069 122.706 332.623C123.491 332.177 123.884 331.544 123.884 330.724C123.884 330.224 123.75 329.796 123.482 329.439C123.215 329.065 122.858 328.788 122.412 328.61C121.966 328.414 121.476 328.316 120.941 328.316C120.049 328.316 119.255 328.53 118.559 328.958C117.882 329.368 117.364 329.903 117.008 330.563L114.68 327.968C115.072 327.397 115.607 326.916 116.285 326.523C116.963 326.113 117.721 325.792 118.559 325.56C119.416 325.328 120.298 325.212 121.208 325.212C122.475 325.212 123.598 325.435 124.579 325.881C125.56 326.309 126.327 326.898 126.88 327.647C127.433 328.396 127.71 329.252 127.71 330.215C127.71 330.929 127.558 331.58 127.255 332.168C126.969 332.757 126.559 333.248 126.024 333.64C125.489 334.032 124.856 334.318 124.124 334.496C124.909 334.621 125.596 334.915 126.185 335.379C126.791 335.825 127.255 336.396 127.576 337.091C127.915 337.769 128.084 338.509 128.084 339.312C128.084 340.436 127.763 341.39 127.121 342.175C126.497 342.96 125.641 343.566 124.552 343.994C123.482 344.422 122.269 344.636 120.914 344.636ZM131.334 347.526L132.056 344.342H130.932V340.596H134.036V344.342L132.939 347.526H131.334ZM148.214 341.212V344.449H137.459V341.212H141.151V328.851C141.008 329.065 140.767 329.306 140.428 329.573C140.107 329.823 139.733 330.073 139.305 330.322C138.894 330.554 138.466 330.75 138.02 330.911C137.592 331.071 137.2 331.152 136.843 331.152V327.834C137.325 327.834 137.815 327.709 138.315 327.46C138.814 327.21 139.278 326.924 139.706 326.603C140.134 326.282 140.473 325.988 140.723 325.721C140.99 325.435 141.133 325.284 141.151 325.266H144.816V341.212H148.214ZM158.267 344.716C156.929 344.699 155.743 344.395 154.708 343.807C153.674 343.218 152.809 342.442 152.113 341.479C151.417 340.516 150.891 339.481 150.535 338.376C150.196 337.252 150.026 336.155 150.026 335.085C150.026 333.943 150.213 332.802 150.588 331.66C150.963 330.519 151.507 329.484 152.22 328.557C152.951 327.611 153.825 326.862 154.842 326.309C155.859 325.738 157 325.453 158.267 325.453C159.64 325.453 160.835 325.756 161.852 326.363C162.886 326.969 163.751 327.754 164.447 328.717C165.143 329.68 165.66 330.724 165.999 331.847C166.356 332.971 166.534 334.05 166.534 335.085C166.534 336.244 166.347 337.395 165.972 338.536C165.598 339.66 165.045 340.685 164.313 341.613C163.6 342.54 162.735 343.29 161.718 343.86C160.701 344.413 159.551 344.699 158.267 344.716ZM153.745 335.085C153.763 335.834 153.861 336.583 154.039 337.332C154.236 338.063 154.512 338.741 154.869 339.365C155.243 339.99 155.716 340.498 156.287 340.891C156.858 341.265 157.518 341.452 158.267 341.452C159.069 341.452 159.756 341.247 160.327 340.837C160.898 340.427 161.361 339.901 161.718 339.258C162.093 338.616 162.369 337.93 162.547 337.198C162.726 336.467 162.815 335.763 162.815 335.085C162.815 334.336 162.717 333.595 162.521 332.864C162.342 332.115 162.057 331.428 161.665 330.804C161.29 330.18 160.817 329.68 160.247 329.306C159.694 328.913 159.034 328.717 158.267 328.717C157.482 328.717 156.804 328.922 156.233 329.332C155.663 329.743 155.19 330.269 154.815 330.911C154.459 331.553 154.191 332.24 154.013 332.971C153.834 333.702 153.745 334.407 153.745 335.085ZM177.12 344.716C175.782 344.699 174.596 344.395 173.562 343.807C172.527 343.218 171.662 342.442 170.966 341.479C170.271 340.516 169.745 339.481 169.388 338.376C169.049 337.252 168.88 336.155 168.88 335.085C168.88 333.943 169.067 332.802 169.441 331.66C169.816 330.519 170.36 329.484 171.073 328.557C171.805 327.611 172.679 326.862 173.695 326.309C174.712 325.738 175.854 325.453 177.12 325.453C178.493 325.453 179.689 325.756 180.705 326.363C181.74 326.969 182.605 327.754 183.3 328.717C183.996 329.68 184.513 330.724 184.852 331.847C185.209 332.971 185.387 334.05 185.387 335.085C185.387 336.244 185.2 337.395 184.825 338.536C184.451 339.66 183.898 340.685 183.167 341.613C182.453 342.54 181.588 343.29 180.571 343.86C179.555 344.413 178.404 344.699 177.12 344.716ZM172.599 335.085C172.616 335.834 172.714 336.583 172.893 337.332C173.089 338.063 173.365 338.741 173.722 339.365C174.097 339.99 174.569 340.498 175.14 340.891C175.711 341.265 176.371 341.452 177.12 341.452C177.923 341.452 178.609 341.247 179.18 340.837C179.751 340.427 180.215 339.901 180.571 339.258C180.946 338.616 181.222 337.93 181.401 337.198C181.579 336.467 181.668 335.763 181.668 335.085C181.668 334.336 181.57 333.595 181.374 332.864C181.196 332.115 180.91 331.428 180.518 330.804C180.143 330.18 179.671 329.68 179.1 329.306C178.547 328.913 177.887 328.717 177.12 328.717C176.335 328.717 175.657 328.922 175.087 329.332C174.516 329.743 174.043 330.269 173.669 330.911C173.312 331.553 173.044 332.24 172.866 332.971C172.688 333.702 172.599 334.407 172.599 335.085ZM188.161 344.449V340.596H191.104V344.449H188.161ZM199.99 344.636C198.973 344.636 198.045 344.511 197.207 344.262C196.387 343.994 195.664 343.62 195.04 343.138C194.434 342.639 193.952 342.05 193.595 341.372L195.522 338.937C195.7 339.33 195.985 339.713 196.378 340.088C196.77 340.462 197.261 340.766 197.849 340.998C198.438 341.229 199.107 341.345 199.856 341.345C200.587 341.345 201.22 341.238 201.755 341.024C202.291 340.81 202.701 340.516 202.986 340.141C203.289 339.749 203.441 339.276 203.441 338.723C203.441 338.135 203.254 337.635 202.879 337.225C202.522 336.815 201.987 336.503 201.274 336.289C200.56 336.075 199.686 335.968 198.652 335.968H197.769V333.292H198.705C199.99 333.292 201.015 333.069 201.782 332.623C202.567 332.177 202.959 331.544 202.959 330.724C202.959 330.224 202.826 329.796 202.558 329.439C202.291 329.065 201.934 328.788 201.488 328.61C201.042 328.414 200.551 328.316 200.016 328.316C199.125 328.316 198.331 328.53 197.635 328.958C196.957 329.368 196.44 329.903 196.083 330.563L193.756 327.968C194.148 327.397 194.683 326.916 195.361 326.523C196.039 326.113 196.797 325.792 197.635 325.56C198.491 325.328 199.374 325.212 200.284 325.212C201.55 325.212 202.674 325.435 203.655 325.881C204.636 326.309 205.403 326.898 205.956 327.647C206.509 328.396 206.785 329.252 206.785 330.215C206.785 330.929 206.634 331.58 206.331 332.168C206.045 332.757 205.635 333.248 205.1 333.64C204.565 334.032 203.931 334.318 203.2 334.496C203.985 334.621 204.672 334.915 205.26 335.379C205.867 335.825 206.331 336.396 206.652 337.091C206.99 337.769 207.16 338.509 207.16 339.312C207.16 340.436 206.839 341.39 206.197 342.175C205.572 342.96 204.716 343.566 203.628 343.994C202.558 344.422 201.345 344.636 199.99 344.636ZM217.821 344.716C216.483 344.699 215.297 344.395 214.262 343.807C213.228 343.218 212.363 342.442 211.667 341.479C210.971 340.516 210.445 339.481 210.089 338.376C209.75 337.252 209.58 336.155 209.58 335.085C209.58 333.943 209.767 332.802 210.142 331.66C210.517 330.519 211.061 329.484 211.774 328.557C212.505 327.611 213.379 326.862 214.396 326.309C215.413 325.738 216.554 325.453 217.821 325.453C219.194 325.453 220.389 325.756 221.406 326.363C222.44 326.969 223.305 327.754 224.001 328.717C224.697 329.68 225.214 330.724 225.553 331.847C225.91 332.971 226.088 334.05 226.088 335.085C226.088 336.244 225.901 337.395 225.526 338.536C225.152 339.66 224.599 340.685 223.867 341.613C223.154 342.54 222.289 343.29 221.272 343.86C220.255 344.413 219.105 344.699 217.821 344.716ZM213.299 335.085C213.317 335.834 213.415 336.583 213.593 337.332C213.79 338.063 214.066 338.741 214.423 339.365C214.797 339.99 215.27 340.498 215.841 340.891C216.412 341.265 217.072 341.452 217.821 341.452C218.623 341.452 219.31 341.247 219.881 340.837C220.452 340.427 220.915 339.901 221.272 339.258C221.647 338.616 221.923 337.93 222.101 337.198C222.28 336.467 222.369 335.763 222.369 335.085C222.369 334.336 222.271 333.595 222.075 332.864C221.896 332.115 221.611 331.428 221.219 330.804C220.844 330.18 220.371 329.68 219.801 329.306C219.248 328.913 218.588 328.717 217.821 328.717C217.036 328.717 216.358 328.922 215.787 329.332C215.217 329.743 214.744 330.269 214.369 330.911C214.013 331.553 213.745 332.24 213.567 332.971C213.388 333.702 213.299 334.407 213.299 335.085Z" fill="white"/>
<path opacity="0.7" d="M100.22 309.126V305.361L96.834 298.91H98.5853L100.993 303.843L103.387 298.91H105.123L101.767 305.361V309.126H100.22ZM108.446 309.301C107.755 309.301 107.132 309.145 106.578 308.834C106.033 308.513 105.6 308.07 105.279 307.506C104.958 306.932 104.797 306.266 104.797 305.507C104.797 304.748 104.958 304.086 105.279 303.522C105.61 302.948 106.052 302.505 106.607 302.194C107.161 301.873 107.779 301.712 108.46 301.712C109.151 301.712 109.769 301.873 110.314 302.194C110.868 302.505 111.306 302.948 111.627 303.522C111.958 304.086 112.123 304.748 112.123 305.507C112.123 306.266 111.958 306.932 111.627 307.506C111.306 308.07 110.868 308.513 110.314 308.834C109.759 309.145 109.136 309.301 108.446 309.301ZM108.446 307.973C108.815 307.973 109.156 307.881 109.467 307.696C109.788 307.511 110.046 307.239 110.241 306.879C110.435 306.509 110.533 306.052 110.533 305.507C110.533 304.962 110.435 304.51 110.241 304.15C110.056 303.78 109.803 303.503 109.482 303.318C109.171 303.133 108.83 303.04 108.46 303.04C108.091 303.04 107.745 303.133 107.424 303.318C107.113 303.503 106.86 303.78 106.665 304.15C106.471 304.51 106.373 304.962 106.373 305.507C106.373 306.052 106.471 306.509 106.665 306.879C106.86 307.239 107.113 307.511 107.424 307.696C107.735 307.881 108.076 307.973 108.446 307.973ZM116.467 309.301C115.591 309.301 114.9 309.029 114.395 308.484C113.898 307.939 113.65 307.127 113.65 306.047V301.888H115.197V305.886C115.197 307.287 115.771 307.988 116.919 307.988C117.493 307.988 117.965 307.783 118.335 307.375C118.704 306.966 118.889 306.382 118.889 305.624V301.888H120.436V309.126H119.064L118.948 307.856C118.724 308.304 118.393 308.659 117.955 308.922C117.527 309.175 117.031 309.301 116.467 309.301ZM122.404 309.126V301.888H123.79L123.922 303.259C124.175 302.783 124.525 302.408 124.973 302.136C125.43 301.854 125.98 301.712 126.622 301.712V303.332H126.198C125.77 303.332 125.386 303.405 125.046 303.551C124.715 303.687 124.447 303.926 124.243 304.266C124.048 304.597 123.951 305.059 123.951 305.653V309.126H122.404ZM131.683 309.126V298.91H135.536C136.596 298.91 137.399 299.159 137.944 299.655C138.489 300.151 138.761 300.774 138.761 301.523C138.761 302.175 138.586 302.695 138.236 303.084C137.885 303.464 137.462 303.721 136.966 303.858C137.355 303.936 137.701 304.091 138.002 304.325C138.314 304.558 138.557 304.85 138.732 305.2C138.907 305.551 138.995 305.93 138.995 306.339C138.995 306.864 138.863 307.341 138.601 307.769C138.348 308.187 137.973 308.518 137.477 308.761C136.981 309.004 136.373 309.126 135.653 309.126H131.683ZM133.23 303.289H135.346C135.94 303.289 136.392 303.152 136.703 302.88C137.015 302.598 137.17 302.213 137.17 301.727C137.17 301.25 137.015 300.871 136.703 300.589C136.402 300.307 135.94 300.166 135.317 300.166H133.23V303.289ZM133.23 307.856H135.448C136.071 307.856 136.553 307.71 136.893 307.419C137.243 307.127 137.418 306.718 137.418 306.193C137.418 305.667 137.238 305.254 136.878 304.952C136.519 304.641 136.032 304.485 135.419 304.485H133.23V307.856ZM143.083 309.301C142.471 309.301 141.965 309.199 141.566 308.995C141.167 308.79 140.87 308.523 140.676 308.192C140.481 307.851 140.384 307.482 140.384 307.083C140.384 306.382 140.656 305.828 141.201 305.419C141.746 305.011 142.524 304.806 143.536 304.806H145.433V304.675C145.433 304.111 145.277 303.687 144.966 303.405C144.664 303.123 144.27 302.982 143.784 302.982C143.356 302.982 142.981 303.089 142.66 303.303C142.349 303.507 142.159 303.814 142.091 304.223H140.544C140.593 303.697 140.768 303.25 141.07 302.88C141.381 302.501 141.77 302.213 142.237 302.019C142.714 301.815 143.234 301.712 143.799 301.712C144.81 301.712 145.594 301.98 146.148 302.515C146.703 303.04 146.98 303.76 146.98 304.675V309.126H145.637L145.506 307.886C145.302 308.284 145.005 308.62 144.616 308.892C144.227 309.165 143.716 309.301 143.083 309.301ZM143.39 308.046C143.808 308.046 144.159 307.949 144.441 307.754C144.733 307.55 144.956 307.282 145.112 306.952C145.277 306.621 145.38 306.256 145.418 305.857H143.696C143.083 305.857 142.646 305.964 142.383 306.178C142.13 306.392 142.004 306.66 142.004 306.981C142.004 307.312 142.125 307.574 142.368 307.769C142.621 307.954 142.962 308.046 143.39 308.046ZM148.784 309.126V298.619H150.331V309.126H148.784ZM154.741 309.301C154.128 309.301 153.622 309.199 153.223 308.995C152.825 308.79 152.528 308.523 152.333 308.192C152.139 307.851 152.041 307.482 152.041 307.083C152.041 306.382 152.314 305.828 152.859 305.419C153.403 305.011 154.182 304.806 155.194 304.806H157.091V304.675C157.091 304.111 156.935 303.687 156.624 303.405C156.322 303.123 155.928 302.982 155.442 302.982C155.014 302.982 154.639 303.089 154.318 303.303C154.007 303.507 153.817 303.814 153.749 304.223H152.202C152.251 303.697 152.426 303.25 152.727 302.88C153.039 302.501 153.428 302.213 153.895 302.019C154.372 301.815 154.892 301.712 155.456 301.712C156.468 301.712 157.251 301.98 157.806 302.515C158.36 303.04 158.638 303.76 158.638 304.675V309.126H157.295L157.164 307.886C156.959 308.284 156.663 308.62 156.274 308.892C155.884 309.165 155.374 309.301 154.741 309.301ZM155.048 308.046C155.466 308.046 155.816 307.949 156.098 307.754C156.39 307.55 156.614 307.282 156.77 306.952C156.935 306.621 157.037 306.256 157.076 305.857H155.354C154.741 305.857 154.303 305.964 154.041 306.178C153.788 306.392 153.661 306.66 153.661 306.981C153.661 307.312 153.783 307.574 154.026 307.769C154.279 307.954 154.62 308.046 155.048 308.046ZM160.441 309.126V301.888H161.813L161.93 303.157C162.154 302.71 162.48 302.359 162.908 302.106C163.345 301.844 163.847 301.712 164.411 301.712C165.286 301.712 165.972 301.985 166.469 302.53C166.974 303.075 167.227 303.887 167.227 304.967V309.126H165.695V305.127C165.695 303.726 165.121 303.026 163.973 303.026C163.399 303.026 162.922 303.23 162.543 303.639C162.173 304.047 161.988 304.631 161.988 305.39V309.126H160.441ZM172.479 309.301C171.769 309.301 171.131 309.141 170.567 308.82C170.012 308.498 169.575 308.056 169.254 307.491C168.942 306.917 168.787 306.256 168.787 305.507C168.787 304.758 168.942 304.101 169.254 303.537C169.575 302.963 170.012 302.515 170.567 302.194C171.131 301.873 171.769 301.712 172.479 301.712C173.374 301.712 174.123 301.946 174.726 302.413C175.339 302.88 175.733 303.512 175.908 304.31H174.288C174.191 303.911 173.977 303.6 173.646 303.376C173.315 303.152 172.926 303.04 172.479 303.04C172.099 303.04 171.749 303.138 171.428 303.332C171.107 303.517 170.849 303.794 170.655 304.164C170.46 304.524 170.363 304.972 170.363 305.507C170.363 306.042 170.46 306.494 170.655 306.864C170.849 307.224 171.107 307.501 171.428 307.696C171.749 307.89 172.099 307.988 172.479 307.988C172.926 307.988 173.315 307.876 173.646 307.652C173.977 307.428 174.191 307.112 174.288 306.703H175.908C175.743 307.482 175.354 308.109 174.741 308.586C174.128 309.063 173.374 309.301 172.479 309.301ZM180.972 309.301C180.261 309.301 179.629 309.145 179.074 308.834C178.53 308.513 178.102 308.07 177.79 307.506C177.479 306.942 177.323 306.285 177.323 305.536C177.323 304.777 177.474 304.111 177.776 303.537C178.087 302.963 178.515 302.515 179.06 302.194C179.614 301.873 180.257 301.712 180.986 301.712C181.696 301.712 182.314 301.873 182.84 302.194C183.365 302.505 183.774 302.924 184.065 303.449C184.357 303.974 184.503 304.553 184.503 305.186C184.503 305.283 184.498 305.39 184.489 305.507C184.489 305.614 184.484 305.735 184.474 305.872H178.841C178.89 306.572 179.118 307.107 179.527 307.477C179.945 307.837 180.427 308.017 180.972 308.017C181.409 308.017 181.774 307.92 182.066 307.725C182.368 307.521 182.592 307.248 182.737 306.908H184.284C184.09 307.589 183.701 308.158 183.117 308.615C182.543 309.072 181.828 309.301 180.972 309.301ZM180.972 302.982C180.456 302.982 179.999 303.138 179.6 303.449C179.201 303.751 178.958 304.208 178.87 304.821H182.956C182.927 304.257 182.728 303.809 182.358 303.478C181.988 303.147 181.526 302.982 180.972 302.982Z" fill="white"/>
<path d="M380.379 229.213V227.403C381.209 226.716 382.014 226.035 382.792 225.36C383.583 224.686 384.284 224.018 384.893 223.356C385.516 222.694 386.009 222.052 386.372 221.43C386.748 220.794 386.936 220.178 386.936 219.581C386.936 219.023 386.781 218.53 386.469 218.102C386.171 217.674 385.672 217.46 384.971 217.46C384.258 217.46 383.719 217.694 383.356 218.161C382.993 218.628 382.811 219.192 382.811 219.854H380.399C380.424 218.855 380.645 218.025 381.06 217.363C381.475 216.688 382.027 216.189 382.714 215.865C383.402 215.527 384.173 215.359 385.03 215.359C386.418 215.359 387.494 215.741 388.26 216.507C389.038 217.259 389.427 218.239 389.427 219.445C389.427 220.197 389.252 220.93 388.902 221.644C388.564 222.357 388.117 223.045 387.559 223.706C387.001 224.368 386.398 224.991 385.75 225.574C385.101 226.145 384.472 226.677 383.862 227.17H389.758V229.213H380.379ZM393.363 229.213V218.433L391.126 218.959V217.052L394.414 215.592H395.951V229.213H393.363ZM402.47 231.373L407.334 214.094H409.767L404.883 231.373H402.47ZM415.958 229.213V227.403C416.788 226.716 417.592 226.035 418.37 225.36C419.162 224.686 419.862 224.018 420.472 223.356C421.095 222.694 421.588 222.052 421.951 221.43C422.327 220.794 422.515 220.178 422.515 219.581C422.515 219.023 422.359 218.53 422.048 218.102C421.75 217.674 421.25 217.46 420.55 217.46C419.836 217.46 419.298 217.694 418.935 218.161C418.572 218.628 418.39 219.192 418.39 219.854H415.977C416.003 218.855 416.224 218.025 416.639 217.363C417.054 216.688 417.605 216.189 418.293 215.865C418.98 215.527 419.752 215.359 420.608 215.359C421.996 215.359 423.073 215.741 423.838 216.507C424.617 217.259 425.006 218.239 425.006 219.445C425.006 220.197 424.831 220.93 424.48 221.644C424.143 222.357 423.696 223.045 423.138 223.706C422.58 224.368 421.977 224.991 421.328 225.574C420.68 226.145 420.05 226.677 419.441 227.17H425.336V229.213H415.958ZM433.519 229.213V226.683H426.806V224.699L433.188 215.592H436.009V224.524H437.799V226.683H436.009V229.213H433.519ZM429.471 224.524H433.674V218.336L429.471 224.524Z" fill="white"/>
<path d="M350.997 199.458L354.762 189.243H356.455L360.191 199.458H358.556L357.681 196.963H353.507L352.631 199.458H350.997ZM353.945 195.737H357.243L355.594 191.081L353.945 195.737ZM365.269 199.458V189.243H368.581C369.778 189.243 370.761 189.452 371.529 189.87C372.308 190.288 372.882 190.882 373.251 191.65C373.631 192.409 373.821 193.314 373.821 194.365C373.821 195.406 373.631 196.311 373.251 197.079C372.882 197.838 372.308 198.427 371.529 198.845C370.761 199.254 369.778 199.458 368.581 199.458H365.269ZM366.816 198.145H368.523C369.447 198.145 370.177 197.994 370.712 197.692C371.257 197.391 371.646 196.958 371.88 196.393C372.123 195.829 372.244 195.153 372.244 194.365C372.244 193.577 372.123 192.896 371.88 192.322C371.646 191.748 371.257 191.31 370.712 191.008C370.177 190.697 369.447 190.541 368.523 190.541H366.816V198.145ZM378.845 199.633C378.135 199.633 377.503 199.477 376.948 199.166C376.403 198.845 375.975 198.402 375.664 197.838C375.353 197.274 375.197 196.617 375.197 195.868C375.197 195.109 375.348 194.443 375.649 193.869C375.961 193.295 376.389 192.847 376.934 192.526C377.488 192.205 378.13 192.045 378.86 192.045C379.57 192.045 380.188 192.205 380.713 192.526C381.239 192.837 381.647 193.256 381.939 193.781C382.231 194.307 382.377 194.885 382.377 195.518C382.377 195.615 382.372 195.722 382.363 195.839C382.363 195.946 382.358 196.067 382.348 196.204H376.715C376.763 196.904 376.992 197.439 377.401 197.809C377.819 198.169 378.301 198.349 378.845 198.349C379.283 198.349 379.648 198.252 379.94 198.057C380.242 197.853 380.465 197.58 380.611 197.24H382.158C381.964 197.921 381.574 198.49 380.991 198.947C380.417 199.405 379.702 199.633 378.845 199.633ZM378.845 193.314C378.33 193.314 377.873 193.47 377.474 193.781C377.075 194.083 376.832 194.54 376.744 195.153H380.83C380.801 194.589 380.602 194.141 380.232 193.81C379.862 193.48 379.4 193.314 378.845 193.314ZM388.042 199.633C387.478 199.633 386.977 199.521 386.539 199.298C386.111 199.074 385.77 198.758 385.517 198.349L385.357 199.458H383.97V188.951H385.517V193.343C385.751 193.003 386.072 192.701 386.481 192.439C386.889 192.176 387.415 192.045 388.057 192.045C388.757 192.045 389.375 192.21 389.91 192.541C390.445 192.871 390.864 193.324 391.165 193.898C391.476 194.472 391.632 195.124 391.632 195.853C391.632 196.583 391.476 197.235 391.165 197.809C390.864 198.373 390.445 198.821 389.91 199.152C389.375 199.473 388.752 199.633 388.042 199.633ZM387.779 198.291C388.441 198.291 388.986 198.067 389.414 197.619C389.842 197.162 390.056 196.569 390.056 195.839C390.056 195.362 389.959 194.939 389.764 194.569C389.57 194.199 389.302 193.912 388.961 193.708C388.621 193.494 388.227 193.387 387.779 193.387C387.118 193.387 386.573 193.616 386.145 194.073C385.727 194.53 385.517 195.119 385.517 195.839C385.517 196.569 385.727 197.162 386.145 197.619C386.573 198.067 387.118 198.291 387.779 198.291ZM394.169 190.848C393.877 190.848 393.634 190.76 393.439 190.585C393.255 190.4 393.162 190.172 393.162 189.899C393.162 189.627 393.255 189.403 393.439 189.228C393.634 189.043 393.877 188.951 394.169 188.951C394.461 188.951 394.699 189.043 394.884 189.228C395.079 189.403 395.176 189.627 395.176 189.899C395.176 190.172 395.079 190.4 394.884 190.585C394.699 190.76 394.461 190.848 394.169 190.848ZM393.396 199.458V192.22H394.943V199.458H393.396ZM400.008 199.458C399.298 199.458 398.734 199.288 398.316 198.947C397.897 198.597 397.688 197.979 397.688 197.094V193.518H396.448V192.22H397.688L397.878 190.381H399.235V192.22H401.278V193.518H399.235V197.094C399.235 197.493 399.318 197.77 399.483 197.926C399.658 198.072 399.955 198.145 400.373 198.145H401.205V199.458H400.008ZM411.138 199.633C410.126 199.633 409.251 199.414 408.511 198.976C407.782 198.529 407.217 197.911 406.819 197.123C406.42 196.325 406.22 195.406 406.22 194.365C406.22 193.314 406.42 192.395 406.819 191.607C407.217 190.809 407.782 190.186 408.511 189.739C409.251 189.291 410.126 189.067 411.138 189.067C412.335 189.067 413.313 189.359 414.072 189.943C414.83 190.527 415.312 191.344 415.516 192.395H413.794C413.658 191.801 413.366 191.329 412.919 190.979C412.471 190.629 411.873 190.454 411.124 190.454C410.102 190.454 409.295 190.804 408.701 191.505C408.108 192.195 407.811 193.149 407.811 194.365C407.811 195.571 408.108 196.52 408.701 197.211C409.295 197.901 410.102 198.247 411.124 198.247C411.873 198.247 412.471 198.081 412.919 197.751C413.366 197.42 413.658 196.967 413.794 196.393H415.516C415.312 197.405 414.83 198.198 414.072 198.772C413.313 199.346 412.335 199.633 411.138 199.633ZM419.598 199.633C418.985 199.633 418.48 199.531 418.081 199.327C417.682 199.122 417.385 198.855 417.19 198.524C416.996 198.184 416.899 197.814 416.899 197.415C416.899 196.714 417.171 196.16 417.716 195.751C418.261 195.343 419.039 195.138 420.051 195.138H421.948V195.007C421.948 194.443 421.792 194.02 421.481 193.737C421.179 193.455 420.785 193.314 420.299 193.314C419.871 193.314 419.496 193.421 419.175 193.635C418.864 193.84 418.674 194.146 418.606 194.555H417.059C417.108 194.029 417.283 193.582 417.584 193.212C417.896 192.833 418.285 192.546 418.752 192.351C419.229 192.147 419.749 192.045 420.313 192.045C421.325 192.045 422.108 192.312 422.663 192.847C423.218 193.373 423.495 194.092 423.495 195.007V199.458H422.152L422.021 198.218C421.817 198.616 421.52 198.952 421.131 199.225C420.742 199.497 420.231 199.633 419.598 199.633ZM419.905 198.378C420.323 198.378 420.673 198.281 420.956 198.086C421.247 197.882 421.471 197.614 421.627 197.284C421.792 196.953 421.894 196.588 421.933 196.189H420.211C419.598 196.189 419.161 196.296 418.898 196.51C418.645 196.724 418.518 196.992 418.518 197.313C418.518 197.644 418.64 197.906 418.883 198.101C419.136 198.286 419.477 198.378 419.905 198.378ZM425.287 199.458V192.22H426.673L426.805 193.591C427.058 193.115 427.408 192.74 427.855 192.468C428.313 192.186 428.862 192.045 429.504 192.045V193.664H429.081C428.653 193.664 428.269 193.737 427.928 193.883C427.597 194.02 427.33 194.258 427.126 194.598C426.931 194.929 426.834 195.391 426.834 195.985V199.458H425.287ZM433.918 199.633C433.217 199.633 432.599 199.468 432.064 199.137C431.529 198.806 431.111 198.354 430.809 197.78C430.508 197.206 430.357 196.554 430.357 195.824C430.357 195.095 430.508 194.448 430.809 193.883C431.111 193.309 431.529 192.862 432.064 192.541C432.609 192.21 433.232 192.045 433.932 192.045C434.506 192.045 435.007 192.156 435.435 192.38C435.873 192.604 436.214 192.92 436.457 193.329V188.951H438.004V199.458H436.617L436.457 198.334C436.223 198.675 435.902 198.976 435.494 199.239C435.085 199.502 434.56 199.633 433.918 199.633ZM434.195 198.291C434.856 198.291 435.396 198.062 435.815 197.605C436.243 197.147 436.457 196.559 436.457 195.839C436.457 195.109 436.243 194.521 435.815 194.073C435.396 193.616 434.856 193.387 434.195 193.387C433.533 193.387 432.988 193.616 432.56 194.073C432.132 194.521 431.918 195.109 431.918 195.839C431.918 196.316 432.016 196.739 432.21 197.108C432.405 197.478 432.672 197.77 433.013 197.984C433.363 198.188 433.757 198.291 434.195 198.291Z" fill="white"/>
<path d="M97.0197 229.213V227.403C97.8499 226.716 98.6542 226.035 99.4325 225.36C100.224 224.686 100.924 224.018 101.534 223.356C102.157 222.695 102.65 222.052 103.013 221.43C103.389 220.794 103.577 220.178 103.577 219.581C103.577 219.024 103.421 218.531 103.11 218.102C102.812 217.674 102.312 217.46 101.612 217.46C100.898 217.46 100.36 217.694 99.9968 218.161C99.6336 218.628 99.452 219.192 99.452 219.854H97.0392C97.0651 218.855 97.2856 218.025 97.7007 217.363C98.1158 216.689 98.6672 216.189 99.3547 215.865C100.042 215.528 100.814 215.359 101.67 215.359C103.058 215.359 104.135 215.742 104.9 216.507C105.679 217.259 106.068 218.239 106.068 219.445C106.068 220.197 105.893 220.93 105.542 221.644C105.205 222.357 104.758 223.045 104.2 223.706C103.642 224.368 103.039 224.991 102.39 225.574C101.742 226.145 101.112 226.677 100.503 227.17H106.398V229.213H97.0197ZM114.581 229.213V226.683H107.868V224.699L114.25 215.592H117.071V224.524H118.861V226.683H117.071V229.213H114.581ZM110.533 224.524H114.736V218.336L110.533 224.524ZM120.547 229.213V227.403C121.377 226.716 122.181 226.035 122.96 225.36C123.751 224.686 124.452 224.018 125.061 223.356C125.684 222.695 126.177 222.052 126.54 221.43C126.916 220.794 127.104 220.178 127.104 219.581C127.104 219.024 126.949 218.531 126.637 218.102C126.339 217.674 125.84 217.46 125.139 217.46C124.426 217.46 123.887 217.694 123.524 218.161C123.161 218.628 122.979 219.192 122.979 219.854H120.566C120.592 218.855 120.813 218.025 121.228 217.363C121.643 216.689 122.194 216.189 122.882 215.865C123.569 215.528 124.341 215.359 125.197 215.359C126.585 215.359 127.662 215.742 128.427 216.507C129.206 217.259 129.595 218.239 129.595 219.445C129.595 220.197 129.42 220.93 129.07 221.644C128.732 222.357 128.285 223.045 127.727 223.706C127.169 224.368 126.566 224.991 125.917 225.574C125.269 226.145 124.64 226.677 124.03 227.17H129.926V229.213H120.547ZM136.508 229.447C135.613 229.447 134.802 229.291 134.076 228.98C133.349 228.655 132.766 228.162 132.325 227.501C131.884 226.839 131.65 226.009 131.624 225.01H134.076C134.089 225.672 134.303 226.229 134.718 226.683C135.146 227.125 135.743 227.345 136.508 227.345C137.235 227.345 137.792 227.144 138.182 226.742C138.571 226.34 138.765 225.834 138.765 225.224C138.765 224.511 138.506 223.972 137.987 223.609C137.481 223.233 136.826 223.045 136.022 223.045H135.01V221.002H136.041C136.703 221.002 137.254 220.846 137.695 220.535C138.136 220.223 138.357 219.763 138.357 219.153C138.357 218.647 138.188 218.245 137.851 217.947C137.526 217.635 137.072 217.48 136.489 217.48C135.853 217.48 135.354 217.668 134.99 218.044C134.64 218.42 134.446 218.881 134.407 219.426H131.974C132.026 218.167 132.461 217.175 133.278 216.449C134.108 215.722 135.179 215.359 136.489 215.359C137.423 215.359 138.208 215.528 138.843 215.865C139.492 216.189 139.978 216.624 140.302 217.169C140.64 217.713 140.808 218.317 140.808 218.978C140.808 219.743 140.594 220.392 140.166 220.924C139.751 221.443 139.232 221.793 138.61 221.975C139.375 222.13 139.998 222.506 140.478 223.103C140.958 223.687 141.198 224.426 141.198 225.321C141.198 226.074 141.016 226.761 140.653 227.384C140.29 228.007 139.758 228.506 139.057 228.882C138.37 229.258 137.52 229.447 136.508 229.447ZM162.242 229.447C161.347 229.447 160.537 229.291 159.81 228.98C159.084 228.655 158.5 228.162 158.059 227.501C157.618 226.839 157.384 226.009 157.358 225.01H159.81C159.823 225.672 160.037 226.229 160.452 226.683C160.88 227.125 161.477 227.345 162.242 227.345C162.969 227.345 163.527 227.144 163.916 226.742C164.305 226.34 164.5 225.834 164.5 225.224C164.5 224.511 164.24 223.972 163.721 223.609C163.215 223.233 162.56 223.045 161.756 223.045H160.744V221.002H161.775C162.437 221.002 162.988 220.846 163.429 220.535C163.87 220.223 164.091 219.763 164.091 219.153C164.091 218.647 163.922 218.245 163.585 217.947C163.261 217.635 162.807 217.48 162.223 217.48C161.587 217.48 161.088 217.668 160.725 218.044C160.374 218.42 160.18 218.881 160.141 219.426H157.709C157.761 218.167 158.195 217.175 159.012 216.449C159.843 215.722 160.913 215.359 162.223 215.359C163.157 215.359 163.942 215.528 164.577 215.865C165.226 216.189 165.712 216.624 166.037 217.169C166.374 217.713 166.543 218.317 166.543 218.978C166.543 219.743 166.329 220.392 165.9 220.924C165.485 221.443 164.967 221.793 164.344 221.975C165.109 222.13 165.732 222.506 166.212 223.103C166.692 223.687 166.932 224.426 166.932 225.321C166.932 226.074 166.75 226.761 166.387 227.384C166.024 228.007 165.492 228.506 164.791 228.882C164.104 229.258 163.254 229.447 162.242 229.447ZM174.32 229.447C173.321 229.447 172.459 229.271 171.732 228.921C171.019 228.571 170.454 228.091 170.039 227.481C169.637 226.859 169.404 226.158 169.339 225.38H171.771C171.888 225.938 172.173 226.405 172.627 226.781C173.081 227.144 173.646 227.326 174.32 227.326C175.046 227.326 175.637 227.06 176.091 226.528C176.558 225.996 176.791 225.334 176.791 224.543C176.791 223.726 176.558 223.077 176.091 222.597C175.637 222.117 175.059 221.877 174.359 221.877C173.775 221.877 173.269 222.02 172.841 222.305C172.413 222.591 172.108 222.948 171.927 223.376H169.533L170.701 215.592H178.251V217.772H172.569L171.946 220.924C172.232 220.613 172.621 220.36 173.114 220.165C173.607 219.957 174.158 219.854 174.768 219.854C175.74 219.854 176.551 220.074 177.2 220.515C177.848 220.943 178.341 221.514 178.679 222.228C179.016 222.928 179.185 223.693 179.185 224.524C179.185 225.471 178.977 226.314 178.562 227.053C178.16 227.793 177.589 228.376 176.85 228.804C176.123 229.233 175.28 229.447 174.32 229.447ZM186.367 229.447C185.433 229.447 184.59 229.284 183.837 228.96C183.085 228.623 182.482 228.149 182.028 227.54C181.587 226.93 181.366 226.223 181.366 225.419C181.366 224.589 181.58 223.862 182.008 223.239C182.449 222.617 183.027 222.169 183.74 221.897C183.117 221.624 182.624 221.235 182.261 220.729C181.898 220.21 181.716 219.633 181.716 218.998C181.716 218.349 181.892 217.752 182.242 217.207C182.592 216.65 183.111 216.202 183.798 215.865C184.499 215.528 185.355 215.359 186.367 215.359C187.379 215.359 188.228 215.528 188.916 215.865C189.603 216.202 190.122 216.65 190.473 217.207C190.823 217.752 190.998 218.349 190.998 218.998C190.998 219.62 190.81 220.197 190.434 220.729C190.07 221.248 189.584 221.637 188.974 221.897C189.701 222.169 190.278 222.617 190.706 223.239C191.134 223.862 191.348 224.589 191.348 225.419C191.348 226.223 191.128 226.93 190.687 227.54C190.246 228.149 189.642 228.623 188.877 228.96C188.125 229.284 187.288 229.447 186.367 229.447ZM186.367 221.157C187.041 221.157 187.573 220.982 187.962 220.632C188.352 220.282 188.546 219.834 188.546 219.289C188.546 218.693 188.352 218.226 187.962 217.888C187.586 217.551 187.054 217.383 186.367 217.383C185.666 217.383 185.128 217.551 184.752 217.888C184.376 218.226 184.188 218.693 184.188 219.289C184.188 219.847 184.376 220.301 184.752 220.651C185.141 220.989 185.679 221.157 186.367 221.157ZM186.367 227.365C187.197 227.365 187.826 227.163 188.254 226.761C188.682 226.346 188.896 225.827 188.896 225.205C188.896 224.517 188.669 223.979 188.215 223.59C187.774 223.201 187.158 223.006 186.367 223.006C185.576 223.006 184.946 223.201 184.479 223.59C184.025 223.979 183.798 224.517 183.798 225.205C183.798 225.827 184.012 226.346 184.441 226.761C184.882 227.163 185.524 227.365 186.367 227.365ZM194.955 229.213V218.433L192.717 218.959V217.052L196.006 215.592H197.543V229.213H194.955ZM218.978 229.447C218.031 229.447 217.233 229.265 216.584 228.902C215.936 228.526 215.43 228.039 215.066 227.442C214.703 226.846 214.489 226.204 214.424 225.516H216.74C216.844 226.113 217.09 226.573 217.479 226.898C217.881 227.222 218.387 227.384 218.997 227.384C219.866 227.384 220.567 226.988 221.098 226.197C221.63 225.393 221.916 224.173 221.955 222.539C221.643 223.071 221.17 223.512 220.534 223.862C219.912 224.212 219.224 224.387 218.472 224.387C217.719 224.387 217.012 224.206 216.351 223.843C215.689 223.479 215.151 222.967 214.736 222.305C214.321 221.644 214.113 220.866 214.113 219.97C214.113 219.153 214.314 218.394 214.716 217.694C215.118 216.993 215.676 216.429 216.39 216.001C217.103 215.573 217.94 215.359 218.9 215.359C219.924 215.359 220.787 215.547 221.488 215.923C222.188 216.299 222.746 216.805 223.161 217.441C223.589 218.077 223.894 218.784 224.076 219.562C224.27 220.34 224.367 221.138 224.367 221.955C224.367 223.473 224.153 224.796 223.725 225.925C223.31 227.04 222.694 227.909 221.877 228.532C221.073 229.142 220.106 229.447 218.978 229.447ZM219.055 222.286C219.535 222.286 219.97 222.182 220.359 221.975C220.748 221.754 221.053 221.469 221.274 221.118C221.494 220.755 221.604 220.353 221.604 219.912C221.604 219.212 221.358 218.634 220.865 218.18C220.385 217.726 219.775 217.499 219.036 217.499C218.309 217.499 217.706 217.726 217.226 218.18C216.746 218.621 216.506 219.186 216.506 219.873C216.506 220.6 216.746 221.183 217.226 221.624C217.706 222.065 218.316 222.286 219.055 222.286ZM231.602 229.447C230.603 229.447 229.74 229.271 229.014 228.921C228.3 228.571 227.736 228.091 227.321 227.481C226.919 226.859 226.685 226.158 226.62 225.38H229.053C229.169 225.938 229.455 226.405 229.909 226.781C230.363 227.144 230.927 227.326 231.602 227.326C232.328 227.326 232.918 227.06 233.372 226.528C233.839 225.996 234.073 225.334 234.073 224.543C234.073 223.726 233.839 223.077 233.372 222.597C232.918 222.117 232.341 221.877 231.641 221.877C231.057 221.877 230.551 222.02 230.123 222.305C229.695 222.591 229.39 222.948 229.208 223.376H226.815L227.982 215.592H235.532V217.772H229.85L229.228 220.924C229.513 220.613 229.902 220.36 230.395 220.165C230.888 219.957 231.44 219.854 232.049 219.854C233.022 219.854 233.833 220.074 234.481 220.515C235.13 220.943 235.623 221.514 235.96 222.228C236.298 222.928 236.466 223.693 236.466 224.524C236.466 225.471 236.259 226.314 235.844 227.053C235.441 227.793 234.871 228.376 234.131 228.804C233.405 229.233 232.562 229.447 231.602 229.447ZM244.427 229.447C243.169 229.447 242.092 229.155 241.197 228.571C240.302 227.974 239.608 227.15 239.115 226.1C238.635 225.036 238.395 223.804 238.395 222.403C238.395 221.015 238.635 219.789 239.115 218.725C239.608 217.661 240.302 216.838 241.197 216.254C242.092 215.657 243.169 215.359 244.427 215.359C245.685 215.359 246.762 215.657 247.657 216.254C248.552 216.838 249.239 217.661 249.719 218.725C250.212 219.789 250.459 221.015 250.459 222.403C250.459 223.804 250.212 225.036 249.719 226.1C249.239 227.15 248.552 227.974 247.657 228.571C246.762 229.155 245.685 229.447 244.427 229.447ZM244.427 227.209C245.452 227.209 246.288 226.781 246.937 225.925C247.586 225.068 247.91 223.895 247.91 222.403C247.91 220.911 247.586 219.737 246.937 218.881C246.288 218.025 245.452 217.597 244.427 217.597C243.389 217.597 242.546 218.025 241.897 218.881C241.262 219.737 240.944 220.911 240.944 222.403C240.944 223.895 241.262 225.068 241.897 225.925C242.546 226.781 243.389 227.209 244.427 227.209ZM257.171 229.447C256.276 229.447 255.465 229.291 254.739 228.98C254.012 228.655 253.429 228.162 252.988 227.501C252.547 226.839 252.313 226.009 252.287 225.01H254.739C254.752 225.672 254.966 226.229 255.381 226.683C255.809 227.125 256.406 227.345 257.171 227.345C257.898 227.345 258.455 227.144 258.845 226.742C259.234 226.34 259.428 225.834 259.428 225.224C259.428 224.511 259.169 223.972 258.65 223.609C258.144 223.233 257.489 223.045 256.685 223.045H255.673V221.002H256.704C257.366 221.002 257.917 220.846 258.358 220.535C258.799 220.223 259.02 219.763 259.02 219.153C259.02 218.647 258.851 218.245 258.514 217.947C258.189 217.635 257.735 217.48 257.152 217.48C256.516 217.48 256.017 217.668 255.653 218.044C255.303 218.42 255.109 218.881 255.07 219.426H252.637C252.689 218.167 253.124 217.175 253.941 216.449C254.771 215.722 255.841 215.359 257.152 215.359C258.086 215.359 258.87 215.528 259.506 215.865C260.155 216.189 260.641 216.624 260.965 217.169C261.303 217.713 261.471 218.317 261.471 218.978C261.471 219.743 261.257 220.392 260.829 220.924C260.414 221.443 259.895 221.793 259.273 221.975C260.038 222.13 260.661 222.506 261.141 223.103C261.621 223.687 261.861 224.426 261.861 225.321C261.861 226.074 261.679 226.761 261.316 227.384C260.952 228.007 260.421 228.506 259.72 228.882C259.033 229.258 258.183 229.447 257.171 229.447ZM278.119 229.213V227.403C278.949 226.716 279.753 226.035 280.531 225.36C281.323 224.686 282.023 224.018 282.633 223.356C283.256 222.695 283.749 222.052 284.112 221.43C284.488 220.794 284.676 220.178 284.676 219.581C284.676 219.024 284.52 218.531 284.209 218.102C283.911 217.674 283.411 217.46 282.711 217.46C281.997 217.46 281.459 217.694 281.096 218.161C280.733 218.628 280.551 219.192 280.551 219.854H278.138C278.164 218.855 278.385 218.025 278.8 217.363C279.215 216.689 279.766 216.189 280.454 215.865C281.141 215.528 281.913 215.359 282.769 215.359C284.157 215.359 285.234 215.742 285.999 216.507C286.777 217.259 287.167 218.239 287.167 219.445C287.167 220.197 286.992 220.93 286.641 221.644C286.304 222.357 285.856 223.045 285.299 223.706C284.741 224.368 284.138 224.991 283.489 225.574C282.84 226.145 282.211 226.677 281.602 227.17H287.497V229.213H278.119ZM295.68 229.213V226.683H288.967V224.699L295.349 215.592H298.17V224.524H299.96V226.683H298.17V229.213H295.68ZM291.632 224.524H295.835V218.336L291.632 224.524ZM303.455 229.213V218.433L301.218 218.959V217.052L304.506 215.592H306.043V229.213H303.455ZM308.412 229.213V227.403C309.242 226.716 310.046 226.035 310.825 225.36C311.616 224.686 312.317 224.018 312.926 223.356C313.549 222.695 314.042 222.052 314.405 221.43C314.781 220.794 314.969 220.178 314.969 219.581C314.969 219.024 314.814 218.531 314.502 218.102C314.204 217.674 313.705 217.46 313.004 217.46C312.291 217.46 311.752 217.694 311.389 218.161C311.026 218.628 310.844 219.192 310.844 219.854H308.431C308.457 218.855 308.678 218.025 309.093 217.363C309.508 216.689 310.059 216.189 310.747 215.865C311.434 215.528 312.206 215.359 313.062 215.359C314.45 215.359 315.527 215.742 316.292 216.507C317.071 217.259 317.46 218.239 317.46 219.445C317.46 220.197 317.285 220.93 316.935 221.644C316.597 222.357 316.15 223.045 315.592 223.706C315.034 224.368 314.431 224.991 313.782 225.574C313.134 226.145 312.505 226.677 311.895 227.17H317.791V229.213H308.412Z" fill="white"/>
<path d="M96.4068 199.458L100.172 189.243H101.865L105.601 199.458H103.966L103.091 196.963H98.9169L98.0413 199.458H96.4068ZM99.3547 195.737H102.653L101.004 191.081L99.3547 195.737ZM106.955 199.458V192.22H108.327L108.444 193.489C108.668 193.042 108.993 192.691 109.422 192.439C109.859 192.176 110.36 192.044 110.925 192.044C111.8 192.044 112.486 192.317 112.982 192.862C113.488 193.407 113.741 194.219 113.741 195.299V199.458H112.209V195.459C112.209 194.058 111.635 193.358 110.487 193.358C109.913 193.358 109.436 193.562 109.057 193.971C108.687 194.379 108.502 194.963 108.502 195.722V199.458H106.955ZM118.85 199.633C118.149 199.633 117.531 199.468 116.996 199.137C116.461 198.806 116.043 198.354 115.741 197.78C115.44 197.206 115.289 196.554 115.289 195.824C115.289 195.095 115.44 194.448 115.741 193.883C116.043 193.309 116.461 192.862 116.996 192.541C117.541 192.21 118.164 192.044 118.864 192.044C119.438 192.044 119.939 192.156 120.367 192.38C120.805 192.604 121.146 192.92 121.389 193.329V188.951H122.936V199.458H121.549L121.389 198.334C121.155 198.675 120.834 198.976 120.426 199.239C120.017 199.502 119.492 199.633 118.85 199.633ZM119.127 198.291C119.788 198.291 120.328 198.062 120.747 197.605C121.175 197.147 121.389 196.559 121.389 195.839C121.389 195.109 121.175 194.521 120.747 194.073C120.328 193.616 119.788 193.387 119.127 193.387C118.465 193.387 117.921 193.616 117.492 194.073C117.064 194.521 116.85 195.109 116.85 195.839C116.85 196.316 116.948 196.739 117.142 197.108C117.337 197.478 117.604 197.77 117.945 197.984C118.295 198.188 118.689 198.291 119.127 198.291ZM128.26 199.633C127.55 199.633 126.918 199.477 126.363 199.166C125.818 198.845 125.39 198.402 125.079 197.838C124.768 197.274 124.612 196.617 124.612 195.868C124.612 195.109 124.763 194.443 125.064 193.869C125.376 193.295 125.804 192.847 126.348 192.526C126.903 192.205 127.545 192.044 128.275 192.044C128.985 192.044 129.603 192.205 130.128 192.526C130.654 192.837 131.062 193.256 131.354 193.781C131.646 194.306 131.792 194.885 131.792 195.518C131.792 195.615 131.787 195.722 131.777 195.839C131.777 195.946 131.772 196.067 131.763 196.204H126.13C126.178 196.904 126.407 197.439 126.815 197.809C127.234 198.169 127.715 198.349 128.26 198.349C128.698 198.349 129.063 198.252 129.355 198.057C129.656 197.853 129.88 197.58 130.026 197.24H131.573C131.378 197.921 130.989 198.49 130.406 198.947C129.831 199.404 129.116 199.633 128.26 199.633ZM128.26 193.314C127.745 193.314 127.287 193.47 126.888 193.781C126.49 194.083 126.246 194.54 126.159 195.153H130.245C130.216 194.589 130.016 194.141 129.647 193.81C129.277 193.48 128.815 193.314 128.26 193.314ZM133.385 199.458V192.22H134.772L134.903 193.591C135.156 193.115 135.506 192.74 135.954 192.468C136.411 192.186 136.961 192.044 137.603 192.044V193.664H137.18C136.752 193.664 136.367 193.737 136.027 193.883C135.696 194.019 135.428 194.258 135.224 194.598C135.029 194.929 134.932 195.391 134.932 195.985V199.458H133.385ZM141.807 199.633C140.892 199.633 140.138 199.409 139.545 198.962C138.951 198.514 138.611 197.921 138.523 197.181H140.085C140.163 197.512 140.348 197.799 140.639 198.042C140.931 198.276 141.316 198.393 141.792 198.393C142.259 198.393 142.6 198.295 142.814 198.101C143.028 197.906 143.135 197.682 143.135 197.43C143.135 197.06 142.984 196.812 142.683 196.685C142.391 196.549 141.982 196.427 141.457 196.32C141.048 196.233 140.639 196.116 140.231 195.97C139.832 195.824 139.496 195.62 139.224 195.357C138.961 195.085 138.83 194.72 138.83 194.263C138.83 193.63 139.073 193.105 139.56 192.687C140.046 192.259 140.727 192.044 141.603 192.044C142.41 192.044 143.062 192.239 143.558 192.628C144.064 193.017 144.361 193.567 144.448 194.277H142.96C142.911 193.966 142.765 193.723 142.522 193.548C142.289 193.372 141.972 193.285 141.573 193.285C141.184 193.285 140.883 193.368 140.669 193.533C140.455 193.689 140.348 193.893 140.348 194.146C140.348 194.399 140.494 194.598 140.785 194.744C141.087 194.89 141.481 195.022 141.967 195.138C142.454 195.245 142.901 195.372 143.31 195.518C143.728 195.654 144.064 195.858 144.317 196.131C144.57 196.403 144.696 196.802 144.696 197.327C144.706 197.989 144.448 198.539 143.923 198.976C143.407 199.414 142.702 199.633 141.807 199.633ZM149.759 199.633C149.068 199.633 148.446 199.477 147.891 199.166C147.346 198.845 146.914 198.402 146.592 197.838C146.271 197.264 146.111 196.598 146.111 195.839C146.111 195.08 146.271 194.418 146.592 193.854C146.923 193.28 147.366 192.837 147.92 192.526C148.475 192.205 149.093 192.044 149.774 192.044C150.465 192.044 151.082 192.205 151.627 192.526C152.182 192.837 152.62 193.28 152.941 193.854C153.271 194.418 153.437 195.08 153.437 195.839C153.437 196.598 153.271 197.264 152.941 197.838C152.62 198.402 152.182 198.845 151.627 199.166C151.073 199.477 150.45 199.633 149.759 199.633ZM149.759 198.305C150.129 198.305 150.469 198.213 150.781 198.028C151.102 197.843 151.36 197.571 151.554 197.211C151.749 196.841 151.846 196.384 151.846 195.839C151.846 195.294 151.749 194.842 151.554 194.482C151.369 194.112 151.116 193.835 150.795 193.65C150.484 193.465 150.144 193.372 149.774 193.372C149.404 193.372 149.059 193.465 148.738 193.65C148.426 193.835 148.173 194.112 147.979 194.482C147.784 194.842 147.687 195.294 147.687 195.839C147.687 196.384 147.784 196.841 147.979 197.211C148.173 197.571 148.426 197.843 148.738 198.028C149.049 198.213 149.39 198.305 149.759 198.305ZM155.098 199.458V192.22H156.47L156.587 193.489C156.81 193.042 157.136 192.691 157.564 192.439C158.002 192.176 158.503 192.044 159.067 192.044C159.943 192.044 160.629 192.317 161.125 192.862C161.631 193.407 161.884 194.219 161.884 195.299V199.458H160.352V195.459C160.352 194.058 159.778 193.358 158.63 193.358C158.056 193.358 157.579 193.562 157.2 193.971C156.83 194.379 156.645 194.963 156.645 195.722V199.458H155.098Z" fill="white"/>
</g>
<mask id="mask0_1_511" style="mask-type:alpha" maskUnits="userSpaceOnUse" x="79" y="164" width="377" height="208">
<path d="M79 184C79 172.954 87.9543 164 99 164H436C447.046 164 456 172.954 456 184V351.958C456 363.004 447.046 371.958 436 371.958H99C87.9543 371.958 79 363.004 79 351.958V184Z" fill="#C4C4C4"/>
</mask>
<g mask="url(#mask0_1_511)">
<path d="M162.534 268.587C98.9594 292.089 54.8201 346.419 18.5489 371.958C-1.96179 386.4 31.277 456.5 54.8201 449.79C127.362 429.116 165.925 365.931 236.176 340.339C312.133 312.668 347.172 310.704 414.234 262.506C444.525 240.737 444.23 211.063 477.983 196.836C501.065 187.106 530.034 187.685 527.444 159.136C522.988 110.015 456.628 126.719 414.234 142.11C364.511 160.161 363.206 186.855 317.511 215.077C261.485 249.68 223.391 246.09 162.534 268.587Z" fill="white" fill-opacity="0.1"/>
</g>
</g>
<defs>
<filter id="filter0_d_1_511" x="79" y="155" width="465" height="295.958" filterUnits="userSpaceOnUse" color-interpolation-filters="sRGB">
<feFlood flood-opacity="0" result="BackgroundImageFix"/>
<feColorMatrix in="SourceAlpha" type="matrix" values="0 0 0 0 0 0 0 0 0 0 0 0 0 0 0 0 0 0 127 0" result="hardAlpha"/>
<feOffset dx="44" dy="35"/>
<feGaussianBlur stdDeviation="22"/>
<feComposite in2="hardAlpha" operator="out"/>
<feColorMatrix type="matrix" values="0 0 0 0 0 0 0 0 0 0 0 0 0 0 0 0 0 0 0.08 0"/>
<feBlend mode="normal" in2="BackgroundImageFix" result="effect1_dropShadow_1_511"/>
<feBlend mode="normal" in="SourceGraphic" in2="effect1_dropShadow_1_511" result="shape"/>
</filter>
<filter id="filter1_d_1_511" x="60.7581" y="150.623" width="413.484" height="244.442" filterUnits="userSpaceOnUse" color-interpolation-filters="sRGB">
<feFlood flood-opacity="0" result="BackgroundImageFix"/>
<feColorMatrix in="SourceAlpha" type="matrix" values="0 0 0 0 0 0 0 0 0 0 0 0 0 0 0 0 0 0 127 0" result="hardAlpha"/>
<feOffset dy="4.86452"/>
<feGaussianBlur stdDeviation="9.12097"/>
<feColorMatrix type="matrix" values="0 0 0 0 0 0 0 0 0 0.102 0 0 0 0 0.3 0 0 0 0.15 0"/>
<feBlend mode="normal" in2="BackgroundImageFix" result="effect1_dropShadow_1_511"/>
<feBlend mode="normal" in="SourceGraphic" in2="effect1_dropShadow_1_511" result="shape"/>
</filter>
</defs>
</svg>
