<svg width="104" height="104" viewBox="0 0 104 104" fill="none" xmlns="http://www.w3.org/2000/svg">
<circle cx="52" cy="52" r="52" fill="#FBF5FF"/>
<path d="M54.9386 72.6409V76.3079H49.7244V72.4689C44.7336 71.9054 40.0548 69.7568 36.375 66.3385L40.5001 61.2392C43.0719 63.6869 46.2601 65.3902 49.7244 66.1673V54.9944C42.6766 53.1607 37.9218 50.6413 37.9218 43.8791C37.9218 37.6915 42.677 32.9342 49.7244 32.0764V28.5815H54.9386V32.1341C59.4109 32.5965 63.6223 34.4615 66.9705 37.4622L63.0735 42.7332C60.7613 40.6468 57.9653 39.17 54.9386 38.4365V49.2077C62.7878 50.9837 68.0016 53.6764 68.0016 60.6662C68.0016 67.2556 63.2459 72.068 54.9386 72.6409V72.6409ZM49.7244 47.8325V38.3217C46.9173 39.009 45.1404 41.0144 45.1404 43.2489C45.1404 45.5407 46.6304 46.7438 49.7244 47.8325ZM60.8397 61.3536C60.8397 58.7181 59.006 57.515 54.9386 56.3119V66.5106C58.8344 66.052 60.8397 63.8751 60.8397 61.3536Z" fill="#4E00B1"/>
</svg>
