<svg width="623" height="566" viewBox="0 0 623 566" fill="none" xmlns="http://www.w3.org/2000/svg">
<mask id="path-1-inside-1_1_491" fill="white">
<path d="M535 268C535 232.806 528.081 197.956 514.638 165.441C501.195 132.926 481.491 103.381 456.651 78.4954C431.811 53.6093 402.322 33.8685 369.868 20.4003C337.413 6.93202 302.629 -1.53839e-06 267.5 0C232.371 1.53839e-06 197.587 6.93203 165.132 20.4003C132.678 33.8686 103.189 53.6093 78.3489 78.4954C53.5093 103.382 33.8053 132.926 20.3622 165.441C6.91909 197.956 -3.07104e-06 232.806 0 268L267.5 268H535Z"/>
</mask>
<path d="M535 268C535 232.806 528.081 197.956 514.638 165.441C501.195 132.926 481.491 103.381 456.651 78.4954C431.811 53.6093 402.322 33.8685 369.868 20.4003C337.413 6.93202 302.629 -1.53839e-06 267.5 0C232.371 1.53839e-06 197.587 6.93203 165.132 20.4003C132.678 33.8686 103.189 53.6093 78.3489 78.4954C53.5093 103.382 33.8053 132.926 20.3622 165.441C6.91909 197.956 -3.07104e-06 232.806 0 268L267.5 268H535Z" stroke="#4E00B1" stroke-opacity="0.22" mask="url(#path-1-inside-1_1_491)"/>
<mask id="path-2-inside-2_1_491" fill="white">
<path d="M535 298C535 333.194 528.081 368.044 514.638 400.559C501.195 433.074 481.491 462.619 456.651 487.505C431.811 512.391 402.322 532.131 369.868 545.6C337.413 559.068 302.629 566 267.5 566C232.371 566 197.587 559.068 165.132 545.6C132.678 532.131 103.189 512.391 78.3489 487.505C53.5093 462.618 33.8053 433.074 20.3622 400.559C6.91909 368.044 -3.07104e-06 333.194 0 298L267.5 298H535Z"/>
</mask>
<path d="M535 298C535 333.194 528.081 368.044 514.638 400.559C501.195 433.074 481.491 462.619 456.651 487.505C431.811 512.391 402.322 532.131 369.868 545.6C337.413 559.068 302.629 566 267.5 566C232.371 566 197.587 559.068 165.132 545.6C132.678 532.131 103.189 512.391 78.3489 487.505C53.5093 462.618 33.8053 433.074 20.3622 400.559C6.91909 368.044 -3.07104e-06 333.194 0 298L267.5 298H535Z" stroke="#4E00B1" stroke-opacity="0.22" mask="url(#path-2-inside-2_1_491)"/>
<ellipse cx="267.5" cy="268" rx="238.5" ry="239" fill="white"/>
<g filter="url(#filter0_d_1_491)">
<rect x="67" y="358" width="322" height="79" rx="20" fill="white"/>
<rect x="80" y="370" width="57" height="57" rx="15" fill="#FBF5FF"/>
<path d="M150.598 390.432C150.694 392.77 152.61 394.211 155.528 394.211C158.596 394.211 160.529 392.699 160.529 390.291C160.529 388.401 159.439 387.338 156.864 386.749L155.405 386.415C153.85 386.046 153.208 385.554 153.208 384.71C153.208 383.655 154.175 382.952 155.607 382.952C157.058 382.952 158.051 383.664 158.156 384.851H160.318C160.266 382.618 158.42 381.106 155.625 381.106C152.865 381.106 150.905 382.627 150.905 384.877C150.905 386.688 152.013 387.812 154.351 388.349L155.994 388.735C157.594 389.113 158.244 389.641 158.244 390.555C158.244 391.609 157.181 392.365 155.651 392.365C154.104 392.365 152.936 391.601 152.795 390.432H150.598ZM162.085 394H164.273V388.647C164.273 387.276 165.073 386.362 166.392 386.362C167.657 386.362 168.308 387.145 168.308 388.445V394H170.496V387.997C170.496 385.861 169.292 384.508 167.235 384.508C165.82 384.508 164.792 385.149 164.291 386.283H164.247V381.317H162.085V394ZM176.376 394.185C179.109 394.185 180.885 392.365 180.885 389.342C180.885 386.327 179.092 384.49 176.376 384.49C173.66 384.49 171.867 386.336 171.867 389.342C171.867 392.365 173.643 394.185 176.376 394.185ZM176.376 392.453C174.987 392.453 174.091 391.328 174.091 389.342C174.091 387.364 174.996 386.23 176.376 386.23C177.765 386.23 178.661 387.364 178.661 389.342C178.661 391.328 177.765 392.453 176.376 392.453ZM187.406 384.525C186.053 384.525 184.998 385.211 184.471 386.292H184.427V384.684H182.291V397.067H184.479V392.453H184.523C185.033 393.499 186.088 394.149 187.441 394.149C189.779 394.149 191.273 392.312 191.273 389.342C191.273 386.362 189.771 384.525 187.406 384.525ZM186.738 392.356C185.376 392.356 184.471 391.17 184.462 389.342C184.471 387.531 185.376 386.327 186.738 386.327C188.153 386.327 189.032 387.505 189.032 389.342C189.032 391.188 188.153 392.356 186.738 392.356ZM197.795 384.525C196.441 384.525 195.387 385.211 194.859 386.292H194.815V384.684H192.68V397.067H194.868V392.453H194.912C195.422 393.499 196.477 394.149 197.83 394.149C200.168 394.149 201.662 392.312 201.662 389.342C201.662 386.362 200.159 384.525 197.795 384.525ZM197.127 392.356C195.765 392.356 194.859 391.17 194.851 389.342C194.859 387.531 195.765 386.327 197.127 386.327C198.542 386.327 199.421 387.505 199.421 389.342C199.421 391.188 198.542 392.356 197.127 392.356ZM203.121 394H205.31V384.684H203.121V394ZM204.211 383.462C204.896 383.462 205.433 382.935 205.433 382.275C205.433 381.607 204.896 381.08 204.211 381.08C203.534 381.08 202.998 381.607 202.998 382.275C202.998 382.935 203.534 383.462 204.211 383.462ZM207.146 394H209.335V388.604C209.335 387.268 210.135 386.362 211.392 386.362C212.64 386.362 213.255 387.101 213.255 388.419V394H215.443V387.979C215.443 385.826 214.274 384.508 212.218 384.508C210.785 384.508 209.792 385.176 209.291 386.283H209.247V384.684H207.146V394ZM221.314 392.269C219.935 392.269 219.056 391.161 219.056 389.315C219.056 387.487 219.935 386.327 221.314 386.327C222.712 386.327 223.617 387.505 223.617 389.315C223.617 391.135 222.712 392.269 221.314 392.269ZM221.306 397.516C224.021 397.516 225.806 396.074 225.806 393.851V384.684H223.661V386.283H223.626C223.09 385.211 222.018 384.525 220.69 384.525C218.309 384.525 216.814 386.362 216.814 389.307C216.814 392.207 218.344 394.009 220.646 394.009C221.982 394.009 223.081 393.341 223.564 392.339H223.617V393.912C223.617 395.099 222.8 395.898 221.376 395.898C220.339 395.898 219.539 395.415 219.302 394.703H217.131C217.351 396.338 219.003 397.516 221.306 397.516Z" fill="#1E1E1E"/>
<path d="M153.91 414V412.5H150.36V411.85L153.76 407H154.74V411.76H155.78V412.5H154.74V414H153.91ZM151.29 411.76H153.95V407.93L151.29 411.76ZM157.035 414.05C156.868 414.05 156.728 413.997 156.615 413.89C156.508 413.777 156.455 413.64 156.455 413.48C156.455 413.32 156.508 413.187 156.615 413.08C156.728 412.967 156.868 412.91 157.035 412.91C157.195 412.91 157.328 412.967 157.435 413.08C157.548 413.187 157.605 413.32 157.605 413.48C157.605 413.64 157.548 413.777 157.435 413.89C157.328 413.997 157.195 414.05 157.035 414.05ZM157.035 410.06C156.868 410.06 156.728 410.007 156.615 409.9C156.508 409.787 156.455 409.65 156.455 409.49C156.455 409.33 156.508 409.197 156.615 409.09C156.728 408.977 156.868 408.92 157.035 408.92C157.195 408.92 157.328 408.977 157.435 409.09C157.548 409.197 157.605 409.33 157.605 409.49C157.605 409.65 157.548 409.787 157.435 409.9C157.328 410.007 157.195 410.06 157.035 410.06ZM160.967 414.12C160.52 414.12 160.117 414.04 159.757 413.88C159.397 413.713 159.107 413.467 158.887 413.14C158.674 412.813 158.56 412.407 158.547 411.92H159.397C159.404 412.32 159.544 412.667 159.817 412.96C160.09 413.247 160.474 413.39 160.967 413.39C161.46 413.39 161.83 413.253 162.077 412.98C162.33 412.707 162.457 412.377 162.457 411.99C162.457 411.663 162.377 411.397 162.217 411.19C162.064 410.983 161.854 410.83 161.587 410.73C161.327 410.63 161.04 410.58 160.727 410.58H160.207V409.87H160.727C161.18 409.87 161.534 409.767 161.787 409.56C162.047 409.353 162.177 409.063 162.177 408.69C162.177 408.377 162.074 408.12 161.867 407.92C161.667 407.713 161.367 407.61 160.967 407.61C160.58 407.61 160.27 407.727 160.037 407.96C159.804 408.187 159.674 408.473 159.647 408.82H158.797C158.817 408.44 158.917 408.103 159.097 407.81C159.284 407.517 159.537 407.29 159.857 407.13C160.177 406.963 160.547 406.88 160.967 406.88C161.42 406.88 161.797 406.96 162.097 407.12C162.404 407.28 162.634 407.493 162.787 407.76C162.947 408.027 163.027 408.32 163.027 408.64C163.027 408.993 162.93 409.317 162.737 409.61C162.544 409.897 162.254 410.09 161.867 410.19C162.28 410.277 162.624 410.473 162.897 410.78C163.17 411.087 163.307 411.49 163.307 411.99C163.307 412.377 163.217 412.733 163.037 413.06C162.864 413.38 162.604 413.637 162.257 413.83C161.91 414.023 161.48 414.12 160.967 414.12ZM167.836 414V412.5H164.286V411.85L167.686 407H168.666V411.76H169.706V412.5H168.666V414H167.836ZM165.216 411.76H167.876V407.93L165.216 411.76ZM173.367 414V407H175.667C176.214 407 176.664 407.09 177.017 407.27C177.37 407.45 177.63 407.693 177.797 408C177.97 408.307 178.057 408.653 178.057 409.04C178.057 409.42 177.974 409.763 177.807 410.07C177.64 410.377 177.38 410.623 177.027 410.81C176.674 410.99 176.22 411.08 175.667 411.08H174.207V414H173.367ZM174.207 410.37H175.647C176.207 410.37 176.604 410.253 176.837 410.02C177.077 409.78 177.197 409.453 177.197 409.04C177.197 408.62 177.077 408.293 176.837 408.06C176.604 407.82 176.207 407.7 175.647 407.7H174.207V410.37ZM179.158 414V407H180.138L182.658 411.88L185.158 407H186.148V414H185.308V408.5L182.968 413H182.338L179.998 408.51V414H179.158Z" fill="#1E1E1E"/>
<path d="M327.527 409.086C327.527 408.297 328.128 407.82 328.941 407.719V410.469C328.839 410.445 328.745 410.414 328.66 410.383C327.902 410.117 327.527 409.672 327.527 409.086ZM331.66 414.008C331.66 414.867 331.011 415.406 330.097 415.484V412.523C330.16 412.539 330.222 412.555 330.277 412.57C331.269 412.859 331.66 413.32 331.66 414.008ZM330.105 418.008V417.016C332.167 416.82 333.542 415.703 333.542 413.828C333.542 412.008 332.331 411.219 330.745 410.859L330.097 410.711V407.727C330.995 407.867 331.511 408.508 331.535 409.211H333.347C333.316 407.562 332.019 406.391 330.12 406.195V405.18H328.917V406.188C327.074 406.367 325.628 407.375 325.628 409.227C325.628 410.969 326.894 411.836 328.285 412.148L328.941 412.305V415.477C327.87 415.336 327.308 414.711 327.261 413.93H325.41C325.425 415.375 326.417 416.844 328.91 417.031L328.902 418.008H330.105ZM335.09 414.094C335.153 415.781 336.52 417.203 338.981 417.203C341.395 417.203 343.145 415.719 343.145 413.375C343.145 411.188 341.489 409.852 339.629 409.852C338.372 409.852 337.59 410.414 337.348 410.766H337.262L337.52 408.133H342.364V406.328H335.723L335.231 412.609H337.223C337.45 412.125 338.028 411.539 339.043 411.539C340.114 411.539 340.934 412.312 340.934 413.477C340.934 414.703 339.989 415.43 339.036 415.43C338.02 415.43 337.293 414.914 337.168 414.094H335.09ZM344.443 415.898C344.443 416.594 345.021 417.172 345.716 417.172C346.42 417.172 346.99 416.594 346.99 415.898C346.99 415.195 346.42 414.625 345.716 414.625C345.021 414.625 344.443 415.195 344.443 415.898ZM352.679 415.602C351.577 415.602 350.725 414.914 350.725 413.906C350.725 412.891 351.577 412.195 352.679 412.195C353.788 412.195 354.632 412.891 354.632 413.906C354.632 414.914 353.788 415.602 352.679 415.602ZM352.679 410.695C351.757 410.695 351.061 410.086 351.061 409.211C351.061 408.344 351.757 407.75 352.679 407.75C353.608 407.75 354.296 408.344 354.296 409.211C354.296 410.086 353.608 410.695 352.679 410.695ZM352.663 417.203C355.225 417.203 356.874 415.906 356.874 414.055C356.874 412.375 355.616 411.594 354.624 411.406V411.336C355.546 411.055 356.46 410.336 356.46 408.953C356.46 407.328 354.968 406.133 352.679 406.133C350.389 406.133 348.905 407.328 348.905 408.953C348.905 410.32 349.788 411.047 350.733 411.336V411.406C349.749 411.594 348.475 412.367 348.475 414.062C348.475 415.914 350.1 417.203 352.663 417.203ZM362.094 406.336C360.68 408.586 359.258 410.93 358.031 413.258V415.07H363.188V417H365.305V415.07H366.586V413.266H365.305V406.336H362.094ZM360.047 413.266V413.242C360.977 411.461 362.047 409.672 363.102 408.008H363.188V413.266H360.047Z" fill="#4E00B1"/>
<path fill-rule="evenodd" clip-rule="evenodd" d="M356.704 390.69L365.5 381.895L366.56 382.955L357.764 391.751L364.439 391.751L364.439 393.251H355.204V384.016L356.704 384.016V390.69Z" fill="#4E00B1"/>
</g>
<g filter="url(#filter1_d_1_491)">
<rect x="49" y="184" width="158" height="166" rx="19.305" fill="white"/>
</g>
<path d="M84.1908 224.358H81.3594V227.189H84.1908V224.358Z" fill="#1E1E1E"/>
<path d="M87.0222 224.358H84.1908V227.189H87.0222V224.358Z" fill="#1E1E1E"/>
<path d="M89.8536 224.358H87.0222V227.189H89.8536V224.358Z" fill="#1E1E1E"/>
<path d="M92.6849 224.358H89.8536V227.189H92.6849V224.358Z" fill="#1E1E1E"/>
<path d="M95.5163 224.358H92.6849V227.189H95.5163V224.358Z" fill="#1E1E1E"/>
<path d="M98.3477 224.358H95.5163V227.189H98.3477V224.358Z" fill="#1E1E1E"/>
<path d="M101.179 224.358H98.3477V227.189H101.179V224.358Z" fill="#1E1E1E"/>
<path d="M106.842 224.358H104.011V227.189H106.842V224.358Z" fill="#1E1E1E"/>
<path d="M109.673 224.358H106.842V227.189H109.673V224.358Z" fill="#1E1E1E"/>
<path d="M115.336 224.358H112.505V227.189H115.336V224.358Z" fill="#1E1E1E"/>
<path d="M118.167 224.358H115.336V227.189H118.167V224.358Z" fill="#1E1E1E"/>
<path d="M123.83 224.358H120.999V227.189H123.83V224.358Z" fill="#1E1E1E"/>
<path d="M126.662 224.358H123.83V227.189H126.662V224.358Z" fill="#1E1E1E"/>
<path d="M129.493 224.358H126.662V227.189H129.493V224.358Z" fill="#1E1E1E"/>
<path d="M132.324 224.358H129.493V227.189H132.324V224.358Z" fill="#1E1E1E"/>
<path d="M135.156 224.358H132.324V227.189H135.156V224.358Z" fill="#1E1E1E"/>
<path d="M146.481 224.358H143.65V227.189H146.481V224.358Z" fill="#1E1E1E"/>
<path d="M152.144 224.358H149.313V227.189H152.144V224.358Z" fill="#1E1E1E"/>
<path d="M157.807 224.358H154.976V227.189H157.807V224.358Z" fill="#1E1E1E"/>
<path d="M160.638 224.358H157.807V227.189H160.638V224.358Z" fill="#1E1E1E"/>
<path d="M163.47 224.358H160.638V227.189H163.47V224.358Z" fill="#1E1E1E"/>
<path d="M166.301 224.358H163.47V227.189H166.301V224.358Z" fill="#1E1E1E"/>
<path d="M169.133 224.358H166.301V227.189H169.133V224.358Z" fill="#1E1E1E"/>
<path d="M171.964 224.358H169.133V227.189H171.964V224.358Z" fill="#1E1E1E"/>
<path d="M174.795 224.358H171.964V227.189H174.795V224.358Z" fill="#1E1E1E"/>
<path d="M84.1908 227.189H81.3594V230.021H84.1908V227.189Z" fill="#1E1E1E"/>
<path d="M101.179 227.189H98.3477V230.021H101.179V227.189Z" fill="#1E1E1E"/>
<path d="M109.673 227.189H106.842V230.021H109.673V227.189Z" fill="#1E1E1E"/>
<path d="M112.505 227.189H109.673V230.021H112.505V227.189Z" fill="#1E1E1E"/>
<path d="M118.167 227.189H115.336V230.021H118.167V227.189Z" fill="#1E1E1E"/>
<path d="M129.493 227.189H126.662V230.021H129.493V227.189Z" fill="#1E1E1E"/>
<path d="M132.324 227.189H129.493V230.021H132.324V227.189Z" fill="#1E1E1E"/>
<path d="M137.987 227.189H135.156L135.156 230.021H137.987V227.189Z" fill="#1E1E1E"/>
<path d="M146.481 227.189H143.65V230.021H146.481V227.189Z" fill="#1E1E1E"/>
<path d="M149.313 227.189H146.481V230.021H149.313V227.189Z" fill="#1E1E1E"/>
<path d="M157.807 227.189H154.976V230.021H157.807V227.189Z" fill="#1E1E1E"/>
<path d="M174.795 227.189H171.964V230.021H174.795V227.189Z" fill="#1E1E1E"/>
<path d="M84.1908 230.021H81.3594V232.852H84.1908V230.021Z" fill="#1E1E1E"/>
<path d="M89.8536 230.021H87.0222V232.852H89.8536V230.021Z" fill="#1E1E1E"/>
<path d="M92.6849 230.021H89.8536V232.852H92.6849V230.021Z" fill="#1E1E1E"/>
<path d="M95.5163 230.021H92.6849V232.852H95.5163V230.021Z" fill="#1E1E1E"/>
<path d="M101.179 230.021H98.3477V232.852H101.179V230.021Z" fill="#1E1E1E"/>
<path d="M109.673 230.021H106.842V232.852H109.673V230.021Z" fill="#1E1E1E"/>
<path d="M118.167 230.021H115.336V232.852H118.167V230.021Z" fill="#1E1E1E"/>
<path d="M123.83 230.021H120.999V232.852H123.83V230.021Z" fill="#1E1E1E"/>
<path d="M129.493 230.021H126.662V232.852H129.493V230.021Z" fill="#1E1E1E"/>
<path d="M137.987 230.021H135.156V232.852H137.987V230.021Z" fill="#1E1E1E"/>
<path d="M143.65 230.021H140.819V232.852H143.65V230.021Z" fill="#1E1E1E"/>
<path d="M146.481 230.021H143.65V232.852H146.481V230.021Z" fill="#1E1E1E"/>
<path d="M152.144 230.021H149.313V232.852H152.144V230.021Z" fill="#1E1E1E"/>
<path d="M157.807 230.021H154.976V232.852H157.807V230.021Z" fill="#1E1E1E"/>
<path d="M163.47 230.021H160.638V232.852H163.47V230.021Z" fill="#1E1E1E"/>
<path d="M166.301 230.021H163.47V232.852H166.301V230.021Z" fill="#1E1E1E"/>
<path d="M169.133 230.021H166.301V232.852H169.133V230.021Z" fill="#1E1E1E"/>
<path d="M174.795 230.021H171.964V232.852H174.795V230.021Z" fill="#1E1E1E"/>
<path d="M84.1908 232.852H81.3594V235.683H84.1908V232.852Z" fill="#1E1E1E"/>
<path d="M89.8536 232.852H87.0222V235.683H89.8536V232.852Z" fill="#1E1E1E"/>
<path d="M92.6849 232.852H89.8536V235.683H92.6849V232.852Z" fill="#1E1E1E"/>
<path d="M95.5163 232.852H92.6849V235.683H95.5163V232.852Z" fill="#1E1E1E"/>
<path d="M101.179 232.852H98.3477V235.683H101.179V232.852Z" fill="#1E1E1E"/>
<path d="M106.842 232.852H104.011V235.683H106.842V232.852Z" fill="#1E1E1E"/>
<path d="M109.673 232.852H106.842V235.683H109.673V232.852Z" fill="#1E1E1E"/>
<path d="M112.505 232.852H109.673V235.683H112.505V232.852Z" fill="#1E1E1E"/>
<path d="M123.83 232.852H120.999V235.683H123.83V232.852Z" fill="#1E1E1E"/>
<path d="M126.662 232.852H123.83V235.683H126.662V232.852Z" fill="#1E1E1E"/>
<path d="M129.493 232.852H126.662V235.683H129.493V232.852Z" fill="#1E1E1E"/>
<path d="M132.324 232.852H129.493V235.683H132.324V232.852Z" fill="#1E1E1E"/>
<path d="M146.481 232.852H143.65V235.683H146.481V232.852Z" fill="#1E1E1E"/>
<path d="M149.313 232.852H146.481V235.683H149.313V232.852Z" fill="#1E1E1E"/>
<path d="M157.807 232.852H154.976V235.683H157.807V232.852Z" fill="#1E1E1E"/>
<path d="M163.47 232.852H160.638V235.683H163.47V232.852Z" fill="#1E1E1E"/>
<path d="M166.301 232.852H163.47V235.683H166.301V232.852Z" fill="#1E1E1E"/>
<path d="M169.133 232.852H166.301V235.683H169.133V232.852Z" fill="#1E1E1E"/>
<path d="M174.795 232.852H171.964V235.683H174.795V232.852Z" fill="#1E1E1E"/>
<path d="M84.1908 235.683H81.3594V238.515H84.1908V235.683Z" fill="#1E1E1E"/>
<path d="M89.8536 235.683H87.0222V238.515H89.8536V235.683Z" fill="#1E1E1E"/>
<path d="M92.6849 235.683H89.8536V238.515H92.6849V235.683Z" fill="#1E1E1E"/>
<path d="M95.5163 235.683H92.6849V238.515H95.5163V235.683Z" fill="#1E1E1E"/>
<path d="M101.179 235.683H98.3477V238.515H101.179V235.683Z" fill="#1E1E1E"/>
<path d="M109.673 235.683H106.842V238.515H109.673V235.683Z" fill="#1E1E1E"/>
<path d="M115.336 235.683H112.505V238.515H115.336V235.683Z" fill="#1E1E1E"/>
<path d="M118.167 235.683H115.336V238.515H118.167V235.683Z" fill="#1E1E1E"/>
<path d="M123.83 235.683H120.999V238.515H123.83V235.683Z" fill="#1E1E1E"/>
<path d="M129.493 235.683H126.662V238.515H129.493V235.683Z" fill="#1E1E1E"/>
<path d="M135.156 235.683H132.324V238.515H135.156V235.683Z" fill="#1E1E1E"/>
<path d="M140.819 235.683H137.987V238.515H140.819V235.683Z" fill="#1E1E1E"/>
<path d="M157.807 235.683H154.976V238.515H157.807V235.683Z" fill="#1E1E1E"/>
<path d="M163.47 235.683H160.638V238.515H163.47V235.683Z" fill="#1E1E1E"/>
<path d="M166.301 235.683H163.47V238.515H166.301V235.683Z" fill="#1E1E1E"/>
<path d="M169.133 235.683H166.301V238.515H169.133V235.683Z" fill="#1E1E1E"/>
<path d="M174.795 235.683H171.964V238.515H174.795V235.683Z" fill="#1E1E1E"/>
<path d="M84.1908 238.515H81.3594V241.346H84.1908V238.515Z" fill="#1E1E1E"/>
<path d="M101.179 238.515H98.3477V241.346H101.179V238.515Z" fill="#1E1E1E"/>
<path d="M106.842 238.515H104.011V241.346H106.842V238.515Z" fill="#1E1E1E"/>
<path d="M112.505 238.515H109.673V241.346H112.505V238.515Z" fill="#1E1E1E"/>
<path d="M115.336 238.515H112.505V241.346H115.336V238.515Z" fill="#1E1E1E"/>
<path d="M118.167 238.515H115.336V241.346H118.167V238.515Z" fill="#1E1E1E"/>
<path d="M123.83 238.515H120.999V241.346H123.83V238.515Z" fill="#1E1E1E"/>
<path d="M129.493 238.515H126.662V241.346H129.493V238.515Z" fill="#1E1E1E"/>
<path d="M132.324 238.515H129.493V241.346H132.324V238.515Z" fill="#1E1E1E"/>
<path d="M135.156 238.515H132.324V241.346H135.156V238.515Z" fill="#1E1E1E"/>
<path d="M137.987 238.515H135.156V241.346H137.987V238.515Z" fill="#1E1E1E"/>
<path d="M140.819 238.515H137.987V241.346H140.819V238.515Z" fill="#1E1E1E"/>
<path d="M143.65 238.515H140.819V241.346H143.65V238.515Z" fill="#1E1E1E"/>
<path d="M157.807 238.515H154.976V241.346H157.807V238.515Z" fill="#1E1E1E"/>
<path d="M174.795 238.515H171.964V241.346H174.795V238.515Z" fill="#1E1E1E"/>
<path d="M84.1908 241.346H81.3594V244.178H84.1908V241.346Z" fill="#1E1E1E"/>
<path d="M87.0222 241.346H84.1908V244.178H87.0222V241.346Z" fill="#1E1E1E"/>
<path d="M89.8536 241.346H87.0222V244.178H89.8536V241.346Z" fill="#1E1E1E"/>
<path d="M92.6849 241.346H89.8536V244.178H92.6849V241.346Z" fill="#1E1E1E"/>
<path d="M95.5163 241.346H92.6849V244.178H95.5163V241.346Z" fill="#1E1E1E"/>
<path d="M98.3477 241.346H95.5163V244.178H98.3477V241.346Z" fill="#1E1E1E"/>
<path d="M101.179 241.346H98.3477V244.178H101.179V241.346Z" fill="#1E1E1E"/>
<path d="M106.842 241.346H104.011V244.178H106.842V241.346Z" fill="#1E1E1E"/>
<path d="M112.505 241.346H109.673V244.178H112.505V241.346Z" fill="#1E1E1E"/>
<path d="M118.167 241.346H115.336V244.178H118.167V241.346Z" fill="#1E1E1E"/>
<path d="M123.83 241.346H120.999V244.178H123.83V241.346Z" fill="#1E1E1E"/>
<path d="M129.493 241.346H126.662V244.178H129.493V241.346Z" fill="#1E1E1E"/>
<path d="M135.156 241.346H132.324V244.178H135.156V241.346Z" fill="#1E1E1E"/>
<path d="M140.819 241.346H137.987V244.178H140.819V241.346Z" fill="#1E1E1E"/>
<path d="M146.481 241.346H143.65V244.178H146.481V241.346Z" fill="#1E1E1E"/>
<path d="M152.144 241.346H149.313V244.178H152.144V241.346Z" fill="#1E1E1E"/>
<path d="M157.807 241.346H154.976V244.178H157.807V241.346Z" fill="#1E1E1E"/>
<path d="M160.638 241.346H157.807V244.178H160.638V241.346Z" fill="#1E1E1E"/>
<path d="M163.47 241.346H160.638V244.178H163.47V241.346Z" fill="#1E1E1E"/>
<path d="M166.301 241.346H163.47V244.178H166.301V241.346Z" fill="#1E1E1E"/>
<path d="M169.133 241.346H166.301V244.178H169.133V241.346Z" fill="#1E1E1E"/>
<path d="M171.964 241.346H169.133V244.178H171.964V241.346Z" fill="#1E1E1E"/>
<path d="M174.795 241.346H171.964V244.178H174.795V241.346Z" fill="#1E1E1E"/>
<path d="M109.673 244.178H106.842V247.009H109.673V244.178Z" fill="#1E1E1E"/>
<path d="M118.167 244.178H115.336V247.009H118.167V244.178Z" fill="#1E1E1E"/>
<path d="M123.83 244.178H120.999V247.009H123.83V244.178Z" fill="#1E1E1E"/>
<path d="M129.493 244.178H126.662V247.009H129.493V244.178Z" fill="#1E1E1E"/>
<path d="M132.324 244.178H129.493V247.009H132.324V244.178Z" fill="#1E1E1E"/>
<path d="M135.156 244.178H132.324V247.009H135.156V244.178Z" fill="#1E1E1E"/>
<path d="M137.987 244.178H135.156V247.009H137.987V244.178Z" fill="#1E1E1E"/>
<path d="M149.313 244.178H146.481V247.009H149.313V244.178Z" fill="#1E1E1E"/>
<path d="M152.144 244.178H149.313V247.009H152.144V244.178Z" fill="#1E1E1E"/>
<path d="M98.3477 247.009H95.5163V249.84H98.3477V247.009Z" fill="#1E1E1E"/>
<path d="M101.179 247.009H98.3477V249.84H101.179V247.009Z" fill="#1E1E1E"/>
<path d="M106.842 247.009H104.011V249.84H106.842V247.009Z" fill="#1E1E1E"/>
<path d="M109.673 247.009H106.842V249.84H109.673V247.009Z" fill="#1E1E1E"/>
<path d="M115.336 247.009H112.505V249.84H115.336V247.009Z" fill="#1E1E1E"/>
<path d="M120.999 247.009H118.167V249.84H120.999V247.009Z" fill="#1E1E1E"/>
<path d="M129.493 247.009H126.662V249.84H129.493V247.009Z" fill="#1E1E1E"/>
<path d="M132.324 247.009H129.493V249.84H132.324V247.009Z" fill="#1E1E1E"/>
<path d="M135.156 247.009H132.324V249.84H135.156V247.009Z" fill="#1E1E1E"/>
<path d="M146.481 247.009H143.65V249.84H146.481V247.009Z" fill="#1E1E1E"/>
<path d="M154.976 247.009H152.144V249.84H154.976V247.009Z" fill="#1E1E1E"/>
<path d="M160.638 247.009H157.807V249.84H160.638V247.009Z" fill="#1E1E1E"/>
<path d="M166.301 247.009H163.47V249.84H166.301V247.009Z" fill="#1E1E1E"/>
<path d="M174.795 247.009H171.964V249.84H174.795V247.009Z" fill="#1E1E1E"/>
<path d="M95.5163 249.84H92.6849V252.672H95.5163V249.84Z" fill="#1E1E1E"/>
<path d="M115.336 249.84H112.505V252.672H115.336V249.84Z" fill="#1E1E1E"/>
<path d="M120.999 249.84H118.167V252.672H120.999V249.84Z" fill="#1E1E1E"/>
<path d="M123.83 249.84H120.999V252.672H123.83V249.84Z" fill="#1E1E1E"/>
<path d="M129.493 249.84H126.662V252.672H129.493V249.84Z" fill="#1E1E1E"/>
<path d="M143.65 249.84H140.819V252.672H143.65V249.84Z" fill="#1E1E1E"/>
<path d="M146.481 249.84H143.65V252.672H146.481V249.84Z" fill="#1E1E1E"/>
<path d="M154.976 249.84H152.144V252.672H154.976V249.84Z" fill="#1E1E1E"/>
<path d="M157.807 249.84H154.976V252.672H157.807V249.84Z" fill="#1E1E1E"/>
<path d="M160.638 249.84H157.807V252.672H160.638V249.84Z" fill="#1E1E1E"/>
<path d="M163.47 249.84H160.638V252.672H163.47V249.84Z" fill="#1E1E1E"/>
<path d="M84.1908 252.672H81.3594V255.503H84.1908V252.672Z" fill="#1E1E1E"/>
<path d="M87.0222 252.672H84.1908V255.503H87.0222V252.672Z" fill="#1E1E1E"/>
<path d="M89.8536 252.672H87.0222V255.503H89.8536V252.672Z" fill="#1E1E1E"/>
<path d="M92.6849 252.672H89.8536V255.503H92.6849V252.672Z" fill="#1E1E1E"/>
<path d="M95.5163 252.672H92.6849V255.503H95.5163V252.672Z" fill="#1E1E1E"/>
<path d="M98.3477 252.672H95.5163V255.503H98.3477V252.672Z" fill="#1E1E1E"/>
<path d="M101.179 252.672H98.3477V255.503H101.179V252.672Z" fill="#1E1E1E"/>
<path d="M109.673 252.672H106.842V255.503H109.673V252.672Z" fill="#1E1E1E"/>
<path d="M115.336 252.672H112.505V255.503H115.336V252.672Z" fill="#1E1E1E"/>
<path d="M123.83 252.672H120.999V255.503H123.83V252.672Z" fill="#1E1E1E"/>
<path d="M132.324 252.672H129.493V255.503H132.324V252.672Z" fill="#1E1E1E"/>
<path d="M135.156 252.672H132.324V255.503H135.156V252.672Z" fill="#1E1E1E"/>
<path d="M140.819 252.672H137.987V255.503H140.819V252.672Z" fill="#1E1E1E"/>
<path d="M143.65 252.672H140.819V255.503H143.65V252.672Z" fill="#1E1E1E"/>
<path d="M146.481 252.672H143.65V255.503H146.481V252.672Z" fill="#1E1E1E"/>
<path d="M157.807 252.672H154.976V255.503H157.807V252.672Z" fill="#1E1E1E"/>
<path d="M84.1908 255.503H81.3594V258.335H84.1908V255.503Z" fill="#1E1E1E"/>
<path d="M92.6849 255.503H89.8536V258.335H92.6849V255.503Z" fill="#1E1E1E"/>
<path d="M98.3477 255.503H95.5163V258.335H98.3477V255.503Z" fill="#1E1E1E"/>
<path d="M104.011 255.503H101.179V258.335H104.011V255.503Z" fill="#1E1E1E"/>
<path d="M106.842 255.503H104.011V258.335H106.842V255.503Z" fill="#1E1E1E"/>
<path d="M112.505 255.503H109.673V258.335H112.505V255.503Z" fill="#1E1E1E"/>
<path d="M115.336 255.503H112.505V258.335H115.336V255.503Z" fill="#1E1E1E"/>
<path d="M120.999 255.503H118.167V258.335H120.999V255.503Z" fill="#1E1E1E"/>
<path d="M135.156 255.503H132.324V258.335H135.156V255.503Z" fill="#1E1E1E"/>
<path d="M143.65 255.503H140.819V258.335H143.65V255.503Z" fill="#1E1E1E"/>
<path d="M146.481 255.503H143.65V258.335H146.481V255.503Z" fill="#1E1E1E"/>
<path d="M149.313 255.503H146.481V258.335H149.313V255.503Z" fill="#1E1E1E"/>
<path d="M152.144 255.503H149.313V258.335H152.144V255.503Z" fill="#1E1E1E"/>
<path d="M160.638 255.503H157.807V258.335H160.638V255.503Z" fill="#1E1E1E"/>
<path d="M163.47 255.503H160.638V258.335H163.47V255.503Z" fill="#1E1E1E"/>
<path d="M166.301 255.503H163.47V258.335H166.301V255.503Z" fill="#1E1E1E"/>
<path d="M169.133 255.503H166.301V258.335H169.133V255.503Z" fill="#1E1E1E"/>
<path d="M84.1908 258.335H81.3594V261.166H84.1908V258.335Z" fill="#1E1E1E"/>
<path d="M92.6849 258.335H89.8536V261.166H92.6849V258.335Z" fill="#1E1E1E"/>
<path d="M101.179 258.335H98.3477V261.166H101.179V258.335Z" fill="#1E1E1E"/>
<path d="M106.842 258.335H104.011V261.166H106.842V258.335Z" fill="#1E1E1E"/>
<path d="M109.673 258.335H106.842V261.166H109.673V258.335Z" fill="#1E1E1E"/>
<path d="M112.505 258.335H109.673V261.166H112.505V258.335Z" fill="#1E1E1E"/>
<path d="M115.336 258.335H112.505V261.166H115.336V258.335Z" fill="#1E1E1E"/>
<path d="M118.167 258.335H115.336V261.166H118.167V258.335Z" fill="#1E1E1E"/>
<path d="M126.662 258.335H123.83V261.166H126.662V258.335Z" fill="#1E1E1E"/>
<path d="M129.493 258.335H126.662V261.166H129.493V258.335Z" fill="#1E1E1E"/>
<path d="M132.324 258.335H129.493V261.166H132.324V258.335Z" fill="#1E1E1E"/>
<path d="M137.987 258.335H135.156L135.156 261.166H137.987V258.335Z" fill="#1E1E1E"/>
<path d="M140.819 258.335H137.987V261.166H140.819V258.335Z" fill="#1E1E1E"/>
<path d="M143.65 258.335H140.819V261.166H143.65V258.335Z" fill="#1E1E1E"/>
<path d="M154.976 258.335H152.144V261.166H154.976V258.335Z" fill="#1E1E1E"/>
<path d="M157.807 258.335H154.976V261.166H157.807V258.335Z" fill="#1E1E1E"/>
<path d="M163.47 258.335H160.638V261.166H163.47V258.335Z" fill="#1E1E1E"/>
<path d="M169.133 258.335H166.301V261.166H169.133V258.335Z" fill="#1E1E1E"/>
<path d="M92.6849 261.166H89.8536V263.997H92.6849V261.166Z" fill="#1E1E1E"/>
<path d="M106.842 261.166H104.011V263.997H106.842V261.166Z" fill="#1E1E1E"/>
<path d="M120.999 261.166H118.167V263.997H120.999V261.166Z" fill="#1E1E1E"/>
<path d="M132.324 261.166H129.493V263.997H132.324V261.166Z" fill="#1E1E1E"/>
<path d="M135.156 261.166H132.324V263.997H135.156L135.156 261.166Z" fill="#1E1E1E"/>
<path d="M137.987 261.166H135.156L135.156 263.997H137.987V261.166Z" fill="#1E1E1E"/>
<path d="M146.481 261.166H143.65V263.997H146.481V261.166Z" fill="#1E1E1E"/>
<path d="M157.807 261.166H154.976V263.997H157.807V261.166Z" fill="#1E1E1E"/>
<path d="M160.638 261.166H157.807V263.997H160.638V261.166Z" fill="#1E1E1E"/>
<path d="M166.301 261.166H163.47V263.997H166.301V261.166Z" fill="#1E1E1E"/>
<path d="M171.964 261.166H169.133V263.997H171.964V261.166Z" fill="#1E1E1E"/>
<path d="M174.795 261.166H171.964V263.997H174.795V261.166Z" fill="#1E1E1E"/>
<path d="M89.8536 263.997H87.0222V266.829H89.8536V263.997Z" fill="#1E1E1E"/>
<path d="M101.179 263.997H98.3477V266.829H101.179V263.997Z" fill="#1E1E1E"/>
<path d="M104.011 263.997H101.179V266.829H104.011V263.997Z" fill="#1E1E1E"/>
<path d="M106.842 263.997H104.011V266.829H106.842V263.997Z" fill="#1E1E1E"/>
<path d="M109.673 263.997H106.842V266.829H109.673V263.997Z" fill="#1E1E1E"/>
<path d="M115.336 263.997H112.505V266.829H115.336V263.997Z" fill="#1E1E1E"/>
<path d="M123.83 263.997H120.999V266.829H123.83V263.997Z" fill="#1E1E1E"/>
<path d="M126.662 263.997H123.83V266.829H126.662V263.997Z" fill="#1E1E1E"/>
<path d="M135.156 263.997H132.324V266.829H135.156V263.997Z" fill="#1E1E1E"/>
<path d="M143.65 263.997H140.819V266.829H143.65V263.997Z" fill="#1E1E1E"/>
<path d="M149.313 263.997H146.481V266.829H149.313V263.997Z" fill="#1E1E1E"/>
<path d="M152.144 263.997H149.313V266.829H152.144V263.997Z" fill="#1E1E1E"/>
<path d="M160.638 263.997H157.807V266.829H160.638V263.997Z" fill="#1E1E1E"/>
<path d="M166.301 263.997H163.47V266.829H166.301V263.997Z" fill="#1E1E1E"/>
<path d="M174.795 263.997H171.964V266.829H174.795V263.997Z" fill="#1E1E1E"/>
<path d="M84.1908 266.829H81.3594V269.66H84.1908V266.829Z" fill="#1E1E1E"/>
<path d="M87.0222 266.829H84.1908V269.66H87.0222V266.829Z" fill="#1E1E1E"/>
<path d="M106.842 266.829H104.011V269.66H106.842V266.829Z" fill="#1E1E1E"/>
<path d="M120.999 266.829H118.167V269.66H120.999V266.829Z" fill="#1E1E1E"/>
<path d="M126.662 266.829H123.83V269.66H126.662V266.829Z" fill="#1E1E1E"/>
<path d="M137.987 266.829H135.156L135.156 269.66H137.987V266.829Z" fill="#1E1E1E"/>
<path d="M143.65 266.829H140.819V269.66H143.65V266.829Z" fill="#1E1E1E"/>
<path d="M146.481 266.829H143.65V269.66H146.481V266.829Z" fill="#1E1E1E"/>
<path d="M152.144 266.829H149.313V269.66H152.144V266.829Z" fill="#1E1E1E"/>
<path d="M160.638 266.829H157.807V269.66H160.638V266.829Z" fill="#1E1E1E"/>
<path d="M166.301 266.829H163.47V269.66H166.301V266.829Z" fill="#1E1E1E"/>
<path d="M171.964 266.829H169.133V269.66H171.964V266.829Z" fill="#1E1E1E"/>
<path d="M84.1908 269.66H81.3594V272.492H84.1908V269.66Z" fill="#1E1E1E"/>
<path d="M87.0222 269.66H84.1908V272.492H87.0222V269.66Z" fill="#1E1E1E"/>
<path d="M89.8536 269.66H87.0222V272.492H89.8536V269.66Z" fill="#1E1E1E"/>
<path d="M95.5163 269.66H92.6849V272.492H95.5163V269.66Z" fill="#1E1E1E"/>
<path d="M101.179 269.66H98.3477V272.492H101.179V269.66Z" fill="#1E1E1E"/>
<path d="M106.842 269.66H104.011V272.492H106.842V269.66Z" fill="#1E1E1E"/>
<path d="M109.673 269.66H106.842V272.492H109.673V269.66Z" fill="#1E1E1E"/>
<path d="M112.505 269.66H109.673V272.492H112.505V269.66Z" fill="#1E1E1E"/>
<path d="M120.999 269.66H118.167V272.492H120.999V269.66Z" fill="#1E1E1E"/>
<path d="M132.324 269.66H129.493V272.492H132.324V269.66Z" fill="#1E1E1E"/>
<path d="M135.156 269.66H132.324V272.492H135.156L135.156 269.66Z" fill="#1E1E1E"/>
<path d="M140.819 269.66H137.987V272.492H140.819V269.66Z" fill="#1E1E1E"/>
<path d="M143.65 269.66H140.819V272.492H143.65V269.66Z" fill="#1E1E1E"/>
<path d="M149.313 269.66H146.481V272.492H149.313V269.66Z" fill="#1E1E1E"/>
<path d="M163.47 269.66H160.638V272.492H163.47V269.66Z" fill="#1E1E1E"/>
<path d="M171.964 269.66H169.133V272.492H171.964V269.66Z" fill="#1E1E1E"/>
<path d="M174.795 269.66H171.964V272.492H174.795V269.66Z" fill="#1E1E1E"/>
<path d="M87.0222 272.492H84.1908V275.323H87.0222V272.492Z" fill="#1E1E1E"/>
<path d="M89.8536 272.492H87.0222V275.323H89.8536V272.492Z" fill="#1E1E1E"/>
<path d="M92.6849 272.492H89.8536V275.323H92.6849V272.492Z" fill="#1E1E1E"/>
<path d="M95.5163 272.492H92.6849V275.323H95.5163V272.492Z" fill="#1E1E1E"/>
<path d="M98.3477 272.492H95.5163V275.323H98.3477V272.492Z" fill="#1E1E1E"/>
<path d="M104.011 272.492H101.179V275.323H104.011V272.492Z" fill="#1E1E1E"/>
<path d="M112.505 272.492H109.673V275.323H112.505V272.492Z" fill="#1E1E1E"/>
<path d="M115.336 272.492H112.505V275.323H115.336V272.492Z" fill="#1E1E1E"/>
<path d="M123.83 272.492H120.999V275.323H123.83V272.492Z" fill="#1E1E1E"/>
<path d="M126.662 272.492H123.83V275.323H126.662V272.492Z" fill="#1E1E1E"/>
<path d="M129.493 272.492H126.662V275.323H129.493V272.492Z" fill="#1E1E1E"/>
<path d="M137.987 272.492H135.156L135.156 275.323H137.987V272.492Z" fill="#1E1E1E"/>
<path d="M140.819 272.492H137.987V275.323H140.819V272.492Z" fill="#1E1E1E"/>
<path d="M146.481 272.492H143.65V275.323H146.481V272.492Z" fill="#1E1E1E"/>
<path d="M152.144 272.492H149.313V275.323H152.144V272.492Z" fill="#1E1E1E"/>
<path d="M169.133 272.492H166.301V275.323H169.133V272.492Z" fill="#1E1E1E"/>
<path d="M171.964 272.492H169.133V275.323H171.964V272.492Z" fill="#1E1E1E"/>
<path d="M84.1908 275.323H81.3594V278.154H84.1908V275.323Z" fill="#1E1E1E"/>
<path d="M98.3477 275.323H95.5163V278.154H98.3477V275.323Z" fill="#1E1E1E"/>
<path d="M101.179 275.323H98.3477V278.154H101.179V275.323Z" fill="#1E1E1E"/>
<path d="M104.011 275.323H101.179V278.154H104.011V275.323Z" fill="#1E1E1E"/>
<path d="M126.662 275.323H123.83V278.154H126.662V275.323Z" fill="#1E1E1E"/>
<path d="M129.493 275.323H126.662V278.154H129.493V275.323Z" fill="#1E1E1E"/>
<path d="M135.156 275.323H132.324V278.154H135.156L135.156 275.323Z" fill="#1E1E1E"/>
<path d="M137.987 275.323H135.156L135.156 278.154H137.987V275.323Z" fill="#1E1E1E"/>
<path d="M140.819 275.323H137.987V278.154H140.819V275.323Z" fill="#1E1E1E"/>
<path d="M143.65 275.323H140.819V278.154H143.65V275.323Z" fill="#1E1E1E"/>
<path d="M149.313 275.323H146.481V278.154H149.313V275.323Z" fill="#1E1E1E"/>
<path d="M154.976 275.323H152.144V278.154H154.976V275.323Z" fill="#1E1E1E"/>
<path d="M171.964 275.323H169.133V278.154H171.964V275.323Z" fill="#1E1E1E"/>
<path d="M84.1908 278.154H81.3594V280.986H84.1908V278.154Z" fill="#1E1E1E"/>
<path d="M89.8536 278.154H87.0222V280.986H89.8536V278.154Z" fill="#1E1E1E"/>
<path d="M92.6849 278.154H89.8536V280.986H92.6849V278.154Z" fill="#1E1E1E"/>
<path d="M95.5163 278.154L92.6849 278.154V280.986H95.5163V278.154Z" fill="#1E1E1E"/>
<path d="M104.011 278.154H101.179V280.986H104.011V278.154Z" fill="#1E1E1E"/>
<path d="M106.842 278.154L104.011 278.154V280.986H106.842V278.154Z" fill="#1E1E1E"/>
<path d="M112.505 278.154H109.673V280.986H112.505V278.154Z" fill="#1E1E1E"/>
<path d="M118.167 278.154H115.336V280.986H118.167V278.154Z" fill="#1E1E1E"/>
<path d="M126.662 278.154H123.83V280.986H126.662V278.154Z" fill="#1E1E1E"/>
<path d="M129.493 278.154H126.662V280.986H129.493V278.154Z" fill="#1E1E1E"/>
<path d="M143.65 278.154H140.819V280.986H143.65V278.154Z" fill="#1E1E1E"/>
<path d="M152.144 278.154H149.313V280.986H152.144V278.154Z" fill="#1E1E1E"/>
<path d="M154.976 278.154H152.144V280.986H154.976V278.154Z" fill="#1E1E1E"/>
<path d="M163.47 278.154H160.638V280.986H163.47V278.154Z" fill="#1E1E1E"/>
<path d="M166.301 278.154H163.47V280.986H166.301V278.154Z" fill="#1E1E1E"/>
<path d="M87.0222 280.986H84.1908V283.817H87.0222V280.986Z" fill="#1E1E1E"/>
<path d="M98.3477 280.986H95.5163V283.817H98.3477V280.986Z" fill="#1E1E1E"/>
<path d="M101.179 280.986H98.3477V283.817H101.179V280.986Z" fill="#1E1E1E"/>
<path d="M104.011 280.986H101.179V283.817H104.011V280.986Z" fill="#1E1E1E"/>
<path d="M109.673 280.986H106.842V283.817H109.673V280.986Z" fill="#1E1E1E"/>
<path d="M112.505 280.986H109.673V283.817H112.505V280.986Z" fill="#1E1E1E"/>
<path d="M123.83 280.986H120.999V283.817H123.83V280.986Z" fill="#1E1E1E"/>
<path d="M129.493 280.986H126.662V283.817H129.493V280.986Z" fill="#1E1E1E"/>
<path d="M132.324 280.986H129.493V283.817H132.324V280.986Z" fill="#1E1E1E"/>
<path d="M137.987 280.986H135.156V283.817H137.987V280.986Z" fill="#1E1E1E"/>
<path d="M143.65 280.986H140.819V283.817H143.65V280.986Z" fill="#1E1E1E"/>
<path d="M146.481 280.986H143.65V283.817H146.481V280.986Z" fill="#1E1E1E"/>
<path d="M152.144 280.986H149.313V283.817H152.144V280.986Z" fill="#1E1E1E"/>
<path d="M154.976 280.986H152.144V283.817H154.976V280.986Z" fill="#1E1E1E"/>
<path d="M166.301 280.986H163.47V283.817H166.301V280.986Z" fill="#1E1E1E"/>
<path d="M87.0222 283.817H84.1908V286.649H87.0222V283.817Z" fill="#1E1E1E"/>
<path d="M92.6849 283.817H89.8536V286.649H92.6849V283.817Z" fill="#1E1E1E"/>
<path d="M95.5163 283.817H92.6849V286.649H95.5163V283.817Z" fill="#1E1E1E"/>
<path d="M104.011 283.817H101.179V286.649H104.011V283.817Z" fill="#1E1E1E"/>
<path d="M106.842 283.817H104.011V286.649H106.842V283.817Z" fill="#1E1E1E"/>
<path d="M112.505 283.817H109.673V286.649H112.505V283.817Z" fill="#1E1E1E"/>
<path d="M120.999 283.817H118.167V286.649H120.999V283.817Z" fill="#1E1E1E"/>
<path d="M126.662 283.817H123.83V286.649H126.662V283.817Z" fill="#1E1E1E"/>
<path d="M129.493 283.817H126.662V286.649H129.493V283.817Z" fill="#1E1E1E"/>
<path d="M132.324 283.817H129.493V286.649H132.324V283.817Z" fill="#1E1E1E"/>
<path d="M137.987 283.817H135.156V286.649H137.987V283.817Z" fill="#1E1E1E"/>
<path d="M143.65 283.817H140.819V286.649H143.65V283.817Z" fill="#1E1E1E"/>
<path d="M149.313 283.817H146.481V286.649H149.313V283.817Z" fill="#1E1E1E"/>
<path d="M152.144 283.817H149.313V286.649H152.144V283.817Z" fill="#1E1E1E"/>
<path d="M157.807 283.817H154.976V286.649H157.807V283.817Z" fill="#1E1E1E"/>
<path d="M166.301 283.817H163.47V286.649H166.301V283.817Z" fill="#1E1E1E"/>
<path d="M171.964 283.817H169.133V286.649H171.964V283.817Z" fill="#1E1E1E"/>
<path d="M174.795 283.817H171.964V286.649H174.795V283.817Z" fill="#1E1E1E"/>
<path d="M84.1908 286.649H81.3594V289.48H84.1908V286.649Z" fill="#1E1E1E"/>
<path d="M87.0222 286.649H84.1908V289.48H87.0222V286.649Z" fill="#1E1E1E"/>
<path d="M95.5163 286.649H92.6849V289.48H95.5163V286.649Z" fill="#1E1E1E"/>
<path d="M98.3477 286.649H95.5163V289.48H98.3477V286.649Z" fill="#1E1E1E"/>
<path d="M101.179 286.649H98.3477V289.48H101.179V286.649Z" fill="#1E1E1E"/>
<path d="M109.673 286.649H106.842V289.48H109.673V286.649Z" fill="#1E1E1E"/>
<path d="M112.505 286.649H109.673V289.48H112.505V286.649Z" fill="#1E1E1E"/>
<path d="M120.999 286.649H118.167V289.48H120.999V286.649Z" fill="#1E1E1E"/>
<path d="M126.662 286.649H123.83V289.48H126.662V286.649Z" fill="#1E1E1E"/>
<path d="M129.493 286.649H126.662V289.48H129.493V286.649Z" fill="#1E1E1E"/>
<path d="M132.324 286.649H129.493V289.48H132.324V286.649Z" fill="#1E1E1E"/>
<path d="M135.156 286.649H132.324V289.48H135.156L135.156 286.649Z" fill="#1E1E1E"/>
<path d="M140.819 286.649H137.987V289.48H140.819V286.649Z" fill="#1E1E1E"/>
<path d="M143.65 286.649H140.819V289.48H143.65V286.649Z" fill="#1E1E1E"/>
<path d="M146.481 286.649H143.65V289.48H146.481V286.649Z" fill="#1E1E1E"/>
<path d="M163.47 286.649H160.638V289.48H163.47V286.649Z" fill="#1E1E1E"/>
<path d="M84.1908 289.48H81.3594V292.311H84.1908V289.48Z" fill="#1E1E1E"/>
<path d="M87.0222 289.48H84.1908V292.311H87.0222V289.48Z" fill="#1E1E1E"/>
<path d="M89.8536 289.48H87.0222V292.311H89.8536V289.48Z" fill="#1E1E1E"/>
<path d="M98.3477 289.48H95.5163V292.311H98.3477V289.48Z" fill="#1E1E1E"/>
<path d="M115.336 289.48H112.505V292.311H115.336V289.48Z" fill="#1E1E1E"/>
<path d="M118.167 289.48H115.336V292.311H118.167V289.48Z" fill="#1E1E1E"/>
<path d="M120.999 289.48H118.167V292.311H120.999V289.48Z" fill="#1E1E1E"/>
<path d="M123.83 289.48H120.999V292.311H123.83V289.48Z" fill="#1E1E1E"/>
<path d="M126.662 289.48H123.83V292.311H126.662V289.48Z" fill="#1E1E1E"/>
<path d="M129.493 289.48H126.662V292.311H129.493V289.48Z" fill="#1E1E1E"/>
<path d="M132.324 289.48H129.493V292.311H132.324V289.48Z" fill="#1E1E1E"/>
<path d="M140.819 289.48H137.987V292.311H140.819V289.48Z" fill="#1E1E1E"/>
<path d="M143.65 289.48H140.819V292.311H143.65V289.48Z" fill="#1E1E1E"/>
<path d="M149.313 289.48H146.481V292.311H149.313V289.48Z" fill="#1E1E1E"/>
<path d="M166.301 289.48H163.47V292.311H166.301V289.48Z" fill="#1E1E1E"/>
<path d="M169.133 289.48H166.301V292.311H169.133V289.48Z" fill="#1E1E1E"/>
<path d="M87.0222 292.311H84.1908V295.143H87.0222V292.311Z" fill="#1E1E1E"/>
<path d="M89.8536 292.311H87.0222V295.143H89.8536V292.311Z" fill="#1E1E1E"/>
<path d="M101.179 292.311H98.3477V295.143H101.179V292.311Z" fill="#1E1E1E"/>
<path d="M104.011 292.311H101.179V295.143H104.011V292.311Z" fill="#1E1E1E"/>
<path d="M109.673 292.311H106.842V295.143H109.673V292.311Z" fill="#1E1E1E"/>
<path d="M112.505 292.311H109.673V295.143H112.505V292.311Z" fill="#1E1E1E"/>
<path d="M115.336 292.311H112.505V295.143H115.336V292.311Z" fill="#1E1E1E"/>
<path d="M118.167 292.311H115.336V295.143H118.167V292.311Z" fill="#1E1E1E"/>
<path d="M129.493 292.311H126.662V295.143H129.493V292.311Z" fill="#1E1E1E"/>
<path d="M137.987 292.311H135.156V295.143H137.987V292.311Z" fill="#1E1E1E"/>
<path d="M140.819 292.311H137.987V295.143H140.819V292.311Z" fill="#1E1E1E"/>
<path d="M143.65 292.311H140.819V295.143H143.65V292.311Z" fill="#1E1E1E"/>
<path d="M146.481 292.311H143.65V295.143H146.481V292.311Z" fill="#1E1E1E"/>
<path d="M152.144 292.311H149.313V295.143H152.144V292.311Z" fill="#1E1E1E"/>
<path d="M154.976 292.311H152.144V295.143H154.976V292.311Z" fill="#1E1E1E"/>
<path d="M157.807 292.311H154.976V295.143H157.807V292.311Z" fill="#1E1E1E"/>
<path d="M160.638 292.311H157.807V295.143H160.638V292.311Z" fill="#1E1E1E"/>
<path d="M163.47 292.311H160.638V295.143H163.47V292.311Z" fill="#1E1E1E"/>
<path d="M166.301 292.311H163.47V295.143H166.301V292.311Z" fill="#1E1E1E"/>
<path d="M169.133 292.311H166.301V295.143H169.133V292.311Z" fill="#1E1E1E"/>
<path d="M174.795 292.311H171.964V295.143H174.795V292.311Z" fill="#1E1E1E"/>
<path d="M106.842 295.143H104.011V297.974H106.842V295.143Z" fill="#1E1E1E"/>
<path d="M109.673 295.143H106.842V297.974H109.673V295.143Z" fill="#1E1E1E"/>
<path d="M120.999 295.143H118.167V297.974H120.999V295.143Z" fill="#1E1E1E"/>
<path d="M123.83 295.143H120.999V297.974H123.83V295.143Z" fill="#1E1E1E"/>
<path d="M135.156 295.143H132.324V297.974H135.156L135.156 295.143Z" fill="#1E1E1E"/>
<path d="M140.819 295.143H137.987V297.974H140.819V295.143Z" fill="#1E1E1E"/>
<path d="M152.144 295.143H149.313V297.974H152.144V295.143Z" fill="#1E1E1E"/>
<path d="M163.47 295.143H160.638V297.974H163.47V295.143Z" fill="#1E1E1E"/>
<path d="M169.133 295.143H166.301V297.974H169.133V295.143Z" fill="#1E1E1E"/>
<path d="M84.1908 297.974H81.3594V300.806H84.1908V297.974Z" fill="#1E1E1E"/>
<path d="M87.0222 297.974H84.1908V300.806H87.0222V297.974Z" fill="#1E1E1E"/>
<path d="M89.8536 297.974H87.0222V300.806H89.8536V297.974Z" fill="#1E1E1E"/>
<path d="M92.6849 297.974H89.8536V300.806H92.6849V297.974Z" fill="#1E1E1E"/>
<path d="M95.5163 297.974H92.6849V300.806H95.5163V297.974Z" fill="#1E1E1E"/>
<path d="M98.3477 297.974H95.5163V300.806H98.3477V297.974Z" fill="#1E1E1E"/>
<path d="M101.179 297.974H98.3477V300.806H101.179V297.974Z" fill="#1E1E1E"/>
<path d="M109.673 297.974H106.842V300.806H109.673V297.974Z" fill="#1E1E1E"/>
<path d="M118.167 297.974H115.336V300.806H118.167V297.974Z" fill="#1E1E1E"/>
<path d="M120.999 297.974H118.167V300.806H120.999V297.974Z" fill="#1E1E1E"/>
<path d="M123.83 297.974H120.999V300.806H123.83V297.974Z" fill="#1E1E1E"/>
<path d="M126.662 297.974H123.83V300.806H126.662V297.974Z" fill="#1E1E1E"/>
<path d="M129.493 297.974H126.662V300.806H129.493V297.974Z" fill="#1E1E1E"/>
<path d="M135.156 297.974H132.324V300.806H135.156V297.974Z" fill="#1E1E1E"/>
<path d="M137.987 297.974H135.156V300.806H137.987V297.974Z" fill="#1E1E1E"/>
<path d="M143.65 297.974H140.819V300.806H143.65V297.974Z" fill="#1E1E1E"/>
<path d="M146.481 297.974H143.65V300.806H146.481V297.974Z" fill="#1E1E1E"/>
<path d="M152.144 297.974H149.313V300.806H152.144V297.974Z" fill="#1E1E1E"/>
<path d="M157.807 297.974H154.976V300.806H157.807V297.974Z" fill="#1E1E1E"/>
<path d="M163.47 297.974H160.638V300.806H163.47V297.974Z" fill="#1E1E1E"/>
<path d="M166.301 297.974H163.47V300.806H166.301V297.974Z" fill="#1E1E1E"/>
<path d="M171.964 297.974H169.133V300.806H171.964V297.974Z" fill="#1E1E1E"/>
<path d="M84.1908 300.806H81.3594V303.637H84.1908V300.806Z" fill="#1E1E1E"/>
<path d="M101.179 300.806H98.3477V303.637H101.179V300.806Z" fill="#1E1E1E"/>
<path d="M106.842 300.806H104.011V303.637H106.842V300.806Z" fill="#1E1E1E"/>
<path d="M109.673 300.806H106.842V303.637H109.673V300.806Z" fill="#1E1E1E"/>
<path d="M112.505 300.806H109.673V303.637H112.505V300.806Z" fill="#1E1E1E"/>
<path d="M123.83 300.806H120.999V303.637H123.83V300.806Z" fill="#1E1E1E"/>
<path d="M132.324 300.806H129.493V303.637H132.324V300.806Z" fill="#1E1E1E"/>
<path d="M137.987 300.806H135.156L135.156 303.637H137.987V300.806Z" fill="#1E1E1E"/>
<path d="M140.819 300.806H137.987V303.637H140.819V300.806Z" fill="#1E1E1E"/>
<path d="M152.144 300.806H149.313V303.637H152.144V300.806Z" fill="#1E1E1E"/>
<path d="M163.47 300.806H160.638V303.637H163.47V300.806Z" fill="#1E1E1E"/>
<path d="M84.1908 303.637H81.3594V306.468H84.1908V303.637Z" fill="#1E1E1E"/>
<path d="M89.8536 303.637H87.0222V306.468H89.8536V303.637Z" fill="#1E1E1E"/>
<path d="M92.6849 303.637H89.8536V306.468H92.6849V303.637Z" fill="#1E1E1E"/>
<path d="M95.5163 303.637H92.6849V306.468H95.5163V303.637Z" fill="#1E1E1E"/>
<path d="M101.179 303.637H98.3477V306.468H101.179V303.637Z" fill="#1E1E1E"/>
<path d="M112.505 303.637H109.673V306.468H112.505V303.637Z" fill="#1E1E1E"/>
<path d="M115.336 303.637H112.505V306.468H115.336V303.637Z" fill="#1E1E1E"/>
<path d="M120.999 303.637H118.167V306.468H120.999V303.637Z" fill="#1E1E1E"/>
<path d="M123.83 303.637H120.999V306.468H123.83V303.637Z" fill="#1E1E1E"/>
<path d="M129.493 303.637H126.662V306.468H129.493V303.637Z" fill="#1E1E1E"/>
<path d="M140.819 303.637H137.987V306.468H140.819V303.637Z" fill="#1E1E1E"/>
<path d="M146.481 303.637H143.65V306.468H146.481V303.637Z" fill="#1E1E1E"/>
<path d="M152.144 303.637H149.313V306.468H152.144V303.637Z" fill="#1E1E1E"/>
<path d="M154.976 303.637H152.144V306.468H154.976V303.637Z" fill="#1E1E1E"/>
<path d="M157.807 303.637H154.976V306.468H157.807V303.637Z" fill="#1E1E1E"/>
<path d="M160.638 303.637H157.807V306.468H160.638V303.637Z" fill="#1E1E1E"/>
<path d="M163.47 303.637H160.638V306.468H163.47V303.637Z" fill="#1E1E1E"/>
<path d="M166.301 303.637H163.47V306.468H166.301V303.637Z" fill="#1E1E1E"/>
<path d="M169.133 303.637H166.301V306.468H169.133V303.637Z" fill="#1E1E1E"/>
<path d="M174.795 303.637H171.964V306.468H174.795V303.637Z" fill="#1E1E1E"/>
<path d="M84.1908 306.468H81.3594V309.3H84.1908V306.468Z" fill="#1E1E1E"/>
<path d="M89.8536 306.468H87.0222V309.3H89.8536V306.468Z" fill="#1E1E1E"/>
<path d="M92.6849 306.468H89.8536V309.3H92.6849V306.468Z" fill="#1E1E1E"/>
<path d="M95.5163 306.468H92.6849V309.3H95.5163V306.468Z" fill="#1E1E1E"/>
<path d="M101.179 306.468H98.3477V309.3H101.179V306.468Z" fill="#1E1E1E"/>
<path d="M115.336 306.468H112.505V309.3H115.336V306.468Z" fill="#1E1E1E"/>
<path d="M118.167 306.468H115.336V309.3H118.167V306.468Z" fill="#1E1E1E"/>
<path d="M120.999 306.468H118.167V309.3H120.999V306.468Z" fill="#1E1E1E"/>
<path d="M123.83 306.468H120.999V309.3H123.83V306.468Z" fill="#1E1E1E"/>
<path d="M129.493 306.468H126.662V309.3H129.493V306.468Z" fill="#1E1E1E"/>
<path d="M132.324 306.468H129.493V309.3H132.324V306.468Z" fill="#1E1E1E"/>
<path d="M143.65 306.468H140.819V309.3H143.65V306.468Z" fill="#1E1E1E"/>
<path d="M146.481 306.468H143.65V309.3H146.481V306.468Z" fill="#1E1E1E"/>
<path d="M149.313 306.468H146.481V309.3H149.313V306.468Z" fill="#1E1E1E"/>
<path d="M152.144 306.468H149.313V309.3H152.144V306.468Z" fill="#1E1E1E"/>
<path d="M154.976 306.468H152.144V309.3H154.976V306.468Z" fill="#1E1E1E"/>
<path d="M157.807 306.468H154.976V309.3H157.807V306.468Z" fill="#1E1E1E"/>
<path d="M163.47 306.468H160.638V309.3H163.47V306.468Z" fill="#1E1E1E"/>
<path d="M166.301 306.468H163.47V309.3H166.301V306.468Z" fill="#1E1E1E"/>
<path d="M174.795 306.468H171.964V309.3H174.795V306.468Z" fill="#1E1E1E"/>
<path d="M84.1908 309.3H81.3594V312.131H84.1908V309.3Z" fill="#1E1E1E"/>
<path d="M89.8536 309.3H87.0222V312.131H89.8536V309.3Z" fill="#1E1E1E"/>
<path d="M92.6849 309.3H89.8536V312.131H92.6849V309.3Z" fill="#1E1E1E"/>
<path d="M95.5163 309.3H92.6849V312.131H95.5163V309.3Z" fill="#1E1E1E"/>
<path d="M101.179 309.3H98.3477V312.131H101.179V309.3Z" fill="#1E1E1E"/>
<path d="M112.505 309.3H109.673V312.131H112.505V309.3Z" fill="#1E1E1E"/>
<path d="M120.999 309.3H118.167V312.131H120.999V309.3Z" fill="#1E1E1E"/>
<path d="M123.83 309.3H120.999V312.131H123.83V309.3Z" fill="#1E1E1E"/>
<path d="M135.156 309.3H132.324V312.131H135.156V309.3Z" fill="#1E1E1E"/>
<path d="M143.65 309.3H140.819V312.131H143.65V309.3Z" fill="#1E1E1E"/>
<path d="M146.481 309.3H143.65V312.131H146.481V309.3Z" fill="#1E1E1E"/>
<path d="M152.144 309.3H149.313V312.131H152.144V309.3Z" fill="#1E1E1E"/>
<path d="M157.807 309.3H154.976V312.131H157.807V309.3Z" fill="#1E1E1E"/>
<path d="M169.133 309.3H166.301V312.131H169.133V309.3Z" fill="#1E1E1E"/>
<path d="M174.795 309.3H171.964V312.131H174.795V309.3Z" fill="#1E1E1E"/>
<path d="M84.1908 312.131H81.3594V314.962H84.1908V312.131Z" fill="#1E1E1E"/>
<path d="M101.179 312.131H98.3477V314.962H101.179V312.131Z" fill="#1E1E1E"/>
<path d="M109.673 312.131H106.842V314.962H109.673V312.131Z" fill="#1E1E1E"/>
<path d="M115.336 312.131H112.505V314.962H115.336V312.131Z" fill="#1E1E1E"/>
<path d="M118.167 312.131H115.336V314.962H118.167V312.131Z" fill="#1E1E1E"/>
<path d="M120.999 312.131H118.167V314.962H120.999V312.131Z" fill="#1E1E1E"/>
<path d="M123.83 312.131H120.999V314.962H123.83V312.131Z" fill="#1E1E1E"/>
<path d="M126.662 312.131H123.83V314.962H126.662V312.131Z" fill="#1E1E1E"/>
<path d="M129.493 312.131H126.662V314.962H129.493V312.131Z" fill="#1E1E1E"/>
<path d="M132.324 312.131H129.493V314.962H132.324V312.131Z" fill="#1E1E1E"/>
<path d="M135.156 312.131H132.324V314.962H135.156V312.131Z" fill="#1E1E1E"/>
<path d="M137.987 312.131H135.156V314.962H137.987V312.131Z" fill="#1E1E1E"/>
<path d="M140.819 312.131H137.987V314.962H140.819V312.131Z" fill="#1E1E1E"/>
<path d="M143.65 312.131H140.819V314.962H143.65V312.131Z" fill="#1E1E1E"/>
<path d="M154.976 312.131H152.144V314.962H154.976V312.131Z" fill="#1E1E1E"/>
<path d="M160.638 312.131H157.807V314.962H160.638V312.131Z" fill="#1E1E1E"/>
<path d="M166.301 312.131H163.47V314.962H166.301V312.131Z" fill="#1E1E1E"/>
<path d="M174.795 312.131H171.964V314.962H174.795V312.131Z" fill="#1E1E1E"/>
<path d="M84.1908 314.962H81.3594V317.794H84.1908V314.962Z" fill="#1E1E1E"/>
<path d="M87.0222 314.962H84.1908V317.794H87.0222V314.962Z" fill="#1E1E1E"/>
<path d="M89.8536 314.962H87.0222V317.794H89.8536V314.962Z" fill="#1E1E1E"/>
<path d="M92.6849 314.962H89.8536V317.794H92.6849V314.962Z" fill="#1E1E1E"/>
<path d="M95.5163 314.962H92.6849V317.794H95.5163V314.962Z" fill="#1E1E1E"/>
<path d="M98.3477 314.962H95.5163V317.794H98.3477V314.962Z" fill="#1E1E1E"/>
<path d="M101.179 314.962H98.3477V317.794H101.179V314.962Z" fill="#1E1E1E"/>
<path d="M109.673 314.962H106.842V317.794H109.673V314.962Z" fill="#1E1E1E"/>
<path d="M112.505 314.962H109.673V317.794H112.505V314.962Z" fill="#1E1E1E"/>
<path d="M118.167 314.962H115.336V317.794H118.167V314.962Z" fill="#1E1E1E"/>
<path d="M120.999 314.962H118.167V317.794H120.999V314.962Z" fill="#1E1E1E"/>
<path d="M135.156 314.962H132.324V317.794H135.156V314.962Z" fill="#1E1E1E"/>
<path d="M140.819 314.962H137.987V317.794H140.819V314.962Z" fill="#1E1E1E"/>
<path d="M143.65 314.962H140.819V317.794H143.65V314.962Z" fill="#1E1E1E"/>
<path d="M146.481 314.962H143.65V317.794H146.481V314.962Z" fill="#1E1E1E"/>
<path d="M154.976 314.962H152.144V317.794H154.976V314.962Z" fill="#1E1E1E"/>
<path d="M160.638 314.962H157.807V317.794H160.638V314.962Z" fill="#1E1E1E"/>
<path d="M163.47 314.962H160.638V317.794H163.47V314.962Z" fill="#1E1E1E"/>
<path d="M169.133 314.962H166.301V317.794H169.133V314.962Z" fill="#1E1E1E"/>
<line x1="72.5444" y1="215.544" x2="72.5444" y2="239.38" stroke="#4E00B1" stroke-width="3.0888" stroke-linecap="round"/>
<line x1="96.3814" y1="215.544" x2="72.5454" y2="215.544" stroke="#4E00B1" stroke-width="3.0888" stroke-linecap="round"/>
<line x1="1.5444" y1="-1.5444" x2="25.3804" y2="-1.5444" transform="matrix(-4.37114e-08 -1 -1 4.37114e-08 71 328)" stroke="#4E00B1" stroke-width="3.0888" stroke-linecap="round"/>
<line x1="1.5444" y1="-1.5444" x2="25.3804" y2="-1.5444" transform="matrix(-1 -8.74228e-08 -8.74228e-08 1 97.9258 328)" stroke="#4E00B1" stroke-width="3.0888" stroke-linecap="round"/>
<line x1="1.5444" y1="-1.5444" x2="25.3804" y2="-1.5444" transform="matrix(4.37114e-08 1 1 -4.37114e-08 185.004 214)" stroke="#4E00B1" stroke-width="3.0888" stroke-linecap="round"/>
<line x1="1.5444" y1="-1.5444" x2="25.3804" y2="-1.5444" transform="matrix(1 8.74228e-08 8.74228e-08 -1 158.078 214)" stroke="#4E00B1" stroke-width="3.0888" stroke-linecap="round"/>
<line x1="183.46" y1="326.456" x2="183.46" y2="302.62" stroke="#4E00B1" stroke-width="3.0888" stroke-linecap="round"/>
<line x1="159.623" y1="326.456" x2="183.459" y2="326.456" stroke="#4E00B1" stroke-width="3.0888" stroke-linecap="round"/>
<g filter="url(#filter2_d_1_491)">
<rect x="213" y="271" width="322" height="79" rx="20" fill="white"/>
</g>
<rect x="226" y="283" width="57" height="57" rx="15" fill="#FBF5FF"/>
<path d="M299.384 307V301.823H304.701V299.978H299.384V296.233H305.202V294.317H297.116V307H299.384ZM310.458 307.185C313.191 307.185 314.967 305.365 314.967 302.342C314.967 299.327 313.174 297.49 310.458 297.49C307.742 297.49 305.949 299.336 305.949 302.342C305.949 305.365 307.725 307.185 310.458 307.185ZM310.458 305.453C309.069 305.453 308.173 304.328 308.173 302.342C308.173 300.364 309.078 299.23 310.458 299.23C311.847 299.23 312.743 300.364 312.743 302.342C312.743 304.328 311.847 305.453 310.458 305.453ZM320.495 307.185C323.229 307.185 325.004 305.365 325.004 302.342C325.004 299.327 323.211 297.49 320.495 297.49C317.779 297.49 315.986 299.336 315.986 302.342C315.986 305.365 317.762 307.185 320.495 307.185ZM320.495 305.453C319.106 305.453 318.21 304.328 318.21 302.342C318.21 300.364 319.115 299.23 320.495 299.23C321.884 299.23 322.78 300.364 322.78 302.342C322.78 304.328 321.884 305.453 320.495 305.453ZM329.891 307.149C331.253 307.149 332.325 306.455 332.835 305.409H332.87V307H335.015V294.317H332.826V299.248H332.773C332.281 298.22 331.227 297.525 329.891 297.525C327.544 297.525 326.023 299.389 326.023 302.333C326.023 305.295 327.544 307.149 329.891 307.149ZM330.55 299.327C331.93 299.327 332.835 300.514 332.835 302.342C332.835 304.188 331.93 305.356 330.55 305.356C329.135 305.356 328.265 304.196 328.265 302.342C328.265 300.496 329.144 299.327 330.55 299.327ZM340.675 294.317V307H345.307C349.104 307 351.336 304.645 351.336 300.628C351.336 296.611 349.095 294.317 345.307 294.317H340.675ZM342.942 296.233H345.069C347.601 296.233 349.024 297.798 349.024 300.637C349.024 303.528 347.618 305.084 345.069 305.084H342.942V296.233ZM356.935 299.187C358.191 299.187 359.035 300.109 359.079 301.428H354.729C354.816 300.127 355.704 299.187 356.935 299.187ZM359.088 304.214C358.851 304.987 358.077 305.497 357.058 305.497C355.625 305.497 354.711 304.495 354.711 303.001V302.869H361.224V302.157C361.224 299.327 359.571 297.49 356.926 297.49C354.236 297.49 352.531 299.433 352.531 302.377C352.531 305.348 354.219 307.185 357.014 307.185C359.22 307.185 360.854 305.972 361.136 304.214H359.088ZM362.7 307H364.889V294.317H362.7V307ZM366.805 307H368.993V297.684H366.805V307ZM367.895 296.462C368.58 296.462 369.116 295.935 369.116 295.275C369.116 294.607 368.58 294.08 367.895 294.08C367.218 294.08 366.682 294.607 366.682 295.275C366.682 295.935 367.218 296.462 367.895 296.462ZM379.03 297.684H376.745L374.583 304.97H374.539L372.377 297.684H370.039L373.344 307H375.752L379.03 297.684ZM383.794 299.187C385.051 299.187 385.895 300.109 385.938 301.428H381.588C381.676 300.127 382.563 299.187 383.794 299.187ZM385.947 304.214C385.71 304.987 384.937 305.497 383.917 305.497C382.484 305.497 381.57 304.495 381.57 303.001V302.869H388.083V302.157C388.083 299.327 386.431 297.49 383.785 297.49C381.096 297.49 379.391 299.433 379.391 302.377C379.391 305.348 381.078 307.185 383.873 307.185C386.079 307.185 387.714 305.972 387.995 304.214H385.947ZM389.498 307H391.687V301.577C391.687 300.268 392.434 299.468 393.673 299.468C394.042 299.468 394.376 299.521 394.561 299.591V297.613C394.402 297.578 394.156 297.525 393.875 297.525C392.776 297.525 391.959 298.176 391.643 299.31H391.599V297.684H389.498V307ZM396.723 310.463C398.85 310.463 399.878 309.681 400.678 307.369L404.044 297.684H401.741L399.544 305.137H399.509L397.312 297.684H394.921L398.234 307.009C398.243 307.035 398.111 307.501 398.111 307.527C397.865 308.389 397.399 308.731 396.494 308.731C396.362 308.731 395.976 308.723 395.861 308.696V310.428C395.976 310.454 396.6 310.463 396.723 310.463Z" fill="#1E1E1E"/>
<path d="M299.26 327.12C298.753 327.12 298.327 327.027 297.98 326.84C297.633 326.647 297.353 326.39 297.14 326.07C296.933 325.75 296.78 325.393 296.68 325C296.587 324.6 296.54 324.193 296.54 323.78C296.54 323.007 296.647 322.33 296.86 321.75C297.073 321.163 297.38 320.707 297.78 320.38C298.187 320.047 298.677 319.88 299.25 319.88C299.69 319.88 300.067 319.967 300.38 320.14C300.693 320.313 300.94 320.547 301.12 320.84C301.307 321.127 301.423 321.447 301.47 321.8H300.69C300.617 321.42 300.453 321.127 300.2 320.92C299.947 320.713 299.627 320.61 299.24 320.61C298.713 320.61 298.27 320.86 297.91 321.36C297.557 321.853 297.367 322.627 297.34 323.68C297.5 323.367 297.753 323.097 298.1 322.87C298.453 322.637 298.877 322.52 299.37 322.52C299.77 322.52 300.143 322.613 300.49 322.8C300.843 322.987 301.13 323.25 301.35 323.59C301.57 323.923 301.68 324.317 301.68 324.77C301.68 325.163 301.583 325.54 301.39 325.9C301.197 326.26 300.917 326.553 300.55 326.78C300.19 327.007 299.76 327.12 299.26 327.12ZM299.2 326.38C299.513 326.38 299.793 326.313 300.04 326.18C300.287 326.047 300.48 325.863 300.62 325.63C300.76 325.39 300.83 325.117 300.83 324.81C300.83 324.337 300.673 323.96 300.36 323.68C300.053 323.393 299.667 323.25 299.2 323.25C298.887 323.25 298.607 323.323 298.36 323.47C298.113 323.61 297.917 323.8 297.77 324.04C297.63 324.28 297.56 324.54 297.56 324.82C297.56 325.12 297.63 325.39 297.77 325.63C297.917 325.863 298.113 326.047 298.36 326.18C298.607 326.313 298.887 326.38 299.2 326.38ZM303.279 327.05C303.112 327.05 302.972 326.997 302.859 326.89C302.752 326.777 302.699 326.64 302.699 326.48C302.699 326.32 302.752 326.187 302.859 326.08C302.972 325.967 303.112 325.91 303.279 325.91C303.439 325.91 303.572 325.967 303.679 326.08C303.792 326.187 303.849 326.32 303.849 326.48C303.849 326.64 303.792 326.777 303.679 326.89C303.572 326.997 303.439 327.05 303.279 327.05ZM303.279 323.06C303.112 323.06 302.972 323.007 302.859 322.9C302.752 322.787 302.699 322.65 302.699 322.49C302.699 322.33 302.752 322.197 302.859 322.09C302.972 321.977 303.112 321.92 303.279 321.92C303.439 321.92 303.572 321.977 303.679 322.09C303.792 322.197 303.849 322.33 303.849 322.49C303.849 322.65 303.792 322.787 303.679 322.9C303.572 323.007 303.439 323.06 303.279 323.06ZM307.411 327.12C306.931 327.12 306.514 327.033 306.161 326.86C305.808 326.687 305.524 326.45 305.311 326.15C305.104 325.843 304.978 325.497 304.931 325.11H305.751C305.831 325.497 306.018 325.81 306.311 326.05C306.604 326.283 306.974 326.4 307.421 326.4C307.754 326.4 308.041 326.323 308.281 326.17C308.521 326.01 308.704 325.797 308.831 325.53C308.964 325.263 309.031 324.967 309.031 324.64C309.031 324.12 308.884 323.7 308.591 323.38C308.298 323.06 307.918 322.9 307.451 322.9C307.064 322.9 306.734 322.987 306.461 323.16C306.188 323.333 305.988 323.56 305.861 323.84H305.061L305.661 320H309.331V320.73H306.311L305.901 322.86C306.061 322.667 306.281 322.507 306.561 322.38C306.848 322.253 307.174 322.19 307.541 322.19C308.001 322.19 308.401 322.297 308.741 322.51C309.088 322.723 309.358 323.013 309.551 323.38C309.744 323.747 309.841 324.163 309.841 324.63C309.841 325.077 309.744 325.49 309.551 325.87C309.364 326.25 309.088 326.553 308.721 326.78C308.361 327.007 307.924 327.12 307.411 327.12ZM311.568 327L314.348 320.72H310.508V320H315.208V320.63L312.458 327H311.568ZM318.967 327V320H321.267C321.813 320 322.263 320.09 322.617 320.27C322.97 320.45 323.23 320.693 323.397 321C323.57 321.307 323.657 321.653 323.657 322.04C323.657 322.42 323.573 322.763 323.407 323.07C323.24 323.377 322.98 323.623 322.627 323.81C322.273 323.99 321.82 324.08 321.267 324.08H319.807V327H318.967ZM319.807 323.37H321.247C321.807 323.37 322.203 323.253 322.437 323.02C322.677 322.78 322.797 322.453 322.797 322.04C322.797 321.62 322.677 321.293 322.437 321.06C322.203 320.82 321.807 320.7 321.247 320.7H319.807V323.37ZM324.758 327V320H325.738L328.258 324.88L330.758 320H331.748V327H330.908V321.5L328.568 326H327.938L325.598 321.51V327H324.758Z" fill="#1E1E1E"/>
<path d="M474.699 322.086C474.699 321.297 475.3 320.82 476.113 320.719V323.469C476.011 323.445 475.917 323.414 475.831 323.383C475.074 323.117 474.699 322.672 474.699 322.086ZM478.831 327.008C478.831 327.867 478.183 328.406 477.269 328.484V325.523C477.331 325.539 477.394 325.555 477.449 325.57C478.441 325.859 478.831 326.32 478.831 327.008ZM477.277 331.008V330.016C479.339 329.82 480.714 328.703 480.714 326.828C480.714 325.008 479.503 324.219 477.917 323.859L477.269 323.711V320.727C478.167 320.867 478.683 321.508 478.706 322.211H480.519C480.488 320.562 479.191 319.391 477.292 319.195V318.18H476.089V319.188C474.245 319.367 472.8 320.375 472.8 322.227C472.8 323.969 474.066 324.836 475.456 325.148L476.113 325.305V328.477C475.042 328.336 474.48 327.711 474.433 326.93H472.581C472.597 328.375 473.589 329.844 476.081 330.031L476.074 331.008H477.277ZM489.833 322.016C489.754 320.703 488.559 319.148 486.27 319.148C483.668 319.148 482.012 321.164 482.012 324.883C482.012 328.336 483.614 330.203 486.176 330.203C488.34 330.203 490.083 328.852 490.083 326.461C490.083 324.219 488.458 322.992 486.715 322.992C485.286 322.992 484.512 323.828 484.223 324.523H484.129C484.114 322.398 484.848 320.898 486.215 320.898C487.106 320.898 487.653 321.484 487.723 322.016H489.833ZM484.395 326.555C484.395 325.383 485.176 324.664 486.168 324.664C487.114 324.664 487.934 325.344 487.934 326.555C487.934 327.773 487.129 328.438 486.176 328.438C485.2 328.438 484.395 327.742 484.395 326.555ZM491.381 328.898C491.381 329.594 491.959 330.172 492.654 330.172C493.357 330.172 493.927 329.594 493.927 328.898C493.927 328.195 493.357 327.625 492.654 327.625C491.959 327.625 491.381 328.195 491.381 328.898ZM498.132 325.367H499.288C500.491 325.367 501.155 326.016 501.163 326.891C501.171 327.781 500.475 328.453 499.311 328.453C498.202 328.453 497.522 327.82 497.444 326.992H495.366C495.405 328.711 496.639 330.211 499.257 330.211C501.53 330.211 503.436 328.953 503.413 327.008C503.397 325.305 502.147 324.516 501.155 324.438V324.352C501.96 324.242 503.1 323.43 503.077 321.914C503.054 320.289 501.483 319.133 499.343 319.133C496.936 319.133 495.608 320.516 495.554 322.281H497.663C497.694 321.602 498.218 320.859 499.264 320.859C500.218 320.859 500.858 321.438 500.866 322.219C500.866 323.055 500.218 323.648 499.233 323.648H498.132V325.367ZM506.875 322.562C506.875 322.539 506.867 322.477 506.867 322.43C506.867 321.633 507.438 320.93 508.398 320.93C509.266 320.93 509.914 321.523 509.914 322.352C509.914 323.211 509.289 323.875 508.727 324.477L504.883 328.602V330H512.336V328.18H507.945V328.109L510.266 325.523C511.172 324.531 512.148 323.625 512.148 322.133C512.148 320.43 510.688 319.133 508.445 319.133C505.914 319.133 504.734 320.82 504.734 322.445V322.562H506.875Z" fill="#4E00B1"/>
<path fill-rule="evenodd" clip-rule="evenodd" d="M510.749 297.766L501.954 306.562L500.893 305.501L509.689 296.705L503.014 296.705L503.014 295.205H512.249V304.44L510.749 304.44V297.766Z" fill="#4E00B1"/>
<g filter="url(#filter3_d_1_491)">
<rect x="213" y="184" width="322" height="79" rx="20" fill="white"/>
</g>
<rect x="226" y="196" width="57" height="57" rx="15" fill="#FBF5FF"/>
<path d="M310.203 220V207.317H307.584L303.699 216.889H303.629L299.744 207.317H297.116V220H299.164V211H299.226L302.891 219.895H304.438L308.103 211H308.164V220H310.203ZM312.277 220H314.466V210.684H312.277V220ZM313.367 209.462C314.053 209.462 314.589 208.935 314.589 208.275C314.589 207.607 314.053 207.08 313.367 207.08C312.69 207.08 312.154 207.607 312.154 208.275C312.154 208.935 312.69 209.462 313.367 209.462ZM316.136 213.355C316.136 214.7 317.006 215.597 318.729 216.001L320.425 216.396C321.33 216.625 321.673 216.915 321.673 217.46C321.673 218.154 321.014 218.585 319.95 218.585C318.843 218.585 318.184 218.11 318.052 217.258H315.898C316.048 219.024 317.533 220.185 319.871 220.185C322.227 220.185 323.853 218.998 323.853 217.24C323.853 215.86 323.123 215.14 321.26 214.7L319.599 214.331C318.685 214.111 318.263 213.76 318.263 213.232C318.263 212.556 318.896 212.099 319.862 212.099C320.882 212.099 321.523 212.591 321.594 213.391H323.633C323.58 211.668 322.095 210.49 319.906 210.49C317.639 210.49 316.136 211.65 316.136 213.355ZM333.459 214.006C333.31 212.046 331.789 210.49 329.328 210.49C326.621 210.49 324.863 212.362 324.863 215.342C324.863 218.365 326.621 220.185 329.346 220.185C331.684 220.185 333.292 218.813 333.468 216.73H331.402C331.2 217.785 330.479 218.418 329.372 218.418C327.983 218.418 327.087 217.293 327.087 215.342C327.087 213.426 327.975 212.266 329.354 212.266C330.523 212.266 331.218 213.013 331.394 214.006H333.459ZM338.794 212.187C340.051 212.187 340.895 213.109 340.938 214.428H336.588C336.676 213.127 337.563 212.187 338.794 212.187ZM340.947 217.214C340.71 217.987 339.937 218.497 338.917 218.497C337.484 218.497 336.57 217.495 336.57 216.001V215.869H343.083V215.157C343.083 212.327 341.431 210.49 338.785 210.49C336.096 210.49 334.391 212.433 334.391 215.377C334.391 218.348 336.078 220.185 338.873 220.185C341.079 220.185 342.714 218.972 342.995 217.214H340.947ZM344.56 220H346.748V207.317H344.56V220ZM348.673 220H350.861V207.317H348.673V220ZM356.126 218.497C355.177 218.497 354.544 218.014 354.544 217.249C354.544 216.511 355.15 216.036 356.205 215.966L358.358 215.834V216.546C358.358 217.671 357.365 218.497 356.126 218.497ZM355.467 220.149C356.662 220.149 357.831 219.525 358.367 218.515H358.411V220H360.521V213.584C360.521 211.712 359.018 210.49 356.706 210.49C354.333 210.49 352.848 211.738 352.751 213.479H354.781C354.922 212.705 355.581 212.204 356.618 212.204C357.699 212.204 358.358 212.767 358.358 213.742V214.41L355.897 214.551C353.63 214.691 352.355 215.685 352.355 217.337C352.355 219.016 353.665 220.149 355.467 220.149ZM362.287 220H364.476V214.604C364.476 213.268 365.275 212.362 366.532 212.362C367.78 212.362 368.396 213.101 368.396 214.419V220H370.584V213.979C370.584 211.826 369.415 210.508 367.358 210.508C365.926 210.508 364.933 211.176 364.432 212.283H364.388V210.684H362.287V220ZM372.395 220H374.583V210.684H372.395V220ZM373.484 209.462C374.17 209.462 374.706 208.935 374.706 208.275C374.706 207.607 374.17 207.08 373.484 207.08C372.808 207.08 372.271 207.607 372.271 208.275C372.271 208.935 372.808 209.462 373.484 209.462ZM380.542 220.185C383.275 220.185 385.051 218.365 385.051 215.342C385.051 212.327 383.258 210.49 380.542 210.49C377.826 210.49 376.033 212.336 376.033 215.342C376.033 218.365 377.809 220.185 380.542 220.185ZM380.542 218.453C379.153 218.453 378.257 217.328 378.257 215.342C378.257 213.364 379.162 212.23 380.542 212.23C381.931 212.23 382.827 213.364 382.827 215.342C382.827 217.328 381.931 218.453 380.542 218.453ZM394.719 210.684H392.53V216.071C392.53 217.425 391.748 218.321 390.482 218.321C389.252 218.321 388.602 217.601 388.602 216.265V210.684H386.413V216.704C386.413 218.857 387.696 220.167 389.718 220.167C391.133 220.167 392.073 219.517 392.565 218.383H392.609V220H394.719V210.684ZM396.345 213.355C396.345 214.7 397.215 215.597 398.938 216.001L400.634 216.396C401.539 216.625 401.882 216.915 401.882 217.46C401.882 218.154 401.223 218.585 400.159 218.585C399.052 218.585 398.393 218.11 398.261 217.258H396.107C396.257 219.024 397.742 220.185 400.08 220.185C402.436 220.185 404.062 218.998 404.062 217.24C404.062 215.86 403.332 215.14 401.469 214.7L399.808 214.331C398.894 214.111 398.472 213.76 398.472 213.232C398.472 212.556 399.104 212.099 400.071 212.099C401.091 212.099 401.732 212.591 401.803 213.391H403.842C403.789 211.668 402.304 210.49 400.115 210.49C397.848 210.49 396.345 211.65 396.345 213.355ZM409.282 207.317V220H411.55V215.808H414.116C416.683 215.808 418.484 214.094 418.484 211.562C418.484 209.031 416.735 207.317 414.213 207.317H409.282ZM411.55 209.172H413.615C415.241 209.172 416.182 210.042 416.182 211.562C416.182 213.101 415.232 213.979 413.606 213.979H411.55V209.172ZM422.642 218.497C421.692 218.497 421.06 218.014 421.06 217.249C421.06 216.511 421.666 216.036 422.721 215.966L424.874 215.834V216.546C424.874 217.671 423.881 218.497 422.642 218.497ZM421.982 220.149C423.178 220.149 424.347 219.525 424.883 218.515H424.927V220H427.036V213.584C427.036 211.712 425.533 210.49 423.222 210.49C420.849 210.49 419.363 211.738 419.267 213.479H421.297C421.438 212.705 422.097 212.204 423.134 212.204C424.215 212.204 424.874 212.767 424.874 213.742V214.41L422.413 214.551C420.146 214.691 418.871 215.685 418.871 217.337C418.871 219.016 420.181 220.149 421.982 220.149ZM429.805 223.463C431.932 223.463 432.96 222.681 433.76 220.369L437.126 210.684H434.823L432.626 218.137H432.591L430.394 210.684H428.003L431.316 220.009C431.325 220.035 431.193 220.501 431.193 220.527C430.947 221.389 430.481 221.731 429.576 221.731C429.444 221.731 429.058 221.723 428.943 221.696V223.428C429.058 223.454 429.682 223.463 429.805 223.463ZM438.172 220H440.36V214.296C440.36 213.171 441.099 212.354 442.153 212.354C443.173 212.354 443.806 212.995 443.806 214.032V220H445.933V214.243C445.933 213.127 446.653 212.354 447.708 212.354C448.78 212.354 449.378 213.004 449.378 214.146V220H451.566V213.61C451.566 211.747 450.362 210.508 448.525 210.508C447.181 210.508 446.073 211.229 445.625 212.38H445.572C445.229 211.185 444.289 210.508 442.971 210.508C441.705 210.508 440.721 211.22 440.316 212.301H440.272V210.684H438.172V220ZM457.341 212.187C458.598 212.187 459.441 213.109 459.485 214.428H455.135C455.223 213.127 456.11 212.187 457.341 212.187ZM459.494 217.214C459.257 217.987 458.483 218.497 457.464 218.497C456.031 218.497 455.117 217.495 455.117 216.001V215.869H461.63V215.157C461.63 212.327 459.978 210.49 457.332 210.49C454.643 210.49 452.938 212.433 452.938 215.377C452.938 218.348 454.625 220.185 457.42 220.185C459.626 220.185 461.261 218.972 461.542 217.214H459.494ZM463.045 220H465.233V214.604C465.233 213.268 466.033 212.362 467.29 212.362C468.538 212.362 469.153 213.101 469.153 214.419V220H471.342V213.979C471.342 211.826 470.173 210.508 468.116 210.508C466.684 210.508 465.69 211.176 465.189 212.283H465.146V210.684H463.045V220ZM473.706 208.504V210.684H472.37V212.371H473.706V217.521C473.706 219.332 474.497 220.044 476.51 220.044C476.976 220.044 477.406 220.009 477.644 219.956V218.286C477.503 218.312 477.222 218.33 477.02 218.33C476.246 218.33 475.895 217.979 475.895 217.214V212.371H477.652V210.684H475.895V208.504H473.706Z" fill="#1E1E1E"/>
<path d="M299.26 240.12C298.753 240.12 298.327 240.027 297.98 239.84C297.633 239.647 297.353 239.39 297.14 239.07C296.933 238.75 296.78 238.393 296.68 238C296.587 237.6 296.54 237.193 296.54 236.78C296.54 236.007 296.647 235.33 296.86 234.75C297.073 234.163 297.38 233.707 297.78 233.38C298.187 233.047 298.677 232.88 299.25 232.88C299.69 232.88 300.067 232.967 300.38 233.14C300.693 233.313 300.94 233.547 301.12 233.84C301.307 234.127 301.423 234.447 301.47 234.8H300.69C300.617 234.42 300.453 234.127 300.2 233.92C299.947 233.713 299.627 233.61 299.24 233.61C298.713 233.61 298.27 233.86 297.91 234.36C297.557 234.853 297.367 235.627 297.34 236.68C297.5 236.367 297.753 236.097 298.1 235.87C298.453 235.637 298.877 235.52 299.37 235.52C299.77 235.52 300.143 235.613 300.49 235.8C300.843 235.987 301.13 236.25 301.35 236.59C301.57 236.923 301.68 237.317 301.68 237.77C301.68 238.163 301.583 238.54 301.39 238.9C301.197 239.26 300.917 239.553 300.55 239.78C300.19 240.007 299.76 240.12 299.26 240.12ZM299.2 239.38C299.513 239.38 299.793 239.313 300.04 239.18C300.287 239.047 300.48 238.863 300.62 238.63C300.76 238.39 300.83 238.117 300.83 237.81C300.83 237.337 300.673 236.96 300.36 236.68C300.053 236.393 299.667 236.25 299.2 236.25C298.887 236.25 298.607 236.323 298.36 236.47C298.113 236.61 297.917 236.8 297.77 237.04C297.63 237.28 297.56 237.54 297.56 237.82C297.56 238.12 297.63 238.39 297.77 238.63C297.917 238.863 298.113 239.047 298.36 239.18C298.607 239.313 298.887 239.38 299.2 239.38ZM303.279 240.05C303.112 240.05 302.972 239.997 302.859 239.89C302.752 239.777 302.699 239.64 302.699 239.48C302.699 239.32 302.752 239.187 302.859 239.08C302.972 238.967 303.112 238.91 303.279 238.91C303.439 238.91 303.572 238.967 303.679 239.08C303.792 239.187 303.849 239.32 303.849 239.48C303.849 239.64 303.792 239.777 303.679 239.89C303.572 239.997 303.439 240.05 303.279 240.05ZM303.279 236.06C303.112 236.06 302.972 236.007 302.859 235.9C302.752 235.787 302.699 235.65 302.699 235.49C302.699 235.33 302.752 235.197 302.859 235.09C302.972 234.977 303.112 234.92 303.279 234.92C303.439 234.92 303.572 234.977 303.679 235.09C303.792 235.197 303.849 235.33 303.849 235.49C303.849 235.65 303.792 235.787 303.679 235.9C303.572 236.007 303.439 236.06 303.279 236.06ZM307.411 240.12C306.931 240.12 306.514 240.033 306.161 239.86C305.808 239.687 305.524 239.45 305.311 239.15C305.104 238.843 304.978 238.497 304.931 238.11H305.751C305.831 238.497 306.018 238.81 306.311 239.05C306.604 239.283 306.974 239.4 307.421 239.4C307.754 239.4 308.041 239.323 308.281 239.17C308.521 239.01 308.704 238.797 308.831 238.53C308.964 238.263 309.031 237.967 309.031 237.64C309.031 237.12 308.884 236.7 308.591 236.38C308.298 236.06 307.918 235.9 307.451 235.9C307.064 235.9 306.734 235.987 306.461 236.16C306.188 236.333 305.988 236.56 305.861 236.84H305.061L305.661 233H309.331V233.73H306.311L305.901 235.86C306.061 235.667 306.281 235.507 306.561 235.38C306.848 235.253 307.174 235.19 307.541 235.19C308.001 235.19 308.401 235.297 308.741 235.51C309.088 235.723 309.358 236.013 309.551 236.38C309.744 236.747 309.841 237.163 309.841 237.63C309.841 238.077 309.744 238.49 309.551 238.87C309.364 239.25 309.088 239.553 308.721 239.78C308.361 240.007 307.924 240.12 307.411 240.12ZM311.568 240L314.348 233.72H310.508V233H315.208V233.63L312.458 240H311.568ZM318.967 240V233H321.267C321.813 233 322.263 233.09 322.617 233.27C322.97 233.45 323.23 233.693 323.397 234C323.57 234.307 323.657 234.653 323.657 235.04C323.657 235.42 323.573 235.763 323.407 236.07C323.24 236.377 322.98 236.623 322.627 236.81C322.273 236.99 321.82 237.08 321.267 237.08H319.807V240H318.967ZM319.807 236.37H321.247C321.807 236.37 322.203 236.253 322.437 236.02C322.677 235.78 322.797 235.453 322.797 235.04C322.797 234.62 322.677 234.293 322.437 234.06C322.203 233.82 321.807 233.7 321.247 233.7H319.807V236.37ZM324.758 240V233H325.738L328.258 237.88L330.758 233H331.748V240H330.908V234.5L328.568 239H327.938L325.598 234.51V240H324.758Z" fill="#1E1E1E"/>
<path d="M474.699 235.086C474.699 234.297 475.3 233.82 476.113 233.719V236.469C476.011 236.445 475.917 236.414 475.831 236.383C475.074 236.117 474.699 235.672 474.699 235.086ZM478.831 240.008C478.831 240.867 478.183 241.406 477.269 241.484V238.523C477.331 238.539 477.394 238.555 477.449 238.57C478.441 238.859 478.831 239.32 478.831 240.008ZM477.277 244.008V243.016C479.339 242.82 480.714 241.703 480.714 239.828C480.714 238.008 479.503 237.219 477.917 236.859L477.269 236.711V233.727C478.167 233.867 478.683 234.508 478.706 235.211H480.519C480.488 233.562 479.191 232.391 477.292 232.195V231.18H476.089V232.188C474.245 232.367 472.8 233.375 472.8 235.227C472.8 236.969 474.066 237.836 475.456 238.148L476.113 238.305V241.477C475.042 241.336 474.48 240.711 474.433 239.93H472.581C472.597 241.375 473.589 242.844 476.081 243.031L476.074 244.008H477.277ZM489.833 235.016C489.754 233.703 488.559 232.148 486.27 232.148C483.668 232.148 482.012 234.164 482.012 237.883C482.012 241.336 483.614 243.203 486.176 243.203C488.34 243.203 490.083 241.852 490.083 239.461C490.083 237.219 488.458 235.992 486.715 235.992C485.286 235.992 484.512 236.828 484.223 237.523H484.129C484.114 235.398 484.848 233.898 486.215 233.898C487.106 233.898 487.653 234.484 487.723 235.016H489.833ZM484.395 239.555C484.395 238.383 485.176 237.664 486.168 237.664C487.114 237.664 487.934 238.344 487.934 239.555C487.934 240.773 487.129 241.438 486.176 241.438C485.2 241.438 484.395 240.742 484.395 239.555ZM491.381 241.898C491.381 242.594 491.959 243.172 492.654 243.172C493.357 243.172 493.927 242.594 493.927 241.898C493.927 241.195 493.357 240.625 492.654 240.625C491.959 240.625 491.381 241.195 491.381 241.898ZM498.132 238.367H499.288C500.491 238.367 501.155 239.016 501.163 239.891C501.171 240.781 500.475 241.453 499.311 241.453C498.202 241.453 497.522 240.82 497.444 239.992H495.366C495.405 241.711 496.639 243.211 499.257 243.211C501.53 243.211 503.436 241.953 503.413 240.008C503.397 238.305 502.147 237.516 501.155 237.438V237.352C501.96 237.242 503.1 236.43 503.077 234.914C503.054 233.289 501.483 232.133 499.343 232.133C496.936 232.133 495.608 233.516 495.554 235.281H497.663C497.694 234.602 498.218 233.859 499.264 233.859C500.218 233.859 500.858 234.438 500.866 235.219C500.866 236.055 500.218 236.648 499.233 236.648H498.132V238.367ZM506.875 235.562C506.875 235.539 506.867 235.477 506.867 235.43C506.867 234.633 507.438 233.93 508.398 233.93C509.266 233.93 509.914 234.523 509.914 235.352C509.914 236.211 509.289 236.875 508.727 237.477L504.883 241.602V243H512.336V241.18H507.945V241.109L510.266 238.523C511.172 237.531 512.148 236.625 512.148 235.133C512.148 233.43 510.688 232.133 508.445 232.133C505.914 232.133 504.734 233.82 504.734 235.445V235.562H506.875Z" fill="#4E00B1"/>
<path fill-rule="evenodd" clip-rule="evenodd" d="M510.749 210.766L501.954 219.562L500.893 218.501L509.689 209.705L503.014 209.705L503.014 208.205H512.249V217.44L510.749 217.44V210.766Z" fill="#4E00B1"/>
<g filter="url(#filter4_d_1_491)">
<rect x="67" y="97" width="322" height="79" rx="20" fill="white"/>
</g>
<rect x="80" y="109" width="57" height="57" rx="15" fill="#FBF5FF"/>
<path d="M156.583 133.211C159.58 133.211 161.654 131.567 162.05 128.852H159.826C159.475 130.381 158.271 131.286 156.592 131.286C154.395 131.286 153.006 129.502 153.006 126.654C153.006 123.824 154.403 122.031 156.583 122.031C158.227 122.031 159.519 123.077 159.817 124.668H162.05C161.769 121.943 159.527 120.106 156.583 120.106C152.979 120.106 150.686 122.611 150.686 126.654C150.686 130.724 152.962 133.211 156.583 133.211ZM167.675 133.185C170.408 133.185 172.184 131.365 172.184 128.342C172.184 125.327 170.391 123.49 167.675 123.49C164.959 123.49 163.166 125.336 163.166 128.342C163.166 131.365 164.941 133.185 167.675 133.185ZM167.675 131.453C166.286 131.453 165.39 130.328 165.39 128.342C165.39 126.364 166.295 125.23 167.675 125.23C169.063 125.23 169.96 126.364 169.96 128.342C169.96 130.328 169.063 131.453 167.675 131.453ZM181.852 123.684H179.663V129.071C179.663 130.425 178.881 131.321 177.615 131.321C176.385 131.321 175.734 130.601 175.734 129.265V123.684H173.546V129.704C173.546 131.857 174.829 133.167 176.851 133.167C178.266 133.167 179.206 132.517 179.698 131.383H179.742V133H181.852V123.684ZM183.645 133H185.833V127.577C185.833 126.268 186.58 125.468 187.819 125.468C188.188 125.468 188.522 125.521 188.707 125.591V123.613C188.549 123.578 188.303 123.525 188.021 123.525C186.923 123.525 186.105 124.176 185.789 125.31H185.745V123.684H183.645V133ZM189.885 133H192.073V123.684H189.885V133ZM190.975 122.462C191.66 122.462 192.196 121.935 192.196 121.275C192.196 120.607 191.66 120.08 190.975 120.08C190.298 120.08 189.762 120.607 189.762 121.275C189.762 121.935 190.298 122.462 190.975 122.462ZM197.927 125.187C199.184 125.187 200.027 126.109 200.071 127.428H195.721C195.809 126.127 196.696 125.187 197.927 125.187ZM200.08 130.214C199.843 130.987 199.069 131.497 198.05 131.497C196.617 131.497 195.703 130.495 195.703 129.001V128.869H202.216V128.157C202.216 125.327 200.563 123.49 197.918 123.49C195.229 123.49 193.523 125.433 193.523 128.377C193.523 131.348 195.211 133.185 198.006 133.185C200.212 133.185 201.847 131.972 202.128 130.214H200.08ZM203.631 133H205.819V127.577C205.819 126.268 206.566 125.468 207.806 125.468C208.175 125.468 208.509 125.521 208.693 125.591V123.613C208.535 123.578 208.289 123.525 208.008 123.525C206.909 123.525 206.092 124.176 205.775 125.31H205.731V123.684H203.631V133ZM213.642 120.317V133H218.273C222.07 133 224.303 130.645 224.303 126.628C224.303 122.611 222.062 120.317 218.273 120.317H213.642ZM215.909 122.233H218.036C220.567 122.233 221.991 123.798 221.991 126.637C221.991 129.528 220.585 131.084 218.036 131.084H215.909V122.233ZM229.901 125.187C231.158 125.187 232.002 126.109 232.046 127.428H227.695C227.783 126.127 228.671 125.187 229.901 125.187ZM232.055 130.214C231.817 130.987 231.044 131.497 230.024 131.497C228.592 131.497 227.678 130.495 227.678 129.001V128.869H234.19V128.157C234.19 125.327 232.538 123.49 229.893 123.49C227.203 123.49 225.498 125.433 225.498 128.377C225.498 131.348 227.186 133.185 229.98 133.185C232.187 133.185 233.821 131.972 234.103 130.214H232.055ZM235.667 133H237.855V120.317H235.667V133ZM239.771 133H241.96V123.684H239.771V133ZM240.861 122.462C241.547 122.462 242.083 121.935 242.083 121.275C242.083 120.607 241.547 120.08 240.861 120.08C240.185 120.08 239.648 120.607 239.648 121.275C239.648 121.935 240.185 122.462 240.861 122.462ZM251.997 123.684H249.712L247.55 130.97H247.506L245.344 123.684H243.006L246.311 133H248.719L251.997 123.684ZM256.761 125.187C258.018 125.187 258.861 126.109 258.905 127.428H254.555C254.643 126.127 255.53 125.187 256.761 125.187ZM258.914 130.214C258.677 130.987 257.903 131.497 256.884 131.497C255.451 131.497 254.537 130.495 254.537 129.001V128.869H261.05V128.157C261.05 125.327 259.397 123.49 256.752 123.49C254.062 123.49 252.357 125.433 252.357 128.377C252.357 131.348 254.045 133.185 256.84 133.185C259.046 133.185 260.681 131.972 260.962 130.214H258.914ZM262.465 133H264.653V127.577C264.653 126.268 265.4 125.468 266.64 125.468C267.009 125.468 267.343 125.521 267.527 125.591V123.613C267.369 123.578 267.123 123.525 266.842 123.525C265.743 123.525 264.926 124.176 264.609 125.31H264.565V123.684H262.465V133ZM269.689 136.463C271.816 136.463 272.845 135.681 273.645 133.369L277.011 123.684H274.708L272.511 131.137H272.476L270.278 123.684H267.888L271.201 133.009C271.21 133.035 271.078 133.501 271.078 133.527C270.832 134.389 270.366 134.731 269.461 134.731C269.329 134.731 268.942 134.723 268.828 134.696V136.428C268.942 136.454 269.566 136.463 269.689 136.463Z" fill="#1E1E1E"/>
<path d="M153.26 153.12C152.753 153.12 152.327 153.027 151.98 152.84C151.633 152.647 151.353 152.39 151.14 152.07C150.933 151.75 150.78 151.393 150.68 151C150.587 150.6 150.54 150.193 150.54 149.78C150.54 149.007 150.647 148.33 150.86 147.75C151.073 147.163 151.38 146.707 151.78 146.38C152.187 146.047 152.677 145.88 153.25 145.88C153.69 145.88 154.067 145.967 154.38 146.14C154.693 146.313 154.94 146.547 155.12 146.84C155.307 147.127 155.423 147.447 155.47 147.8H154.69C154.617 147.42 154.453 147.127 154.2 146.92C153.947 146.713 153.627 146.61 153.24 146.61C152.713 146.61 152.27 146.86 151.91 147.36C151.557 147.853 151.367 148.627 151.34 149.68C151.5 149.367 151.753 149.097 152.1 148.87C152.453 148.637 152.877 148.52 153.37 148.52C153.77 148.52 154.143 148.613 154.49 148.8C154.843 148.987 155.13 149.25 155.35 149.59C155.57 149.923 155.68 150.317 155.68 150.77C155.68 151.163 155.583 151.54 155.39 151.9C155.197 152.26 154.917 152.553 154.55 152.78C154.19 153.007 153.76 153.12 153.26 153.12ZM153.2 152.38C153.513 152.38 153.793 152.313 154.04 152.18C154.287 152.047 154.48 151.863 154.62 151.63C154.76 151.39 154.83 151.117 154.83 150.81C154.83 150.337 154.673 149.96 154.36 149.68C154.053 149.393 153.667 149.25 153.2 149.25C152.887 149.25 152.607 149.323 152.36 149.47C152.113 149.61 151.917 149.8 151.77 150.04C151.63 150.28 151.56 150.54 151.56 150.82C151.56 151.12 151.63 151.39 151.77 151.63C151.917 151.863 152.113 152.047 152.36 152.18C152.607 152.313 152.887 152.38 153.2 152.38ZM157.279 153.05C157.112 153.05 156.972 152.997 156.859 152.89C156.752 152.777 156.699 152.64 156.699 152.48C156.699 152.32 156.752 152.187 156.859 152.08C156.972 151.967 157.112 151.91 157.279 151.91C157.439 151.91 157.572 151.967 157.679 152.08C157.792 152.187 157.849 152.32 157.849 152.48C157.849 152.64 157.792 152.777 157.679 152.89C157.572 152.997 157.439 153.05 157.279 153.05ZM157.279 149.06C157.112 149.06 156.972 149.007 156.859 148.9C156.752 148.787 156.699 148.65 156.699 148.49C156.699 148.33 156.752 148.197 156.859 148.09C156.972 147.977 157.112 147.92 157.279 147.92C157.439 147.92 157.572 147.977 157.679 148.09C157.792 148.197 157.849 148.33 157.849 148.49C157.849 148.65 157.792 148.787 157.679 148.9C157.572 149.007 157.439 149.06 157.279 149.06ZM161.411 153.12C160.931 153.12 160.514 153.033 160.161 152.86C159.808 152.687 159.524 152.45 159.311 152.15C159.104 151.843 158.978 151.497 158.931 151.11H159.751C159.831 151.497 160.018 151.81 160.311 152.05C160.604 152.283 160.974 152.4 161.421 152.4C161.754 152.4 162.041 152.323 162.281 152.17C162.521 152.01 162.704 151.797 162.831 151.53C162.964 151.263 163.031 150.967 163.031 150.64C163.031 150.12 162.884 149.7 162.591 149.38C162.298 149.06 161.918 148.9 161.451 148.9C161.064 148.9 160.734 148.987 160.461 149.16C160.188 149.333 159.988 149.56 159.861 149.84H159.061L159.661 146H163.331V146.73H160.311L159.901 148.86C160.061 148.667 160.281 148.507 160.561 148.38C160.848 148.253 161.174 148.19 161.541 148.19C162.001 148.19 162.401 148.297 162.741 148.51C163.088 148.723 163.358 149.013 163.551 149.38C163.744 149.747 163.841 150.163 163.841 150.63C163.841 151.077 163.744 151.49 163.551 151.87C163.364 152.25 163.088 152.553 162.721 152.78C162.361 153.007 161.924 153.12 161.411 153.12ZM165.568 153L168.348 146.72H164.508V146H169.208V146.63L166.458 153H165.568ZM172.967 153V146H175.267C175.813 146 176.263 146.09 176.617 146.27C176.97 146.45 177.23 146.693 177.397 147C177.57 147.307 177.657 147.653 177.657 148.04C177.657 148.42 177.573 148.763 177.407 149.07C177.24 149.377 176.98 149.623 176.627 149.81C176.273 149.99 175.82 150.08 175.267 150.08H173.807V153H172.967ZM173.807 149.37H175.247C175.807 149.37 176.203 149.253 176.437 149.02C176.677 148.78 176.797 148.453 176.797 148.04C176.797 147.62 176.677 147.293 176.437 147.06C176.203 146.82 175.807 146.7 175.247 146.7H173.807V149.37ZM178.758 153V146H179.738L182.258 150.88L184.758 146H185.748V153H184.908V147.5L182.568 152H181.938L179.598 147.51V153H178.758Z" fill="#1E1E1E"/>
<path d="M328.699 148.086C328.699 147.297 329.3 146.82 330.113 146.719V149.469C330.011 149.445 329.917 149.414 329.831 149.383C329.074 149.117 328.699 148.672 328.699 148.086ZM332.831 153.008C332.831 153.867 332.183 154.406 331.269 154.484V151.523C331.331 151.539 331.394 151.555 331.449 151.57C332.441 151.859 332.831 152.32 332.831 153.008ZM331.277 157.008V156.016C333.339 155.82 334.714 154.703 334.714 152.828C334.714 151.008 333.503 150.219 331.917 149.859L331.269 149.711V146.727C332.167 146.867 332.683 147.508 332.706 148.211H334.519C334.488 146.562 333.191 145.391 331.292 145.195V144.18H330.089V145.188C328.245 145.367 326.8 146.375 326.8 148.227C326.8 149.969 328.066 150.836 329.456 151.148L330.113 151.305V154.477C329.042 154.336 328.48 153.711 328.433 152.93H326.581C326.597 154.375 327.589 155.844 330.081 156.031L330.074 157.008H331.277ZM343.833 148.016C343.754 146.703 342.559 145.148 340.27 145.148C337.668 145.148 336.012 147.164 336.012 150.883C336.012 154.336 337.614 156.203 340.176 156.203C342.34 156.203 344.083 154.852 344.083 152.461C344.083 150.219 342.458 148.992 340.715 148.992C339.286 148.992 338.512 149.828 338.223 150.523H338.129C338.114 148.398 338.848 146.898 340.215 146.898C341.106 146.898 341.653 147.484 341.723 148.016H343.833ZM338.395 152.555C338.395 151.383 339.176 150.664 340.168 150.664C341.114 150.664 341.934 151.344 341.934 152.555C341.934 153.773 341.129 154.438 340.176 154.438C339.2 154.438 338.395 153.742 338.395 152.555ZM345.381 154.898C345.381 155.594 345.959 156.172 346.654 156.172C347.357 156.172 347.927 155.594 347.927 154.898C347.927 154.195 347.357 153.625 346.654 153.625C345.959 153.625 345.381 154.195 345.381 154.898ZM352.132 151.367H353.288C354.491 151.367 355.155 152.016 355.163 152.891C355.171 153.781 354.475 154.453 353.311 154.453C352.202 154.453 351.522 153.82 351.444 152.992H349.366C349.405 154.711 350.639 156.211 353.257 156.211C355.53 156.211 357.436 154.953 357.413 153.008C357.397 151.305 356.147 150.516 355.155 150.438V150.352C355.96 150.242 357.1 149.43 357.077 147.914C357.054 146.289 355.483 145.133 353.343 145.133C350.936 145.133 349.608 146.516 349.554 148.281H351.663C351.694 147.602 352.218 146.859 353.264 146.859C354.218 146.859 354.858 147.438 354.866 148.219C354.866 149.055 354.218 149.648 353.233 149.648H352.132V151.367ZM360.875 148.562C360.875 148.539 360.867 148.477 360.867 148.43C360.867 147.633 361.438 146.93 362.398 146.93C363.266 146.93 363.914 147.523 363.914 148.352C363.914 149.211 363.289 149.875 362.727 150.477L358.883 154.602V156H366.336V154.18H361.945V154.109L364.266 151.523C365.172 150.531 366.148 149.625 366.148 148.133C366.148 146.43 364.688 145.133 362.445 145.133C359.914 145.133 358.734 146.82 358.734 148.445V148.562H360.875Z" fill="#4E00B1"/>
<path fill-rule="evenodd" clip-rule="evenodd" d="M364.749 123.766L355.954 132.562L354.893 131.501L363.689 122.705L357.014 122.705L357.014 121.205H366.249V130.44L364.749 130.44V123.766Z" fill="#4E00B1"/>
<path d="M262.231 302.939C262.195 302.992 259.402 307.088 259.281 307.266V323.798H265.181V307.266L262.231 302.939Z" fill="#4E00B1"/>
<path d="M250.442 310.873C249.684 310.873 248.953 311.328 248.383 312.154C247.012 314.092 247.078 317.646 248.696 319.43C249.05 315.561 250.623 314.896 250.789 310.905C250.674 310.884 250.559 310.873 250.442 310.873Z" fill="#4E00B1"/>
<path d="M252.187 311.755C251.833 315.624 250.26 316.289 250.094 320.28C251.029 320.437 251.838 319.969 252.5 319.031C253.871 317.093 253.805 313.539 252.187 311.755Z" fill="#4E00B1"/>
<path d="M246.785 299H261.508V301.436H246.785V299Z" fill="#4E00B1"/>
<path d="M246.093 302.889L243.109 307.266V323.797H257.831V306.817L260.51 302.889H246.093ZM253.699 319.856C252.014 322.389 248.873 322.389 247.188 319.856C245.561 317.593 245.561 313.591 247.188 311.328C248.873 308.795 252.014 308.795 253.699 311.328C255.325 313.591 255.325 317.593 253.699 319.856Z" fill="#4E00B1"/>
<path d="M254.329 212.651C247.882 212.651 242.656 217.948 242.656 224.482C242.656 231.017 247.883 236.313 254.329 236.313C260.776 236.313 266.002 231.017 266.002 224.482C266.003 217.948 260.776 212.651 254.329 212.651ZM255.656 230.388V232.349H252.955V230.548C251.911 230.393 250.984 229.977 250.183 229.348L251.151 226.631C251.937 227.248 253.059 227.812 254.024 227.812C254.765 227.812 255.243 227.473 255.243 226.947C255.243 226.605 255.133 226.195 253.821 225.661C252.178 225.012 250.497 224.062 250.497 221.932C250.497 220.324 251.479 219.033 253.074 218.523V216.615H255.759V218.354C256.575 218.482 257.449 218.88 258.168 219.344L257.161 222.017C256.437 221.535 255.411 221.066 254.587 221.066C253.687 221.066 253.59 221.528 253.59 221.726C253.59 222.037 253.706 222.305 255.205 222.928C256.671 223.53 258.353 224.516 258.353 226.826C258.353 228.477 257.3 229.858 255.656 230.388Z" fill="#4E00B1"/>
<path d="M107.689 136.496L98.2307 132.513C98.0952 132.456 97.9453 132.556 97.9453 132.703V143.35C97.9453 143.619 98.1091 143.861 98.3589 143.961L107.533 147.631C107.668 147.685 107.815 147.585 107.815 147.44V136.686C107.815 136.603 107.766 136.528 107.689 136.496Z" fill="#4E00B1"/>
<path d="M108.557 135.365L117.7 131.515C117.864 131.446 117.868 131.215 117.707 131.139L108.756 126.962C108.579 126.88 108.375 126.88 108.199 126.962L99.2476 131.139C99.086 131.215 99.0904 131.446 99.2547 131.515L108.397 135.365C108.448 135.386 108.506 135.386 108.557 135.365Z" fill="#4E00B1"/>
<path d="M109.129 136.686V147.44C109.129 147.585 109.276 147.685 109.411 147.631L118.585 143.961C118.835 143.861 118.999 143.619 118.999 143.35V132.703C118.999 132.556 118.849 132.456 118.714 132.513L109.255 136.496C109.179 136.528 109.129 136.603 109.129 136.686Z" fill="#4E00B1"/>
<path d="M117.25 394.592C117.223 394.148 116.856 393.803 116.412 393.804H113.058V391.289C113.058 388.974 111.182 387.097 108.867 387.097C106.552 387.097 104.675 388.974 104.675 391.289V393.804H101.322C100.878 393.803 100.511 394.148 100.484 394.592L99.7463 407.912C99.6676 409.299 100.728 410.487 102.115 410.565C102.163 410.568 102.212 410.569 102.261 410.569H115.481C116.87 410.572 117.998 409.447 118 408.059C118 408.01 117.999 407.961 117.996 407.912L117.25 394.592ZM106.352 391.289C106.352 389.9 107.478 388.774 108.867 388.774C110.256 388.774 111.382 389.9 111.382 391.289V393.804H106.352V391.289Z" fill="#4E00B1"/>
<defs>
<filter id="filter0_d_1_491" x="67" y="349" width="410" height="167" filterUnits="userSpaceOnUse" color-interpolation-filters="sRGB">
<feFlood flood-opacity="0" result="BackgroundImageFix"/>
<feColorMatrix in="SourceAlpha" type="matrix" values="0 0 0 0 0 0 0 0 0 0 0 0 0 0 0 0 0 0 127 0" result="hardAlpha"/>
<feOffset dx="44" dy="35"/>
<feGaussianBlur stdDeviation="22"/>
<feComposite in2="hardAlpha" operator="out"/>
<feColorMatrix type="matrix" values="0 0 0 0 0 0 0 0 0 0 0 0 0 0 0 0 0 0 0.04 0"/>
<feBlend mode="normal" in2="BackgroundImageFix" result="effect1_dropShadow_1_491"/>
<feBlend mode="normal" in="SourceGraphic" in2="effect1_dropShadow_1_491" result="shape"/>
</filter>
<filter id="filter1_d_1_491" x="49" y="184" width="233.645" height="232.645" filterUnits="userSpaceOnUse" color-interpolation-filters="sRGB">
<feFlood flood-opacity="0" result="BackgroundImageFix"/>
<feColorMatrix in="SourceAlpha" type="matrix" values="0 0 0 0 0 0 0 0 0 0 0 0 0 0 0 0 0 0 127 0" result="hardAlpha"/>
<feMorphology radius="12.3552" operator="erode" in="SourceAlpha" result="effect1_dropShadow_1_491"/>
<feOffset dx="44" dy="35"/>
<feGaussianBlur stdDeviation="22"/>
<feColorMatrix type="matrix" values="0 0 0 0 0.180392 0 0 0 0 0.188235 0 0 0 0 0.188235 0 0 0 0.08 0"/>
<feBlend mode="normal" in2="BackgroundImageFix" result="effect1_dropShadow_1_491"/>
<feBlend mode="normal" in="SourceGraphic" in2="effect1_dropShadow_1_491" result="shape"/>
</filter>
<filter id="filter2_d_1_491" x="213" y="262" width="410" height="167" filterUnits="userSpaceOnUse" color-interpolation-filters="sRGB">
<feFlood flood-opacity="0" result="BackgroundImageFix"/>
<feColorMatrix in="SourceAlpha" type="matrix" values="0 0 0 0 0 0 0 0 0 0 0 0 0 0 0 0 0 0 127 0" result="hardAlpha"/>
<feOffset dx="44" dy="35"/>
<feGaussianBlur stdDeviation="22"/>
<feComposite in2="hardAlpha" operator="out"/>
<feColorMatrix type="matrix" values="0 0 0 0 0 0 0 0 0 0 0 0 0 0 0 0 0 0 0.04 0"/>
<feBlend mode="normal" in2="BackgroundImageFix" result="effect1_dropShadow_1_491"/>
<feBlend mode="normal" in="SourceGraphic" in2="effect1_dropShadow_1_491" result="shape"/>
</filter>
<filter id="filter3_d_1_491" x="213" y="175" width="410" height="167" filterUnits="userSpaceOnUse" color-interpolation-filters="sRGB">
<feFlood flood-opacity="0" result="BackgroundImageFix"/>
<feColorMatrix in="SourceAlpha" type="matrix" values="0 0 0 0 0 0 0 0 0 0 0 0 0 0 0 0 0 0 127 0" result="hardAlpha"/>
<feOffset dx="44" dy="35"/>
<feGaussianBlur stdDeviation="22"/>
<feComposite in2="hardAlpha" operator="out"/>
<feColorMatrix type="matrix" values="0 0 0 0 0 0 0 0 0 0 0 0 0 0 0 0 0 0 0.04 0"/>
<feBlend mode="normal" in2="BackgroundImageFix" result="effect1_dropShadow_1_491"/>
<feBlend mode="normal" in="SourceGraphic" in2="effect1_dropShadow_1_491" result="shape"/>
</filter>
<filter id="filter4_d_1_491" x="67" y="88" width="410" height="167" filterUnits="userSpaceOnUse" color-interpolation-filters="sRGB">
<feFlood flood-opacity="0" result="BackgroundImageFix"/>
<feColorMatrix in="SourceAlpha" type="matrix" values="0 0 0 0 0 0 0 0 0 0 0 0 0 0 0 0 0 0 127 0" result="hardAlpha"/>
<feOffset dx="44" dy="35"/>
<feGaussianBlur stdDeviation="22"/>
<feComposite in2="hardAlpha" operator="out"/>
<feColorMatrix type="matrix" values="0 0 0 0 0 0 0 0 0 0 0 0 0 0 0 0 0 0 0.04 0"/>
<feBlend mode="normal" in2="BackgroundImageFix" result="effect1_dropShadow_1_491"/>
<feBlend mode="normal" in="SourceGraphic" in2="effect1_dropShadow_1_491" result="shape"/>
</filter>
</defs>
</svg>
