<svg width="104" height="104" viewBox="0 0 104 104" fill="none" xmlns="http://www.w3.org/2000/svg">
<circle cx="52" cy="52" r="52" fill="#FBF5FF"/>
<path d="M71.2831 38.4678L52.4002 27.2341C51.8754 26.922 51.2218 26.922 50.697 27.2341L31.814 38.4678C31.3094 38.7681 31 39.3121 31 39.8993V46.312C31 59.8186 38.8037 72.1548 50.9472 76.8563C51.3337 77.006 51.763 77.0062 52.1499 76.8563C64.2639 72.1665 72.097 59.857 72.097 46.312V39.8993C72.0971 39.312 71.7878 38.7681 71.2831 38.4678ZM59.7775 48.2415L49.3382 58.6809C48.6877 59.3314 47.6331 59.3314 46.9827 58.6809L43.3189 55.0173C42.6685 54.3669 42.6685 53.3122 43.3189 52.6617C43.9694 52.0113 45.0241 52.0113 45.6745 52.6617L48.1603 55.1476L57.4219 45.886C58.0723 45.2356 59.127 45.2356 59.7775 45.886C60.4281 46.5365 60.4281 47.5912 59.7775 48.2415Z" fill="#4E00B1"/>
</svg>
