<svg width="118" height="23" viewBox="0 0 118 23" fill="none" xmlns="http://www.w3.org/2000/svg">
<path d="M30.0702 1.28972L24.0868 22.7236H19.024L15.0044 7.46195L10.8007 22.7236L5.76856 22.7543L0 1.28972H4.60258L8.37669 17.9332L12.7338 1.28972H17.5205L21.6321 17.8411L25.4369 1.28972H30.0702Z" fill="white"/>
<path d="M31.7705 14.1562C31.7705 12.4366 32.108 10.9114 32.7831 9.58077C33.4785 8.25011 34.4093 7.22652 35.5753 6.51001C36.7617 5.7935 38.0811 5.43525 39.5335 5.43525C40.8018 5.43525 41.9064 5.69114 42.8474 6.20294C43.8088 6.71473 44.5759 7.35959 45.1486 8.13752V5.71162H49.4751V22.7236H45.1486V20.2363C44.5963 21.0347 43.8292 21.7 42.8474 22.2323C41.8859 22.7441 40.7711 23 39.5028 23C38.0709 23 36.7617 22.6315 35.5753 21.8945C34.4093 21.1575 33.4785 20.1237 32.7831 18.7931C32.108 17.4419 31.7705 15.8963 31.7705 14.1562ZM45.1486 14.2176C45.1486 13.1736 44.9441 12.283 44.535 11.5461C44.1258 10.7886 43.5735 10.2154 42.878 9.82644C42.1825 9.417 41.4359 9.21228 40.6381 9.21228C39.8403 9.21228 39.1039 9.40676 38.4289 9.79573C37.7538 10.1847 37.2015 10.7579 36.7719 11.5154C36.3628 12.2523 36.1583 13.1326 36.1583 14.1562C36.1583 15.1798 36.3628 16.0806 36.7719 16.8585C37.2015 17.6159 37.7538 18.1994 38.4289 18.6088C39.1244 19.0182 39.8608 19.223 40.6381 19.223C41.4359 19.223 42.1825 19.0285 42.878 18.6395C43.5735 18.2301 44.1258 17.6569 44.535 16.9199C44.9441 16.1624 45.1486 15.2617 45.1486 14.2176Z" fill="white"/>
<path d="M57.9663 0V22.7236H53.6706V0H57.9663Z" fill="white"/>
<path d="M66.5063 0V22.7236H62.2105V0H66.5063Z" fill="white"/>
<path d="M86.5527 13.8491C86.5527 14.4633 86.5117 15.016 86.4299 15.5073H74.003C74.1052 16.7356 74.5348 17.6978 75.2917 18.3939C76.0485 19.0899 76.9793 19.4379 78.0839 19.4379C79.6795 19.4379 80.8148 18.7521 81.4898 17.3805H86.1231C85.6321 19.0182 84.6912 20.3694 83.3002 21.4339C81.9092 22.478 80.2011 23 78.176 23C76.5395 23 75.0667 22.6417 73.7575 21.9252C72.4688 21.1883 71.4562 20.1544 70.7198 18.8238C70.0038 17.4931 69.6459 15.9577 69.6459 14.2176C69.6459 12.4571 70.0038 10.9114 70.7198 9.58077C71.4357 8.25011 72.4381 7.22652 73.7268 6.51001C75.0155 5.7935 76.4986 5.43525 78.176 5.43525C79.792 5.43525 81.2341 5.78327 82.5024 6.4793C83.7911 7.17534 84.7832 8.16822 85.4787 9.45794C86.1947 10.7272 86.5527 12.1909 86.5527 13.8491ZM82.1035 12.6208C82.083 11.5154 81.6841 10.6351 80.9068 9.97997C80.1295 9.30441 79.1783 8.96662 78.0532 8.96662C76.9895 8.96662 76.0895 9.29417 75.3531 9.94927C74.6371 10.5839 74.1973 11.4744 74.0336 12.6208H82.1035Z" fill="white"/>
<path d="M94.6896 9.24299V17.4726C94.6896 18.0458 94.8226 18.4655 95.0885 18.7316C95.3749 18.9773 95.8454 19.1001 96.5 19.1001H98.4944V22.7236H95.7942C92.1735 22.7236 90.3632 20.9631 90.3632 17.4419V9.24299H88.3381V5.71162H90.3632V1.50467H94.6896V5.71162H98.4944V9.24299H94.6896Z" fill="white"/>
<path d="M109.132 23C107.496 23 106.023 22.6417 104.714 21.9252C103.405 21.1883 102.372 20.1544 101.615 18.8238C100.878 17.4931 100.51 15.9577 100.51 14.2176C100.51 12.4775 100.889 10.9421 101.646 9.61148C102.423 8.28082 103.476 7.25723 104.806 6.54072C106.136 5.80374 107.619 5.43525 109.255 5.43525C110.892 5.43525 112.375 5.80374 113.704 6.54072C115.034 7.25723 116.077 8.28082 116.834 9.61148C117.611 10.9421 118 12.4775 118 14.2176C118 15.9577 117.601 17.4931 116.803 18.8238C116.026 20.1544 114.962 21.1883 113.612 21.9252C112.283 22.6417 110.789 23 109.132 23ZM109.132 19.2537C109.91 19.2537 110.636 19.0694 111.311 18.7009C112.006 18.312 112.559 17.7388 112.968 16.9813C113.377 16.2239 113.582 15.3026 113.582 14.2176C113.582 12.6004 113.152 11.3618 112.293 10.502C111.454 9.62172 110.421 9.18157 109.194 9.18157C107.966 9.18157 106.933 9.62172 106.095 10.502C105.276 11.3618 104.867 12.6004 104.867 14.2176C104.867 15.8349 105.266 17.0837 106.064 17.964C106.882 18.8238 107.905 19.2537 109.132 19.2537Z" fill="white"/>
</svg>
