<svg width="154" height="30" viewBox="0 0 154 30" fill="none" xmlns="http://www.w3.org/2000/svg">
<path d="M39.2215 1.68092L31.4172 29.6162H24.8136L19.5707 9.72532L14.0877 29.6162L7.52412 29.6562L0 1.68092H6.00328L10.926 23.3728L16.6091 1.68092H22.8525L28.2154 23.2527L33.1781 1.68092H39.2215Z" fill="#4E00B1"/>
<path d="M41.4392 18.4501C41.4392 16.2089 41.8795 14.2211 42.7599 12.4868C43.6671 10.7525 44.8811 9.41848 46.4019 8.48464C47.9495 7.5508 49.6704 7.08387 51.5648 7.08387C53.219 7.08387 54.6598 7.41739 55.8871 8.08442C57.1411 8.75145 58.1417 9.59191 58.8888 10.6058V7.44407H64.5319V29.6162H58.8888V26.3744C58.1684 27.415 57.1678 28.2821 55.8871 28.9758C54.6331 29.6429 53.179 29.9764 51.5247 29.9764C49.6571 29.9764 47.9495 29.4961 46.4019 28.5356C44.8811 27.5751 43.6671 26.2277 42.7599 24.4934C41.8795 22.7324 41.4392 20.718 41.4392 18.4501ZM58.8888 18.5301C58.8888 17.1694 58.622 16.0088 58.0883 15.0482C57.5547 14.061 56.8343 13.3139 55.9272 12.807C55.02 12.2734 54.0461 12.0066 53.0056 12.0066C51.965 12.0066 51.0045 12.26 50.124 12.767C49.2435 13.2739 48.5231 14.021 47.9628 15.0082C47.4292 15.9687 47.1624 17.116 47.1624 18.4501C47.1624 19.7842 47.4292 20.9581 47.9628 21.972C48.5231 22.9592 49.2435 23.7196 50.124 24.2533C51.0311 24.7869 51.9917 25.0537 53.0056 25.0537C54.0461 25.0537 55.02 24.8002 55.9272 24.2933C56.8343 23.7597 57.5547 23.0126 58.0883 22.0521C58.622 21.0649 58.8888 19.8909 58.8888 18.5301Z" fill="#4E00B1"/>
<path d="M75.6073 0V29.6162H70.0042V0H75.6073Z" fill="#4E00B1"/>
<path d="M86.7462 0V29.6162H81.1431V0H86.7462Z" fill="#4E00B1"/>
<path d="M112.893 18.0499C112.893 18.8503 112.84 19.5707 112.733 20.2111H96.5244C96.6578 21.8119 97.2181 23.0659 98.2053 23.9731C99.1925 24.8803 100.406 25.3339 101.847 25.3339C103.928 25.3339 105.409 24.44 106.29 22.6524H112.333C111.693 24.7869 110.465 26.5479 108.651 27.9353C106.837 29.296 104.609 29.9764 101.967 29.9764C99.8328 29.9764 97.9118 29.5095 96.2042 28.5756C94.5233 27.6151 93.2025 26.2677 92.242 24.5334C91.3082 22.7991 90.8412 20.798 90.8412 18.5301C90.8412 16.2355 91.3082 14.2211 92.242 12.4868C93.1758 10.7525 94.4832 9.41848 96.1642 8.48464C97.8451 7.5508 99.7795 7.08387 101.967 7.08387C104.075 7.08387 105.956 7.53746 107.61 8.44462C109.291 9.35178 110.585 10.6458 111.493 12.3267C112.426 13.981 112.893 15.8887 112.893 18.0499ZM107.09 16.449C107.063 15.0082 106.543 13.8609 105.529 13.0071C104.515 12.1266 103.275 11.6864 101.807 11.6864C100.42 11.6864 99.2458 12.1133 98.2853 12.9671C97.3515 13.7942 96.7778 14.9548 96.5644 16.449H107.09Z" fill="#4E00B1"/>
<path d="M123.507 12.0466V22.7725C123.507 23.5195 123.68 24.0665 124.027 24.4134C124.4 24.7335 125.014 24.8936 125.868 24.8936H128.469V29.6162H124.947C120.225 29.6162 117.864 27.3216 117.864 22.7324V12.0466H115.222V7.44407H117.864V1.96107H123.507V7.44407H128.469V12.0466H123.507Z" fill="#4E00B1"/>
<path d="M142.345 29.9764C140.21 29.9764 138.289 29.5095 136.582 28.5756C134.874 27.6151 133.527 26.2677 132.539 24.5334C131.579 22.7991 131.099 20.798 131.099 18.5301C131.099 16.2622 131.592 14.2611 132.579 12.5269C133.593 10.7926 134.967 9.45851 136.702 8.52466C138.436 7.56414 140.37 7.08387 142.505 7.08387C144.639 7.08387 146.574 7.56414 148.308 8.52466C150.042 9.45851 151.403 10.7926 152.39 12.5269C153.404 14.2611 153.911 16.2622 153.911 18.5301C153.911 20.798 153.391 22.7991 152.35 24.5334C151.336 26.2677 149.949 27.6151 148.188 28.5756C146.454 29.5095 144.506 29.9764 142.345 29.9764ZM142.345 25.0937C143.359 25.0937 144.306 24.8536 145.186 24.3733C146.093 23.8664 146.814 23.1193 147.347 22.1321C147.881 21.1449 148.148 19.9442 148.148 18.5301C148.148 16.4223 147.588 14.8081 146.467 13.6875C145.373 12.5402 144.026 11.9665 142.425 11.9665C140.824 11.9665 139.477 12.5402 138.383 13.6875C137.315 14.8081 136.782 16.4223 136.782 18.5301C136.782 20.638 137.302 22.2655 138.343 23.4128C139.41 24.5334 140.744 25.0937 142.345 25.0937Z" fill="#4E00B1"/>
</svg>
