<svg width="104" height="104" viewBox="0 0 104 104" fill="none" xmlns="http://www.w3.org/2000/svg">
<circle cx="52" cy="52" r="52" fill="#FBF5FF"/>
<path d="M52.3346 29.6665C39.8357 29.6665 29.668 39.8343 29.668 52.3332C29.668 64.8321 39.8357 74.9998 52.3346 74.9998C64.8335 74.9998 75.0013 64.8321 75.0013 52.3332C75.0013 39.8343 64.8335 29.6665 52.3346 29.6665Z" fill="#4E00B1"/>
<path d="M63.8251 47.53L51.5472 59.8076C51.1789 60.1759 50.6953 60.3613 50.2118 60.3613C49.7283 60.3613 49.2448 60.1759 48.8764 59.8076L42.7377 53.6688C41.9989 52.9304 41.9989 51.7364 42.7377 50.998C43.4761 50.2593 44.6697 50.2593 45.4084 50.998L50.2118 55.8014L61.1543 44.8593C61.8928 44.1205 63.0863 44.1205 63.8251 44.8593C64.5635 45.5977 64.5635 46.7913 63.8251 47.53Z" fill="#FAFAFA"/>
</svg>
