<svg width="104" height="104" viewBox="0 0 104 104" fill="none" xmlns="http://www.w3.org/2000/svg">
<circle cx="52" cy="52" r="52" fill="#FBF5FF"/>
<path d="M37.3581 37.671C37.3581 35.3627 38.0426 33.1062 39.325 31.187C40.6074 29.2677 42.4302 27.7718 44.5628 26.8884C46.6954 26.0051 49.0421 25.7739 51.306 26.2243C53.57 26.6746 55.6495 27.7861 57.2818 29.4184C58.914 31.0506 60.0256 33.1302 60.4759 35.3941C60.9262 37.6581 60.6951 40.0047 59.8117 42.1373C58.9284 44.2699 57.4325 46.0927 55.5132 47.3751C53.5939 48.6576 51.3374 49.3421 49.0291 49.3421C45.9338 49.3421 42.9652 48.1124 40.7764 45.9237C38.5877 43.7349 37.3581 40.7664 37.3581 37.671ZM39.6923 54.0105C37.216 54.0105 34.8412 54.9942 33.0902 56.7452C31.3392 58.4962 30.3555 60.871 30.3555 63.3473V75.0183C30.3555 75.6374 30.6014 76.2311 31.0391 76.6688C31.4769 77.1066 32.0706 77.3525 32.6897 77.3525H47.3251C46.9137 76.6433 46.6964 75.8382 46.6949 75.0183V68.0157C46.7001 66.7796 47.1954 65.5959 48.0721 64.7245L58.576 54.1972L58.7861 54.0105H39.6923ZM70.5271 55.8545C69.1546 54.4946 67.3007 53.7317 65.3685 53.7317C63.4364 53.7317 61.5825 54.4946 60.21 55.8545L49.706 66.3584C49.4897 66.5765 49.3185 66.8352 49.2024 67.1196C49.0862 67.404 49.0273 67.7085 49.0291 68.0157V75.0183C49.0291 75.6374 49.275 76.2311 49.7128 76.6688C50.1505 77.1066 50.7442 77.3525 51.3633 77.3525H58.3659C58.6731 77.3543 58.9777 77.2954 59.262 77.1793C59.5464 77.0631 59.8051 76.8919 60.0232 76.6756L70.5271 66.1717C71.887 64.7991 72.6499 62.9452 72.6499 61.0131C72.6499 59.081 71.887 57.227 70.5271 55.8545Z" fill="#4E00B1"/>
</svg>
