<svg width="104" height="104" viewBox="0 0 104 104" fill="none" xmlns="http://www.w3.org/2000/svg">
<circle cx="52" cy="52" r="52" fill="#FBF5FF"/>
<path d="M66.9987 40.4985H43.0464C41.4527 40.4985 41.284 38.5673 42.6339 38.2486H66.9987C67.3455 38.2486 67.7018 38.2674 68.0486 38.3142C67.5705 34.93 64.43 32.5769 61.0551 33.0644C60.9614 33.0738 60.877 33.0926 60.7833 33.1113L37.0748 37.1518C36.756 37.1986 36.4279 37.2549 36.1092 37.3205H36.0904C35.9686 37.3393 35.8561 37.3674 35.7342 37.3955C32.1062 38.2674 31.0469 41.5297 31.0469 43.4984V45.7671C31.0187 46.0108 31 46.2546 31 46.4983V64.4976C31 67.8069 33.6905 70.4974 36.9998 70.4974H66.9987C70.3079 70.4974 72.9984 67.8069 72.9984 64.4976V46.4983C72.9984 43.1891 70.3079 40.4985 66.9987 40.4985ZM62.5457 58.4979C60.8864 58.4979 59.5458 57.1573 59.5458 55.498C59.5458 53.8387 60.8864 52.4981 62.5457 52.4981C64.205 52.4981 65.5456 53.8387 65.5456 55.498C65.5456 57.1573 64.205 58.4979 62.5457 58.4979Z" fill="#4E00B1"/>
</svg>
